<svg xmlns="http://www.w3.org/2000/svg" width="132" height="132" viewBox="0 0 132 132">
  <g id="mundo" transform="translate(-3 -3)">
    <path id="Trazado_735366" data-name="Trazado 735366" d="M78.1,135H59.9a2.276,2.276,0,0,1-2.16-1.557l-3.134-9.4a56.587,56.587,0,0,1-14.338-5.94l-8.86,4.427a2.276,2.276,0,0,1-2.629-.426L15.9,109.233a2.276,2.276,0,0,1-.428-2.629L19.9,97.746a56.576,56.576,0,0,1-5.942-14.352l-9.4-3.134A2.276,2.276,0,0,1,3,78.1V59.9a2.276,2.276,0,0,1,1.557-2.158l9.4-3.134A56.576,56.576,0,0,1,19.9,40.254L15.467,31.4a2.276,2.276,0,0,1,.428-2.629L28.767,15.9a2.276,2.276,0,0,1,2.629-.426l8.86,4.427a56.621,56.621,0,0,1,14.338-5.94l3.134-9.4A2.276,2.276,0,0,1,59.9,3H78.1a2.276,2.276,0,0,1,2.16,1.557l3.134,9.4A56.621,56.621,0,0,1,97.735,19.9l8.86-4.427a2.276,2.276,0,0,1,2.629.426L122.1,28.767a2.276,2.276,0,0,1,.428,2.629l-4.431,8.858a56.576,56.576,0,0,1,5.942,14.352l9.4,3.134A2.276,2.276,0,0,1,135,59.9V78.1a2.276,2.276,0,0,1-1.557,2.158l-9.4,3.134A56.575,56.575,0,0,1,118.1,97.746l4.431,8.858a2.276,2.276,0,0,1-.428,2.629L109.233,122.1a2.258,2.258,0,0,1-2.629.426l-8.86-4.427a56.587,56.587,0,0,1-14.338,5.94l-3.134,9.4A2.276,2.276,0,0,1,78.1,135Zm-16.566-4.552H76.463l3.006-9.033a2.276,2.276,0,0,1,1.634-1.493,52.056,52.056,0,0,0,15.342-6.35,2.276,2.276,0,0,1,2.212-.1l8.512,4.254,10.555-10.553-4.256-8.512a2.276,2.276,0,0,1,.1-2.212,52,52,0,0,0,6.352-15.342,2.276,2.276,0,0,1,1.493-1.632l9.037-3.013V61.537l-9.033-3.006a2.276,2.276,0,0,1-1.493-1.632,52,52,0,0,0-6.352-15.342,2.276,2.276,0,0,1-.1-2.212l4.256-8.512-10.555-10.56-8.512,4.254a2.276,2.276,0,0,1-2.212-.1,52.02,52.02,0,0,0-15.342-6.35,2.276,2.276,0,0,1-1.634-1.493L76.463,7.552H61.537l-3.006,9.033A2.276,2.276,0,0,1,56.9,18.078a52.019,52.019,0,0,0-15.342,6.35,2.276,2.276,0,0,1-2.212.1l-8.512-4.254L20.276,30.827l4.256,8.512a2.276,2.276,0,0,1-.1,2.212,52,52,0,0,0-6.356,15.342,2.276,2.276,0,0,1-1.493,1.632L7.552,61.537V76.463l9.033,3.006A2.276,2.276,0,0,1,18.078,81.1,52,52,0,0,0,24.43,96.442a2.276,2.276,0,0,1,.1,2.212l-4.256,8.512,10.555,10.553,8.512-4.254a2.276,2.276,0,0,1,2.212.1,52.055,52.055,0,0,0,15.342,6.35,2.276,2.276,0,0,1,1.634,1.493ZM132.724,78.1Z" fill="#12263f"/>
    <path id="Trazado_735367" data-name="Trazado 735367" d="M56.241,13A43.241,43.241,0,1,0,99.483,56.241,43.241,43.241,0,0,0,56.241,13ZM40.31,21.025V33.483a2.276,2.276,0,0,1-2.276,2.276,6.857,6.857,0,0,0-6.828,6.828v4.552a6.828,6.828,0,0,0,6.828,6.828,2.219,2.219,0,0,1,1.62.7,2.167,2.167,0,0,1,.655,1.577v4.552a2.276,2.276,0,0,1-2.276,2.276H33.483A6.828,6.828,0,0,0,26.655,69.9a2.221,2.221,0,0,1-.7,1.623,2.2,2.2,0,0,1-1.579.653H21.025A38.537,38.537,0,0,1,40.31,21.025Zm-16.841,55.7h.91A6.857,6.857,0,0,0,31.207,69.9a2.276,2.276,0,0,1,2.276-2.276h4.552a6.828,6.828,0,0,0,6.828-6.828V56.241a6.866,6.866,0,0,0-6.828-6.828,2.276,2.276,0,0,1-2.276-2.276V42.586a2.221,2.221,0,0,1,.7-1.623,2.2,2.2,0,0,1,1.579-.653,6.828,6.828,0,0,0,6.828-6.828V19.265A38.594,38.594,0,0,1,89.014,35.759H69.9a6.828,6.828,0,1,0,0,13.655,2.219,2.219,0,0,1,1.62.7,2.167,2.167,0,0,1,.655,1.577A6.866,6.866,0,0,0,79,58.517a2.219,2.219,0,0,1,1.62.7,2.167,2.167,0,0,1,.655,1.577v9.1A2.276,2.276,0,0,1,79,72.172H69.9A6.828,6.828,0,0,0,63.069,79a2.221,2.221,0,0,1-.7,1.623,2.2,2.2,0,0,1-1.579.653H56.241A6.828,6.828,0,0,0,49.414,88.1v6.188A38.735,38.735,0,0,1,23.469,76.724ZM56.241,94.931c-.769,0-1.518-.071-2.276-.116V88.1a2.276,2.276,0,0,1,2.276-2.276h4.552A6.857,6.857,0,0,0,67.621,79,2.276,2.276,0,0,1,69.9,76.724H79A6.828,6.828,0,0,0,85.828,69.9v-9.1A6.866,6.866,0,0,0,79,53.966a2.219,2.219,0,0,1-1.62-.7,2.167,2.167,0,0,1-.655-1.577A6.866,6.866,0,0,0,69.9,44.862a2.219,2.219,0,0,1-1.62-.7,2.167,2.167,0,0,1-.655-1.577A2.276,2.276,0,0,1,69.9,40.31H91.458A38.615,38.615,0,0,1,56.241,94.931Z" transform="translate(12.759 12.759)" fill="#12263f"/>
  </g>
</svg>
