<svg xmlns="http://www.w3.org/2000/svg" width="160.428" height="153" viewBox="0 0 160.428 153">
  <g id="diagnostico" transform="translate(0.025 -11.831)">
    <g id="Grupo_972316" data-name="Grupo 972316" transform="translate(2.489 14.338)">
      <g id="Grupo_972314" data-name="Grupo 972314">
        <path id="Trazado_735368" data-name="Trazado 735368" d="M86.845,29.55l42.56,73.716a19.435,19.435,0,0,1-16.832,29.153H27.454a19.435,19.435,0,0,1-16.832-29.153L53.183,29.55a19.435,19.435,0,0,1,33.663,0Z" transform="translate(-7.998 -19.832)" fill="#fe646f" fill-rule="evenodd"/>
        <path id="Trazado_735369" data-name="Trazado 735369" d="M217.228,29.55l42.56,73.716a19.435,19.435,0,0,1-16.832,29.153H237.9a19.435,19.435,0,0,0,16.831-29.153L212.172,29.55a19.282,19.282,0,0,0-14.3-9.556,19.862,19.862,0,0,1,2.528-.162,19.3,19.3,0,0,1,16.831,9.718Z" transform="translate(-138.381 -19.832)" fill="#fd4755" fill-rule="evenodd"/>
        <path id="Trazado_735370" data-name="Trazado 735370" d="M100.277,56.822l42.56,73.716a9.3,9.3,0,0,1-8.057,13.956H49.66A9.3,9.3,0,0,1,41.6,130.538l42.56-73.716a9.3,9.3,0,0,1,16.114,0Z" transform="translate(-30.204 -42.038)" fill="#ffe177" fill-rule="evenodd"/>
        <path id="Trazado_735371" data-name="Trazado 735371" d="M54.717,144.493H49.66A9.3,9.3,0,0,1,41.6,130.537l42.56-73.716A9.172,9.172,0,0,1,92.22,52.17a9.516,9.516,0,0,1,2.528.338,9.163,9.163,0,0,0-5.529,4.314l-42.56,73.716a9.3,9.3,0,0,0,8.058,13.956Z" transform="translate(-30.204 -42.038)" fill="#ffd064" fill-rule="evenodd"/>
        <path id="Trazado_735372" data-name="Trazado 735372" d="M194.274,169.339a5.322,5.322,0,1,1-5.322,5.322,5.322,5.322,0,0,1,5.322-5.322Zm0-5.565a4.155,4.155,0,0,1-4.152-4l-1.05-29.08a4.154,4.154,0,0,1,4.151-4.3h2.1a4.154,4.154,0,0,1,4.151,4.3l-1.05,29.08A4.155,4.155,0,0,1,194.274,163.774Z" transform="translate(-132.258 -93.002)" fill="#fe646f" fill-rule="evenodd"/>
        <path id="Trazado_735373" data-name="Trazado 735373" d="M203.167,169.338A5.322,5.322,0,1,1,201.9,179.83a5.323,5.323,0,0,0,0-10.341A5.371,5.371,0,0,1,203.167,169.338Zm0-5.565a4.145,4.145,0,0,1-1.264-.2,4.157,4.157,0,0,0,2.888-3.808l1.05-29.08a4.155,4.155,0,0,0-3.938-4.3c.07,0,.142-.005.214-.005h2.1a4.154,4.154,0,0,1,4.151,4.3l-1.05,29.08a4.155,4.155,0,0,1-4.152,4Z" transform="translate(-141.151 -93.001)" fill="#fd4755" fill-rule="evenodd"/>
      </g>
      <g id="Grupo_972315" data-name="Grupo 972315" transform="translate(52.531 48.04)">
        <path id="Trazado_735374" data-name="Trazado 735374" d="M381.63,366.042a31.693,31.693,0,0,1-5.349,5.889l14.544,14.256,5.537-5.706Z" transform="translate(-313.427 -305.612)" fill="#a79ba7" fill-rule="evenodd"/>
        <path id="Trazado_735375" data-name="Trazado 735375" d="M390.2,365.729a3.653,3.653,0,0,1-1.583,2.123L403.061,382.2l1.769-1.939Z" transform="translate(-321.895 -305.397)" fill="#837683" fill-rule="evenodd"/>
        <path id="Trazado_735376" data-name="Trazado 735376" d="M432.77,427.833l6.249-6.44a2.873,2.873,0,0,0-.061-4.051L421.65,400.547a2.874,2.874,0,0,0-4.051.061l-6.249,6.44a2.874,2.874,0,0,0,.061,4.052l17.307,16.795A2.874,2.874,0,0,0,432.77,427.833Z" transform="translate(-336.955 -328.753)" fill="#f1ba84" fill-rule="evenodd"/>
        <path id="Trazado_735377" data-name="Trazado 735377" d="M436.252,400.547l17.307,16.795a2.873,2.873,0,0,1,.061,4.051l-6.249,6.44a2.838,2.838,0,0,1-.776.567,2.876,2.876,0,0,0,3.337-.567l6.249-6.44a2.874,2.874,0,0,0-.061-4.051l-17.307-16.795a2.876,2.876,0,0,0-3.275-.506A2.836,2.836,0,0,1,436.252,400.547Z" transform="translate(-354.117 -328.753)" fill="#e3a76f" fill-rule="evenodd"/>
        <circle id="Elipse_5932" data-name="Elipse 5932" cx="31.517" cy="31.517" r="31.517" transform="translate(0 44.564) rotate(-45)" fill="#8ac9fe"/>
        <path id="Trazado_735378" data-name="Trazado 735378" d="M314.618,214.808a31.517,31.517,0,0,1,0,63.033q-.769,0-1.53-.038a31.516,31.516,0,0,0,0-62.958C313.595,214.821,314.1,214.808,314.618,214.808Z" transform="translate(-270.032 -201.76)" fill="#60b7ff" fill-rule="evenodd"/>
        <circle id="Elipse_5933" data-name="Elipse 5933" cx="22.631" cy="22.631" r="22.631" transform="matrix(0.305, -0.952, 0.952, 0.305, 16.092, 59.218)" fill="#eceff1"/>
        <path id="Trazado_735379" data-name="Trazado 735379" d="M268.37,243.17c.514,0,1.024.019,1.53.053a22.63,22.63,0,0,0,0,45.156c-.506.034-1.016.053-1.53.053a22.631,22.631,0,1,1,0-45.262Z" transform="translate(-223.784 -221.236)" fill="#d1d1d6" fill-rule="evenodd"/>
      </g>
    </g>
    <path id="Trazado_735380" data-name="Trazado 735380" d="M99.612,126.811a19.869,19.869,0,1,1,19.869-19.869A19.891,19.891,0,0,1,99.612,126.811Zm0-44.751a24.883,24.883,0,1,0,24.883,24.883A24.913,24.913,0,0,0,99.612,82.06Zm55.681,71.214-6.251,6.439a.369.369,0,0,1-.507.009l-17.307-16.8a.346.346,0,0,1-.1-.251.338.338,0,0,1,.1-.256l6.248-6.439a.375.375,0,0,1,.254-.108h.006a.352.352,0,0,1,.247.1l17.307,16.8A.368.368,0,0,1,155.293,153.274ZM70.6,106.942A29.009,29.009,0,1,0,99.612,77.933,29.041,29.041,0,0,0,70.6,106.942Zm-.683-16.6A34.1,34.1,0,0,1,95.135,73.217L70.4,30.375a6.8,6.8,0,0,0-11.775,0L16.064,104.091a6.8,6.8,0,0,0,5.887,10.195H66.388a33.962,33.962,0,0,1-.8-7.343c0-1.085.053-2.155.154-3.215a8.039,8.039,0,0,1-1.231.1,7.828,7.828,0,1,1,5.408-13.482Zm-5.408,8.468A2.815,2.815,0,1,1,67.328,96,2.818,2.818,0,0,1,64.511,98.811Zm-42.56,25.607H70.43a34.11,34.11,0,0,1-2.519-5.119H21.951a11.809,11.809,0,0,1-10.23-17.715L54.282,27.869a11.81,11.81,0,0,1,20.456,0L100.76,72.941a33.776,33.776,0,0,1,6.386.822L79.171,25.31a16.924,16.924,0,0,0-29.318,0L7.289,99.025a16.929,16.929,0,0,0,14.663,25.393Zm110.046,10-2.046,2.108-6.009-5.83q1.029-1.053,1.963-2.188Zm26.779,14.75-17.31-16.8a5.354,5.354,0,0,0-3.82-1.514,5.417,5.417,0,0,0-1.777.332l-7.043-6.833A34,34,0,0,0,114.4,76.307L83.514,22.8a21.94,21.94,0,0,0-38,0L2.95,96.518a21.943,21.943,0,0,0,19,32.913H74.106a33.964,33.964,0,0,0,46.072,4.6l6.475,6.285a5.4,5.4,0,0,0-.542,2.438,5.334,5.334,0,0,0,1.626,3.772l17.307,16.8a5.38,5.38,0,0,0,7.595-.112l0,0,6.247-6.439a5.378,5.378,0,0,0-.113-7.594ZM66.159,81.016a1.649,1.649,0,0,1-3.3,0l-1.05-29.082a1.644,1.644,0,0,1,1.648-1.7h2.1a1.641,1.641,0,0,1,1.648,1.7Zm-.6-35.8a6.666,6.666,0,0,1,6.659,6.9L71.167,81.2a6.661,6.661,0,0,1-13.313,0L56.8,52.116a6.663,6.663,0,0,1,6.657-6.9Z" transform="translate(0 0)" fill-rule="evenodd"/>
  </g>
</svg>
