<svg xmlns="http://www.w3.org/2000/svg" xmlns:xlink="http://www.w3.org/1999/xlink" width="252.912" height="244.392" viewBox="0 0 252.912 244.392">
  <defs>
    <clipPath id="clip-path">
      <rect id="Rectángulo_341351" data-name="Rectángulo 341351" width="228.352" height="244.392" fill="none"/>
    </clipPath>
    <clipPath id="clip-path-3">
      <rect id="Rectángulo_341336" data-name="Rectángulo 341336" width="77.112" height="63.238" fill="none"/>
    </clipPath>
    <clipPath id="clip-path-5">
      <rect id="Rectángulo_341338" data-name="Rectángulo 341338" width="57.942" height="46.776" fill="none"/>
    </clipPath>
    <clipPath id="clip-path-6">
      <path id="Trazado_731269" data-name="Trazado 731269" d="M76.806,71.716v0Zm-11.191,3.1a2.8,2.8,0,0,0,1.647,2.3,8.692,8.692,0,0,0,7.881,0,2.769,2.769,0,0,0,1.62-2.267l.044-3.132a2.8,2.8,0,0,1-1.62,2.228,8.684,8.684,0,0,1-7.881,0,2.794,2.794,0,0,1-1.646-2.3Z" transform="translate(-65.615 -71.645)" fill="none"/>
    </clipPath>
    <clipPath id="clip-path-8">
      <path id="Trazado_731277" data-name="Trazado 731277" d="M63.029,45.978l1.427.828a2.959,2.959,0,0,1,2.985-.291l-1.427-.831a2.169,2.169,0,0,0-1.1-.283,3.825,3.825,0,0,0-1.883.577" transform="translate(-63.029 -45.401)" fill="none"/>
    </clipPath>
    <clipPath id="clip-path-9">
      <path id="Trazado_731281" data-name="Trazado 731281" d="M61.318,52.88a2.939,2.939,0,0,0,1.224,2.69l1.424.828a2.941,2.941,0,0,1-1.221-2.69,9.209,9.209,0,0,1,4.18-7.243L65.5,45.637a9.215,9.215,0,0,0-4.18,7.243" transform="translate(-61.318 -45.637)" fill="none"/>
    </clipPath>
    <clipPath id="clip-path-11">
      <rect id="Rectángulo_341341" data-name="Rectángulo 341341" width="15.623" height="63.963" fill="none"/>
    </clipPath>
    <clipPath id="clip-path-12">
      <rect id="Rectángulo_341342" data-name="Rectángulo 341342" width="12.701" height="61.059" fill="none"/>
    </clipPath>
    <clipPath id="clip-path-13">
      <rect id="Rectángulo_341343" data-name="Rectángulo 341343" width="6.022" height="7.994" fill="none"/>
    </clipPath>
    <clipPath id="clip-path-14">
      <path id="Trazado_731293" data-name="Trazado 731293" d="M59.08,78.56a2.781,2.781,0,0,0,1.644,2.3,8.684,8.684,0,0,0,7.881,0,2.776,2.776,0,0,0,1.622-2.267l.042-3.168a2.768,2.768,0,0,1-1.62,2.265,8.677,8.677,0,0,1-7.881,0,2.786,2.786,0,0,1-1.647-2.3Z" transform="translate(-59.08 -75.392)" fill="none"/>
    </clipPath>
    <clipPath id="clip-path-16">
      <path id="Trazado_731301" data-name="Trazado 731301" d="M56.493,56.451l1.427.831a2.95,2.95,0,0,1,2.983-.293l-1.424-.828a2.155,2.155,0,0,0-1.1-.286,3.817,3.817,0,0,0-1.881.577" transform="translate(-56.493 -55.874)" fill="none"/>
    </clipPath>
    <clipPath id="clip-path-17">
      <path id="Trazado_731305" data-name="Trazado 731305" d="M54.782,63.351a2.938,2.938,0,0,0,1.224,2.692l1.427.828a2.937,2.937,0,0,1-1.226-2.692,9.209,9.209,0,0,1,4.182-7.238l-1.427-.831a9.211,9.211,0,0,0-4.18,7.241" transform="translate(-54.782 -56.11)" fill="none"/>
    </clipPath>
    <clipPath id="clip-path-19">
      <rect id="Rectángulo_341346" data-name="Rectángulo 341346" width="15.623" height="47.531" fill="none"/>
    </clipPath>
    <clipPath id="clip-path-20">
      <rect id="Rectángulo_341347" data-name="Rectángulo 341347" width="12.701" height="44.626" fill="none"/>
    </clipPath>
    <clipPath id="clip-path-22">
      <rect id="Rectángulo_341349" data-name="Rectángulo 341349" width="13.981" height="15.069" fill="none"/>
    </clipPath>
    <clipPath id="clip-path-23">
      <rect id="Rectángulo_341232" data-name="Rectángulo 341232" width="77.672" height="225.299" fill="none"/>
    </clipPath>
    <clipPath id="clip-path-24">
      <rect id="Rectángulo_341231" data-name="Rectángulo 341231" width="77.673" height="225.298" fill="none"/>
    </clipPath>
    <clipPath id="clip-path-25">
      <rect id="Rectángulo_341227" data-name="Rectángulo 341227" width="39.329" height="52.051" fill="none"/>
    </clipPath>
    <clipPath id="clip-path-26">
      <rect id="Rectángulo_341228" data-name="Rectángulo 341228" width="38.047" height="58.021" fill="none"/>
    </clipPath>
    <clipPath id="clip-path-27">
      <rect id="Rectángulo_341229" data-name="Rectángulo 341229" width="19.275" height="81.67" fill="none"/>
    </clipPath>
    <clipPath id="clip-path-28">
      <rect id="Rectángulo_341230" data-name="Rectángulo 341230" width="17.609" height="12.792" fill="none"/>
    </clipPath>
  </defs>
  <g id="Grupo_966233" data-name="Grupo 966233" transform="translate(5489.672 -2292.608)">
    <g id="Grupo_966228" data-name="Grupo 966228" transform="translate(-5465.112 2292.608)">
      <g id="Grupo_966227" data-name="Grupo 966227" clip-path="url(#clip-path)">
        <path id="Trazado_731199" data-name="Trazado 731199" d="M46.9,136.98l-.012,5.186,113.8-66.132.01-5.186Z" transform="translate(67.654 102.226)" fill="#565c11"/>
        <path id="Trazado_731200" data-name="Trazado 731200" d="M0,76.034l114.543,66.132.012-5.186L.012,70.848Z" transform="translate(0 102.226)" fill="#7c8619"/>
        <path id="Trazado_731201" data-name="Trazado 731201" d="M0,109.908,114.547,176.04l113.8-66.132L113.8,43.777Z" transform="translate(0.006 63.165)" fill="#a6b321"/>
        <g id="Grupo_966180" data-name="Grupo 966180" transform="translate(0 0)">
          <g id="Grupo_966179" data-name="Grupo 966179" clip-path="url(#clip-path)">
            <g id="Grupo_966178" data-name="Grupo 966178" transform="translate(117.906 139.603)" style="mix-blend-mode: multiply;isolation: isolate">
              <g id="Grupo_966177" data-name="Grupo 966177">
                <g id="Grupo_966176" data-name="Grupo 966176" clip-path="url(#clip-path-3)">
                  <path id="Trazado_731202" data-name="Trazado 731202" d="M48.265,115.7l20.513,4.683,56.6-31.875L70.349,57.146Z" transform="translate(-48.265 -57.147)" fill="#bdc4df"/>
                </g>
              </g>
            </g>
          </g>
        </g>
        <path id="Trazado_731203" data-name="Trazado 731203" d="M76.2,78.307,28.9,52.786l47-25.362,47.3,25.521Z" transform="translate(41.707 39.57)" fill="#ffc64a"/>
        <path id="Trazado_731204" data-name="Trazado 731204" d="M95.266,116.889V37.871l-47,25.362v80.281Z" transform="translate(69.64 54.644)" fill="#bdc4df"/>
        <path id="Trazado_731205" data-name="Trazado 731205" d="M28.9,37.806v80.281L76.2,143.61V63.327Z" transform="translate(41.706 54.55)" fill="#dae0f4"/>
        <path id="Trazado_731206" data-name="Trazado 731206" d="M76.214,77.026,28.92,51.505l47-25.362,47.294,25.521Z" transform="translate(41.729 37.722)" fill="#44374f"/>
        <path id="Trazado_731207" data-name="Trazado 731207" d="M31.829,49.239,71.722,27.713,111.908,49.4,72.018,70.925Z" transform="translate(45.927 39.986)" fill="#31233c"/>
        <path id="Trazado_731208" data-name="Trazado 731208" d="M71.722,30.412l37.687,20.337,2.5-1.351L71.722,27.713,31.829,49.239l2.5,1.348Z" transform="translate(45.926 39.986)" fill="#25192e"/>
        <path id="Trazado_731209" data-name="Trazado 731209" d="M95.279,39.741V36.59l-47,25.362V65.1Z" transform="translate(69.664 52.795)" fill="#25192e"/>
        <path id="Trazado_731210" data-name="Trazado 731210" d="M28.92,36.525v3.151L76.214,65.2V62.046Z" transform="translate(41.728 52.701)" fill="#3d2d4a"/>
        <g id="Grupo_966185" data-name="Grupo 966185" transform="translate(0 0)">
          <g id="Grupo_966184" data-name="Grupo 966184" clip-path="url(#clip-path)">
            <g id="Grupo_966183" data-name="Grupo 966183" transform="translate(44.48 153.25)" style="mix-blend-mode: multiply;isolation: isolate">
              <g id="Grupo_966182" data-name="Grupo 966182">
                <g id="Grupo_966181" data-name="Grupo 966181" clip-path="url(#clip-path-5)">
                  <path id="Trazado_731211" data-name="Trazado 731211" d="M76.1,81.233l.042-1.348,0-.115v-.007a4.8,4.8,0,0,0-.926-2.8l.01-2.655a4.789,4.789,0,0,0,.872-2.67l.037-1.224c.129-1.989-1.121-4-3.752-5.521-4.993-2.88-13.06-2.88-18.021,0-2.68,1.559-3.9,3.647-3.672,5.687a4.348,4.348,0,0,1-.032-.5l-.046,1.488a4.834,4.834,0,0,0,.943,2.8l-.02,5.4q-.015-.172-.015-.344L51.536,77a4.747,4.747,0,0,0-.87,2.751l0-.076-.046,1.488a4.811,4.811,0,0,0,.914,2.76c0,.125.012.249.024.371l-.01,4.837c-.012-.127-.02-.257-.02-.384l.01-2.428a4.77,4.77,0,0,0-.87,2.748l0-.076-.046,1.49a4.531,4.531,0,0,0,.354,1.742c-.205.076-.408.156-.611.235.9-2.912-.591-6.024-4.49-8.277-6.327-3.652-16.587-3.652-22.917,0s-6.327,9.579,0,13.233c5.624,3.247,14.352,3.606,20.667,1.08-.9,2.914.591,6.024,4.49,8.277,6.327,3.652,16.587,3.652,22.917,0,2.5-1.446,4.014-3.247,4.539-5.12a4.631,4.631,0,0,0,.537-2.113l.044-1.488,0,.088a4.823,4.823,0,0,0-.943-2.9l0-1.979a4.791,4.791,0,0,0,.9-2.707l.042-1.348,0-.112v-.007a4.8,4.8,0,0,0-.923-2.8l0-2.379a4.775,4.775,0,0,0,.875-2.673m-.872,1.248.015-.02-.015.022Zm0-9.608c.032-.049.066-.1.1-.142-.032.049-.061.1-.1.147ZM51.565,72.82l-.081-.125.081.117ZM75.249,91.775a.46.46,0,0,1-.039.056v0c.015-.017.027-.037.039-.054" transform="translate(-18.207 -62.733)" fill="#bdc4df"/>
                </g>
              </g>
            </g>
            <path id="Trazado_731212" data-name="Trazado 731212" d="M53.647,35.111a6.319,6.319,0,0,1-5.716-.01c-1.583-.914-1.59-2.392-.017-3.3a6.319,6.319,0,0,1,5.716.01c1.583.914,1.59,2.392.017,3.3" transform="translate(67.438 44.906)" fill="#d1d1d1"/>
            <path id="Trazado_731213" data-name="Trazado 731213" d="M54.817,42.113V32.476H46.736l.007,9.789a2.047,2.047,0,0,0,1.19,1.61,6.319,6.319,0,0,0,5.716.01,1.923,1.923,0,0,0,1.168-1.771" transform="translate(67.435 46.86)" fill="#8892b9"/>
            <path id="Trazado_731214" data-name="Trazado 731214" d="M53.647,34.858a6.319,6.319,0,0,1-5.716-.01c-1.583-.916-1.59-2.392-.017-3.3a6.319,6.319,0,0,1,5.716.01c1.583.914,1.59,2.392.017,3.3" transform="translate(67.438 44.541)" fill="#d1d1d1"/>
            <path id="Trazado_731215" data-name="Trazado 731215" d="M80.9,22.69,39.93,22.062,51.888,45.729a20.236,20.236,0,0,1,.884,1.967c.073.2.144.4.21.6a10.915,10.915,0,0,1,.4,1.517,3.833,3.833,0,0,0,2.067,2.519,11.193,11.193,0,0,0,10.121.017,3.907,3.907,0,0,0,2-2.3c.032-.125.061-.247.093-.371a22.206,22.206,0,0,1,.73-2.4,21.4,21.4,0,0,1,1.046-2.331Z" transform="translate(57.615 31.833)" fill="#a2acd6"/>
            <path id="Trazado_731216" data-name="Trazado 731216" d="M49.446,43.01a1.325,1.325,0,0,1-1.2,0,.365.365,0,0,1,0-.691,1.325,1.325,0,0,1,1.2,0,.365.365,0,0,1,0,.691" transform="translate(69.257 60.854)" fill="#d1d1d1"/>
            <path id="Trazado_731217" data-name="Trazado 731217" d="M50.789,66.171V25.885H47.73l0,40.342a.774.774,0,0,0,.452.611,2.391,2.391,0,0,0,2.162,0,.731.731,0,0,0,.442-.672" transform="translate(68.869 37.349)" fill="#bdc4df"/>
            <path id="Trazado_731218" data-name="Trazado 731218" d="M50.345,27.017a2.4,2.4,0,0,1-2.164,0,.661.661,0,0,1,0-1.251,2.383,2.383,0,0,1,2.162,0,.659.659,0,0,1,.007,1.248" transform="translate(68.87 36.804)" fill="#d1d1d1"/>
            <path id="Trazado_731219" data-name="Trazado 731219" d="M57.342,38.469a1.33,1.33,0,0,1-1.2,0,.365.365,0,0,1,0-.691,1.33,1.33,0,0,1,1.2,0,.366.366,0,0,1,0,.691" transform="translate(80.647 54.302)" fill="#d1d1d1"/>
            <path id="Trazado_731220" data-name="Trazado 731220" d="M58.684,61.63V21.344H55.625l0,40.342a.774.774,0,0,0,.452.611,2.391,2.391,0,0,0,2.162,0,.731.731,0,0,0,.442-.672" transform="translate(80.261 30.797)" fill="#bdc4df"/>
            <path id="Trazado_731221" data-name="Trazado 731221" d="M58.24,22.477a2.388,2.388,0,0,1-2.164,0,.659.659,0,0,1,0-1.248,2.383,2.383,0,0,1,2.162,0,.658.658,0,0,1,.007,1.248" transform="translate(80.262 30.253)" fill="#d1d1d1"/>
            <path id="Trazado_731222" data-name="Trazado 731222" d="M41.536,38.469a1.325,1.325,0,0,1-1.2,0,.365.365,0,0,1,0-.691,1.33,1.33,0,0,1,1.2,0,.365.365,0,0,1,0,.691" transform="translate(57.844 54.302)" fill="#d1d1d1"/>
            <path id="Trazado_731223" data-name="Trazado 731223" d="M42.88,61.63V21.344H39.821l0,40.342a.774.774,0,0,0,.452.611,2.391,2.391,0,0,0,2.162,0,.731.731,0,0,0,.442-.672" transform="translate(57.458 30.797)" fill="#bdc4df"/>
            <path id="Trazado_731224" data-name="Trazado 731224" d="M42.436,22.477a2.388,2.388,0,0,1-2.164,0,.659.659,0,0,1,0-1.248,2.383,2.383,0,0,1,2.162,0,.659.659,0,0,1,.007,1.248" transform="translate(57.459 30.253)" fill="#d1d1d1"/>
            <path id="Trazado_731225" data-name="Trazado 731225" d="M81.477,38.808V8.76H39.806l.032,30.824c.107,3.01,2.152,6,6.141,8.308,8.164,4.715,21.361,4.739,29.474.054,4.341-2.5,6.344-5.848,6.024-9.139" transform="translate(57.436 12.64)" fill="#bdc4df"/>
            <path id="Trazado_731226" data-name="Trazado 731226" d="M72.743,19.04c-8.113,4.685-21.309,4.661-29.474-.051a18.487,18.487,0,0,1-1.585-1.026v3.4a17.918,17.918,0,0,0,1.585,1.026c8.164,4.715,21.361,4.739,29.474.054a12.536,12.536,0,0,0,5.372-5.4v-3.4a12.536,12.536,0,0,1-5.372,5.4" transform="translate(60.146 19.687)" fill="#ffb806"/>
            <path id="Trazado_731227" data-name="Trazado 731227" d="M72.743,22.054C64.63,26.74,51.434,26.715,43.269,22a18.489,18.489,0,0,1-1.585-1.026v3.4A17.918,17.918,0,0,0,43.269,25.4c8.164,4.715,21.361,4.739,29.474.054a12.536,12.536,0,0,0,5.372-5.4v-3.4a12.536,12.536,0,0,1-5.372,5.4" transform="translate(60.146 24.036)" fill="#ffb806"/>
            <path id="Trazado_731228" data-name="Trazado 731228" d="M75.44,24.192c-8.113,4.685-21.309,4.661-29.474-.054s-8.206-12.332-.093-17.017,21.309-4.661,29.474.054,8.208,12.332.093,17.017" transform="translate(57.449 5.228)" fill="#dae0f4"/>
            <path id="Trazado_731229" data-name="Trazado 731229" d="M45.786,14.04a28.828,28.828,0,0,1,14.171-3.369A29.152,29.152,0,0,1,74.3,14.094a12.523,12.523,0,0,1,4.729,4.39,6.584,6.584,0,0,0,.938-3.32c0-2.87-2.013-5.614-5.668-7.724A29.152,29.152,0,0,0,59.957,4.017,28.8,28.8,0,0,0,45.786,7.386c-3.6,2.076-5.577,4.783-5.577,7.627a6.641,6.641,0,0,0,.938,3.332,12.3,12.3,0,0,1,4.639-4.3" transform="translate(58.017 5.796)" fill="#bdc4df"/>
            <path id="Trazado_731230" data-name="Trazado 731230" d="M79.967,15.163c0,2.379-1.385,4.663-3.945,6.554a18.182,18.182,0,0,1-1.634,1.072,28.822,28.822,0,0,1-14.171,3.371,29.169,29.169,0,0,1-14.34-3.425,15.8,15.8,0,0,1-1.964-1.319c-2.409-1.876-3.7-4.1-3.7-6.4,0-2.846,1.981-5.55,5.577-7.627A28.749,28.749,0,0,1,59.957,4.016,29.179,29.179,0,0,1,74.3,7.441c3.657,2.108,5.668,4.852,5.668,7.722" transform="translate(58.017 5.795)" fill="#dae0f4"/>
            <path id="Trazado_731231" data-name="Trazado 731231" d="M88.3,12.462V6.2H38.049l.039,7.2c.127,3.63,2.594,7.243,7.4,10.021,9.845,5.685,25.758,5.714,35.542.064,5.233-3.019,7.649-7.053,7.263-11.02" transform="translate(54.901 8.94)" fill="#dae0f4"/>
            <path id="Trazado_731232" data-name="Trazado 731232" d="M45.26,12.562C49.8,9.944,55.867,8.5,62.348,8.5a35.176,35.176,0,0,1,17.293,4.126,15.127,15.127,0,0,1,5.707,5.3,7.971,7.971,0,0,0,1.129-4.006c0-3.462-2.426-6.769-6.835-9.315A35.176,35.176,0,0,0,62.348.475C55.867.475,49.8,1.919,45.26,4.538c-4.336,2.5-6.725,5.77-6.725,9.2a8.04,8.04,0,0,0,1.131,4.021,14.849,14.849,0,0,1,5.594-5.191" transform="translate(55.602 0.685)" fill="#bdc4df"/>
            <path id="Trazado_731233" data-name="Trazado 731233" d="M80.907,4.282C71.062-1.4,55.149-1.431,45.365,4.219s-9.735,14.836.11,20.52,25.758,5.711,35.544.064,9.732-14.836-.112-20.52" transform="translate(54.916 0)" fill="#f2f4fe"/>
            <path id="Trazado_731234" data-name="Trazado 731234" d="M72.846,4.693C65.439.416,53.466.394,46.1,4.645s-7.324,11.164.083,15.439,19.382,4.3,26.742.049,7.324-11.162-.083-15.439" transform="translate(58.592 2.122)" fill="#a2acd6"/>
            <path id="Trazado_731235" data-name="Trazado 731235" d="M77.871,15.083a11.415,11.415,0,0,0-5.025-5.133C65.436,5.675,53.464,5.653,46.1,9.9a11.222,11.222,0,0,0-4.94,5.052c-1.532-3.586.112-7.522,4.94-10.309C53.464.394,65.436.416,72.846,4.693c4.888,2.822,6.566,6.794,5.025,10.39" transform="translate(58.592 2.122)" fill="#bdc4df"/>
            <path id="Trazado_731236" data-name="Trazado 731236" d="M43.751,74.235,43.7,75.723c0,1.879-1.239,3.752-3.7,5.184-4.959,2.883-13.026,2.883-18.019,0-2.514-1.449-3.769-3.354-3.762-5.255l.046-1.49c-.007,1.9,1.248,3.806,3.762,5.257,4.991,2.88,13.06,2.88,18.021,0,2.462-1.432,3.7-3.308,3.7-5.184" transform="translate(26.29 107.008)" fill="#212c36"/>
            <path id="Trazado_731237" data-name="Trazado 731237" d="M39.963,73.317c4.993,2.88,5.018,7.556.059,10.439s-13.028,2.883-18.021,0-5.018-7.558-.059-10.439,13.028-2.883,18.021,0" transform="translate(26.318 102.669)" fill="#243240"/>
            <path id="Trazado_731238" data-name="Trazado 731238" d="M42.305,66.352l-.042,19.081c-.007,1.742-1.151,3.481-3.442,4.813-4.607,2.677-12.1,2.677-16.736,0-2.333-1.346-3.5-3.115-3.493-4.881l.042-19.081c0,1.769,1.163,3.535,3.5,4.881,4.637,2.68,12.129,2.68,16.736,0,2.289-1.329,3.435-3.068,3.44-4.813" transform="translate(26.826 95.641)" fill="#31404f"/>
            <path id="Trazado_731239" data-name="Trazado 731239" d="M38.786,65.5c4.637,2.677,4.661,7.018.054,9.693s-12.1,2.68-16.736,0-4.661-7.016-.056-9.693,12.1-2.677,16.739,0" transform="translate(26.852 91.612)" fill="#3f4e5c"/>
            <path id="Trazado_731240" data-name="Trazado 731240" d="M42.305,63.545l-.042,11.946c-.007,1.744-1.151,3.484-3.442,4.813-4.607,2.677-12.1,2.677-16.736,0-2.333-1.348-3.5-3.117-3.493-4.883l.042-11.943c0,1.764,1.163,3.532,3.5,4.881,4.637,2.675,12.129,2.675,16.736,0,2.289-1.331,3.435-3.073,3.44-4.815" transform="translate(26.826 91.594)" fill="#31404f"/>
            <path id="Trazado_731241" data-name="Trazado 731241" d="M38.786,62.693c4.637,2.677,4.661,7.018.054,9.7s-12.1,2.677-16.736,0-4.661-7.018-.056-9.7,12.1-2.677,16.739,0" transform="translate(26.852 87.562)" fill="#3f4e5c"/>
            <path id="Trazado_731242" data-name="Trazado 731242" d="M43.751,62.813,43.7,64.3c0,1.876-1.239,3.75-3.7,5.184-4.959,2.88-13.026,2.88-18.019,0-2.514-1.451-3.769-3.354-3.762-5.257l.046-1.488c-.007,1.9,1.248,3.8,3.762,5.255,4.991,2.883,13.06,2.883,18.021,0,2.462-1.434,3.7-3.308,3.7-5.184" transform="translate(26.29 90.53)" fill="#212c36"/>
            <path id="Trazado_731243" data-name="Trazado 731243" d="M42.942,69.681a8.283,8.283,0,0,1-2.922,2.653c-4.962,2.883-13.026,2.883-18.021,0a8.336,8.336,0,0,1-2.978-2.692c-1.654-2.609-.679-5.655,2.922-7.746,4.959-2.88,13.026-2.88,18.019,0,3.647,2.106,4.646,5.164,2.98,7.786" transform="translate(26.319 86.193)" fill="#243240"/>
            <path id="Trazado_731244" data-name="Trazado 731244" d="M41.3,67.814c-.073.132-.144.266-.23.4a7.082,7.082,0,0,1-2.47,2.223,16.914,16.914,0,0,1-8.347,1.986,17.029,17.029,0,0,1-8.364-1.986,7.194,7.194,0,0,1-2.531-2.257c-.086-.134-.156-.266-.23-.4a3.207,3.207,0,0,1-.261-2.184,5.867,5.867,0,0,1,2.961-3.332,16.908,16.908,0,0,1,8.347-1.989,17.046,17.046,0,0,1,8.367,1.989,5.9,5.9,0,0,1,3.019,3.379,3.178,3.178,0,0,1-.261,2.177" transform="translate(27.091 86.963)" fill="#212c36"/>
            <path id="Trazado_731245" data-name="Trazado 731245" d="M41.09,65.577c-.073.132-.144.266-.23.4A7.082,7.082,0,0,1,38.39,68.2a16.914,16.914,0,0,1-8.347,1.986A17.029,17.029,0,0,1,21.678,68.2a7.194,7.194,0,0,1-2.531-2.257c-.086-.134-.156-.266-.23-.4a9.694,9.694,0,0,1,2.047-1.556c4.959-2.883,13.026-2.883,18.021,0a9.572,9.572,0,0,1,2.1,1.6" transform="translate(27.297 89.2)" fill="#3687cf"/>
            <path id="Trazado_731246" data-name="Trazado 731246" d="M43.751,70.556,43.7,72.044c0,1.879-1.239,3.752-3.7,5.184-4.959,2.883-13.026,2.883-18.019,0-2.514-1.454-3.769-3.357-3.762-5.257l.046-1.49c-.007,1.9,1.248,3.806,3.762,5.255,4.991,2.883,13.06,2.883,18.021,0,2.462-1.432,3.7-3.305,3.7-5.181" transform="translate(26.29 101.7)" fill="#212c36"/>
            <path id="Trazado_731247" data-name="Trazado 731247" d="M42.78,69.365l-.007,2.555c0,1.744-1.151,3.484-3.44,4.812-4.607,2.677-12.1,2.677-16.736,0-2.335-1.346-3.5-3.112-3.5-4.881l.01-2.428c-1.788,2.651-.823,5.787,2.89,7.927,4.993,2.885,13.06,2.885,18.021,0,3.713-2.16,4.634-5.323,2.758-7.986" transform="translate(26.318 100.087)" fill="#243240"/>
            <path id="Trazado_731248" data-name="Trazado 731248" d="M43.751,66.741l-.046,1.49c0,1.876-1.239,3.752-3.7,5.184-4.959,2.883-13.026,2.883-18.019,0-2.514-1.451-3.769-3.357-3.762-5.257l.046-1.488c-.007,1.9,1.248,3.8,3.762,5.255,4.991,2.883,13.06,2.883,18.021,0,2.462-1.432,3.7-3.305,3.7-5.184" transform="translate(26.29 96.198)" fill="#212c36"/>
            <path id="Trazado_731249" data-name="Trazado 731249" d="M42.78,65.55l-.007,2.555c0,1.744-1.151,3.486-3.44,4.813-4.607,2.68-12.1,2.68-16.736,0-2.335-1.346-3.5-3.112-3.5-4.878l.01-2.431c-1.788,2.653-.823,5.787,2.89,7.93,4.993,2.883,13.06,2.883,18.021,0,3.713-2.16,4.634-5.326,2.758-7.988" transform="translate(26.318 94.582)" fill="#243240"/>
            <path id="Trazado_731250" data-name="Trazado 731250" d="M54.9,78.442l-.046,1.488c0,1.879-1.239,3.752-3.7,5.184C46.192,88,38.125,88,33.132,85.114c-2.514-1.449-3.767-3.354-3.762-5.255l.046-1.49c-.007,1.9,1.248,3.806,3.762,5.257,4.991,2.88,13.06,2.88,18.021,0,2.462-1.432,3.7-3.308,3.7-5.184" transform="translate(42.378 113.078)" fill="#212c36"/>
            <path id="Trazado_731251" data-name="Trazado 731251" d="M51.112,77.525c4.993,2.883,5.018,7.556.059,10.439s-13.028,2.883-18.021,0-5.018-7.556-.059-10.439,13.028-2.883,18.021,0" transform="translate(42.405 108.741)" fill="#243240"/>
            <path id="Trazado_731252" data-name="Trazado 731252" d="M53.455,70.559l-.044,19.081c0,1.742-1.151,3.481-3.44,4.813-4.607,2.677-12.1,2.677-16.734,0-2.335-1.346-3.5-3.115-3.5-4.881l.042-19.081c0,1.769,1.163,3.535,3.5,4.881,4.637,2.68,12.127,2.68,16.736,0,2.289-1.329,3.432-3.068,3.44-4.812" transform="translate(42.915 101.711)" fill="#31404f"/>
            <path id="Trazado_731253" data-name="Trazado 731253" d="M49.937,69.707c4.637,2.675,4.659,7.018.054,9.693s-12.1,2.68-16.736,0-4.663-7.018-.056-9.693,12.1-2.677,16.739,0" transform="translate(42.94 97.683)" fill="#3f4e5c"/>
            <path id="Trazado_731254" data-name="Trazado 731254" d="M53.455,67.752,53.411,79.7c0,1.744-1.151,3.484-3.44,4.813-4.607,2.677-12.1,2.677-16.734,0-2.335-1.348-3.5-3.117-3.5-4.883l.042-11.943c0,1.764,1.163,3.532,3.5,4.881,4.637,2.675,12.127,2.675,16.736,0,2.289-1.331,3.432-3.073,3.44-4.815" transform="translate(42.915 97.664)" fill="#31404f"/>
            <path id="Trazado_731255" data-name="Trazado 731255" d="M49.937,66.9c4.637,2.677,4.659,7.018.054,9.7s-12.1,2.677-16.736,0-4.663-7.018-.056-9.7,12.1-2.677,16.739,0" transform="translate(42.94 93.633)" fill="#3f4e5c"/>
            <path id="Trazado_731256" data-name="Trazado 731256" d="M54.9,67.02l-.046,1.49c0,1.876-1.239,3.75-3.7,5.184-4.959,2.88-13.026,2.88-18.019,0-2.514-1.451-3.767-3.354-3.762-5.257l.046-1.488c-.007,1.9,1.248,3.8,3.762,5.255,4.991,2.883,13.06,2.883,18.021,0,2.462-1.434,3.7-3.308,3.7-5.184" transform="translate(42.378 96.601)" fill="#212c36"/>
            <path id="Trazado_731257" data-name="Trazado 731257" d="M54.091,73.89a8.261,8.261,0,0,1-2.922,2.653c-4.962,2.883-13.026,2.883-18.019,0a8.325,8.325,0,0,1-2.98-2.692c-1.654-2.609-.679-5.655,2.919-7.746,4.962-2.883,13.028-2.883,18.021,0,3.647,2.106,4.646,5.164,2.98,7.786" transform="translate(42.406 92.263)" fill="#243240"/>
            <path id="Trazado_731258" data-name="Trazado 731258" d="M52.444,72.021c-.073.132-.144.266-.23.4a7.082,7.082,0,0,1-2.47,2.223A16.907,16.907,0,0,1,41.4,76.628a17.029,17.029,0,0,1-8.364-1.986A7.194,7.194,0,0,1,30.5,72.385c-.085-.134-.156-.266-.23-.4a3.207,3.207,0,0,1-.261-2.184,5.876,5.876,0,0,1,2.961-3.332,16.908,16.908,0,0,1,8.347-1.989,17.046,17.046,0,0,1,8.367,1.989,5.9,5.9,0,0,1,3.019,3.379,3.178,3.178,0,0,1-.261,2.177" transform="translate(43.178 93.034)" fill="#212c36"/>
            <path id="Trazado_731259" data-name="Trazado 731259" d="M52.239,69.784c-.073.132-.144.266-.23.4a7.082,7.082,0,0,1-2.47,2.223,16.907,16.907,0,0,1-8.347,1.986,17.029,17.029,0,0,1-8.364-1.986A7.194,7.194,0,0,1,30.3,70.148c-.085-.134-.156-.266-.23-.4a9.694,9.694,0,0,1,2.047-1.556c4.962-2.883,13.026-2.883,18.021,0a9.515,9.515,0,0,1,2.1,1.6" transform="translate(43.384 95.27)" fill="#3687cf"/>
            <path id="Trazado_731260" data-name="Trazado 731260" d="M54.9,74.764l-.046,1.488c0,1.879-1.239,3.752-3.7,5.184-4.959,2.883-13.026,2.883-18.019,0-2.514-1.454-3.767-3.357-3.762-5.257l.046-1.49c-.007,1.9,1.248,3.806,3.762,5.255,4.991,2.883,13.06,2.883,18.021,0,2.462-1.432,3.7-3.305,3.7-5.181" transform="translate(42.378 107.771)" fill="#212c36"/>
            <path id="Trazado_731261" data-name="Trazado 731261" d="M53.929,73.573l-.007,2.555c0,1.744-1.151,3.484-3.44,4.813-4.61,2.677-12.1,2.677-16.736,0-2.335-1.346-3.5-3.112-3.5-4.881l.01-2.428c-1.788,2.651-.823,5.787,2.89,7.927,4.993,2.883,13.06,2.883,18.021,0,3.713-2.16,4.634-5.323,2.758-7.986" transform="translate(42.404 106.158)" fill="#243240"/>
            <path id="Trazado_731262" data-name="Trazado 731262" d="M54.9,70.948l-.046,1.49c0,1.876-1.239,3.752-3.7,5.184-4.959,2.883-13.026,2.883-18.019,0-2.514-1.451-3.767-3.357-3.762-5.257l.046-1.488c-.007,1.9,1.248,3.8,3.762,5.255,4.991,2.883,13.06,2.883,18.021,0,2.462-1.432,3.7-3.305,3.7-5.184" transform="translate(42.378 102.268)" fill="#212c36"/>
            <path id="Trazado_731263" data-name="Trazado 731263" d="M53.929,69.758l-.007,2.555c0,1.744-1.151,3.486-3.44,4.813-4.61,2.68-12.1,2.68-16.736,0-2.335-1.346-3.5-3.112-3.5-4.878l.01-2.431c-1.788,2.653-.823,5.787,2.89,7.93,4.993,2.883,13.06,2.883,18.021,0,3.713-2.16,4.634-5.323,2.758-7.988" transform="translate(42.404 100.654)" fill="#243240"/>
            <path id="Trazado_731264" data-name="Trazado 731264" d="M76.806,71.677l-.044,3.171a2.771,2.771,0,0,1-1.62,2.267,8.684,8.684,0,0,1-7.881,0,2.792,2.792,0,0,1-1.647-2.3l.044-3.171a2.794,2.794,0,0,0,1.644,2.3,8.69,8.69,0,0,0,7.883,0,2.768,2.768,0,0,0,1.62-2.267" transform="translate(94.676 103.376)" fill="#1a4b6c"/>
          </g>
        </g>
        <g id="Grupo_966187" data-name="Grupo 966187" transform="translate(160.291 175.021)">
          <g id="Grupo_966186" data-name="Grupo 966186" clip-path="url(#clip-path-6)">
            <path id="Trazado_731265" data-name="Trazado 731265" d="M72.668,71.658l-.044,3.171A2.771,2.771,0,0,1,71,77.1a7.275,7.275,0,0,1-2.521.84l.044-3.171a7.176,7.176,0,0,0,2.521-.84,2.768,2.768,0,0,0,1.62-2.267" transform="translate(-61.477 -71.626)" fill="#bdc4df"/>
            <path id="Trazado_731266" data-name="Trazado 731266" d="M70.182,72.93,70.138,76.1a9.531,9.531,0,0,1-2.8,0l.042-3.168a9.549,9.549,0,0,0,2.8,0" transform="translate(-63.132 -69.791)" fill="#c8d0ec"/>
            <path id="Trazado_731267" data-name="Trazado 731267" d="M69.137,73.59l-.046,3.171a7.294,7.294,0,0,1-2.558-.845,4.512,4.512,0,0,1-.415-.269l.042-3.171a4.914,4.914,0,0,0,.418.269,7.29,7.29,0,0,0,2.56.845" transform="translate(-64.889 -70.446)" fill="#dae0f4"/>
            <path id="Trazado_731268" data-name="Trazado 731268" d="M65.73,72.169a1.834,1.834,0,0,1-.071-.523l-.044,3.168a1.93,1.93,0,0,0,.071.525,2.877,2.877,0,0,0,1.158,1.5l.042-3.168a2.872,2.872,0,0,1-1.155-1.507" transform="translate(-65.615 -71.644)" fill="#bdc4df"/>
          </g>
        </g>
        <g id="Grupo_966189" data-name="Grupo 966189" transform="translate(0 0)">
          <g id="Grupo_966188" data-name="Grupo 966188" clip-path="url(#clip-path)">
            <path id="Trazado_731270" data-name="Trazado 731270" d="M75.136,71.275c2.184,1.261,2.194,3.305.024,4.566a8.684,8.684,0,0,1-7.881,0c-2.184-1.261-2.2-3.305-.027-4.566a8.689,8.689,0,0,1,7.883,0" transform="translate(94.702 101.479)" fill="#f2f4fe"/>
            <path id="Trazado_731271" data-name="Trazado 731271" d="M74.146,74.328a3.233,3.233,0,0,1-.689.528c-.083.046-.166.093-.252.134s-.166.081-.252.115a6.884,6.884,0,0,1-5.032,0c-.086-.034-.169-.073-.252-.115s-.164-.083-.244-.129a3.066,3.066,0,0,1-.774-.613,1.657,1.657,0,0,1,.325-2.585c.064-.051.129-.1.2-.149s.151-.1.232-.144a6.64,6.64,0,0,1,6.029,0c.086.049.169.1.244.151a2.439,2.439,0,0,1,.2.147,1.667,1.667,0,0,1,.269,2.665" transform="translate(95.476 101.927)" fill="#c8d0ec"/>
            <path id="Trazado_731272" data-name="Trazado 731272" d="M74.317,72.1a3.649,3.649,0,0,0-.452-.308,6.655,6.655,0,0,0-6.029,0c-1.28.745-1.568,1.847-.862,2.756-1.2-.965-1.055-2.316.435-3.183a6.655,6.655,0,0,1,6.029,0,3.029,3.029,0,0,1,.879.735" transform="translate(95.477 101.928)" fill="#bdc4df"/>
            <path id="Trazado_731273" data-name="Trazado 731273" d="M61.557,53.224c0,2.555,1.8,3.594,4.009,2.313a8.859,8.859,0,0,0,4.009-6.943c0-2.555-1.8-3.594-4.009-2.313a8.859,8.859,0,0,0-4.009,6.943" transform="translate(88.82 65.987)" fill="#dae0f4"/>
            <path id="Trazado_731274" data-name="Trazado 731274" d="M67.441,46.514l-1.427-.828a2.959,2.959,0,0,0-2.985.291l1.427.831a2.954,2.954,0,0,1,2.985-.293" transform="translate(90.944 65.51)" fill="#dae0f4"/>
          </g>
        </g>
        <g id="Grupo_966191" data-name="Grupo 966191" transform="translate(153.973 110.91)">
          <g id="Grupo_966190" data-name="Grupo 966190" clip-path="url(#clip-path-8)">
            <path id="Trazado_731275" data-name="Trazado 731275" d="M66.3,46.514l-1.427-.828a2.14,2.14,0,0,0-1.05-.283l1.427.828a2.181,2.181,0,0,1,1.05.283" transform="translate(-61.886 -45.4)" fill="#f2f4fe"/>
            <path id="Trazado_731276" data-name="Trazado 731276" d="M66.39,46.23,64.964,45.4a3.77,3.77,0,0,0-1.935.574l1.427.828a3.787,3.787,0,0,1,1.935-.574" transform="translate(-63.029 -45.4)" fill="#f2f4fe"/>
          </g>
        </g>
        <g id="Grupo_966193" data-name="Grupo 966193" transform="translate(149.794 111.487)">
          <g id="Grupo_966192" data-name="Grupo 966192" clip-path="url(#clip-path-9)">
            <path id="Trazado_731278" data-name="Trazado 731278" d="M65.549,46.465l-1.427-.828A7.435,7.435,0,0,0,62.271,47.2l1.427.828a7.435,7.435,0,0,1,1.852-1.566" transform="translate(-59.943 -45.637)" fill="#f2f4fe"/>
            <path id="Trazado_731279" data-name="Trazado 731279" d="M64.509,47.106l-1.427-.828a10.048,10.048,0,0,0-1.373,2.045l1.427.828a9.949,9.949,0,0,1,1.373-2.045" transform="translate(-60.754 -44.712)" fill="#dae0f4"/>
            <path id="Trazado_731280" data-name="Trazado 731280" d="M63.7,47.943l-1.427-.828a8.233,8.233,0,0,0-.955,3.63,2.941,2.941,0,0,0,1.224,2.692l1.427.828a2.934,2.934,0,0,1-1.224-2.69,8.235,8.235,0,0,1,.955-3.633" transform="translate(-61.318 -43.504)" fill="#dae0f4"/>
          </g>
        </g>
        <g id="Grupo_966204" data-name="Grupo 966204" transform="translate(0 0)">
          <g id="Grupo_966203" data-name="Grupo 966203" clip-path="url(#clip-path)">
            <path id="Trazado_731282" data-name="Trazado 731282" d="M66.082,46.316a9.211,9.211,0,0,0-4.18,7.241c.007,2.663,1.891,3.738,4.207,2.4a9.211,9.211,0,0,0,4.182-7.241c-.007-2.663-1.891-3.738-4.209-2.4" transform="translate(89.318 65.998)" fill="#b7bedb"/>
            <path id="Trazado_731283" data-name="Trazado 731283" d="M65.494,46.706a7.017,7.017,0,0,0-3.183,5.514c0,2.025,1.441,2.844,3.2,1.827A7.018,7.018,0,0,0,68.7,48.531c-.007-2.025-1.441-2.844-3.205-1.825" transform="translate(89.908 66.759)" fill="#aab1cb"/>
            <path id="Trazado_731284" data-name="Trazado 731284" d="M79.775,108.873V56.324a3.8,3.8,0,0,0-1.9-3.288L66.823,46.655a1.093,1.093,0,0,0-.147-.086l-.02-.01h0a1.7,1.7,0,0,0-1.3,0h0a5.4,5.4,0,0,0-.875.694c-.024.024-.051.049-.076.076a7.151,7.151,0,0,0-.955,1.19c-.071.105-.137.215-.2.325-.083.144-.164.293-.239.445-.049.1-.1.2-.142.305-.037.086-.073.171-.107.259s-.076.2-.11.293a5.948,5.948,0,0,0-.3,1.246,4.911,4.911,0,0,0-.039.594.9.9,0,0,0,0,.115.07.07,0,0,0,0,.032c0,.034,0,.071.007.105a.029.029,0,0,0,0,.024c0,.037,0,.076.007.112a.982.982,0,0,0,.015.122v0a1.362,1.362,0,0,0,.77.784l9.066,5.235v50.355h0a1.3,1.3,0,0,0,.034.305,3.194,3.194,0,0,0,.777.613c.078.044.159.088.242.127s.169.081.252.117a6.9,6.9,0,0,0,5.032,0c.086-.037.169-.076.252-.115s.171-.088.252-.134a3.321,3.321,0,0,0,.689-.53,1.252,1.252,0,0,0,.061-.388" transform="translate(89.908 66.994)" fill="#f27013"/>
            <g id="Grupo_966196" data-name="Grupo 966196" transform="translate(154.061 113.423)" opacity="0.1" style="mix-blend-mode: screen;isolation: isolate">
              <g id="Grupo_966195" data-name="Grupo 966195">
                <g id="Grupo_966194" data-name="Grupo 966194" clip-path="url(#clip-path-11)">
                  <path id="Trazado_731285" data-name="Trazado 731285" d="M78.687,56.324v52.549a1.317,1.317,0,0,1-.061.388,3.239,3.239,0,0,1-.689.53c-.083.044-.166.09-.252.134s-.166.078-.252.112a5.671,5.671,0,0,1-1.2.354V57.687a4.312,4.312,0,0,0-2.162-3.74L63.065,47.59c.078-.09.161-.176.247-.261a.711.711,0,0,1,.076-.073,5.4,5.4,0,0,1,.872-.7h0a1.7,1.7,0,0,1,1.3,0h0l.02.012c.049.024.1.051.144.081l11.054,6.383a3.8,3.8,0,0,1,1.9,3.288" transform="translate(-63.065 -46.43)" fill="#ff8e3d"/>
                </g>
              </g>
            </g>
            <g id="Grupo_966199" data-name="Grupo 966199" transform="translate(152.219 116.38)" opacity="0.2" style="mix-blend-mode: multiply;isolation: isolate">
              <g id="Grupo_966198" data-name="Grupo 966198">
                <g id="Grupo_966197" data-name="Grupo 966197" clip-path="url(#clip-path-12)">
                  <path id="Trazado_731286" data-name="Trazado 731286" d="M75.012,55.6v53.1a6.144,6.144,0,0,1-1.522-.408c-.086-.037-.169-.076-.252-.117s-.164-.083-.244-.129a3.22,3.22,0,0,1-.774-.611,1.3,1.3,0,0,1-.034-.305h0V56.769l-9.066-5.233a1.3,1.3,0,0,1-.193-.1,1.414,1.414,0,0,1-.577-.684v0a.982.982,0,0,1-.015-.122c0-.037-.007-.073-.01-.112l0-.027c0-.032,0-.068,0-.105v-.029a.9.9,0,0,1,0-.115,4.974,4.974,0,0,1,.037-.6,6.19,6.19,0,0,1,.3-1.246c.034-.1.071-.193.11-.291s.068-.173.107-.259c.029-.068.064-.139.1-.208a1.043,1.043,0,0,0,0,.125.119.119,0,0,0,0,.042c0,.042,0,.086.01.127a.026.026,0,0,0,0,.029,1.2,1.2,0,0,0,.01.137,1.43,1.43,0,0,0,.017.151v0a1.69,1.69,0,0,0,.941.958Z" transform="translate(-62.311 -47.64)" fill="#c57339"/>
                </g>
              </g>
            </g>
            <g id="Grupo_966202" data-name="Grupo 966202" transform="translate(152.22 113.026)" opacity="0.6" style="mix-blend-mode: multiply;isolation: isolate">
              <g id="Grupo_966201" data-name="Grupo 966201">
                <g id="Grupo_966200" data-name="Grupo 966200" clip-path="url(#clip-path-13)">
                  <path id="Trazado_731287" data-name="Trazado 731287" d="M68.333,47.044a2.247,2.247,0,0,0-2.284.215,7,7,0,0,0-3.183,5.514,2.825,2.825,0,0,0,.364,1.488,2.243,2.243,0,0,1-.919-2.04,7.017,7.017,0,0,1,3.183-5.514c1.231-.713,2.3-.53,2.839.337" transform="translate(-62.311 -46.268)" fill="#97a2cb"/>
                </g>
              </g>
            </g>
            <path id="Trazado_731288" data-name="Trazado 731288" d="M70.27,75.423l-.044,3.171a2.771,2.771,0,0,1-1.62,2.267,8.684,8.684,0,0,1-7.881,0,2.792,2.792,0,0,1-1.647-2.3l.044-3.171a2.786,2.786,0,0,0,1.647,2.3,8.684,8.684,0,0,0,7.881,0,2.768,2.768,0,0,0,1.62-2.267" transform="translate(85.245 108.781)" fill="#1a4b6c"/>
          </g>
        </g>
        <g id="Grupo_966206" data-name="Grupo 966206" transform="translate(144.326 184.175)">
          <g id="Grupo_966205" data-name="Grupo 966205" clip-path="url(#clip-path-14)">
            <path id="Trazado_731289" data-name="Trazado 731289" d="M66.132,75.4l-.044,3.171a2.771,2.771,0,0,1-1.62,2.267,7.225,7.225,0,0,1-2.521.84l.044-3.171a7.175,7.175,0,0,0,2.521-.84,2.768,2.768,0,0,0,1.62-2.267" transform="translate(-54.943 -75.375)" fill="#bdc4df"/>
            <path id="Trazado_731290" data-name="Trazado 731290" d="M63.646,76.676,63.6,79.847a9.532,9.532,0,0,1-2.8,0l.042-3.168a9.632,9.632,0,0,0,2.8,0" transform="translate(-56.598 -73.539)" fill="#c8d0ec"/>
            <path id="Trazado_731291" data-name="Trazado 731291" d="M62.6,77.335l-.044,3.171A7.293,7.293,0,0,1,60,79.66a4.5,4.5,0,0,1-.415-.269l.042-3.168c.129.093.269.181.418.269a7.341,7.341,0,0,0,2.558.843" transform="translate(-58.356 -74.193)" fill="#dae0f4"/>
            <path id="Trazado_731292" data-name="Trazado 731292" d="M59.194,75.916a1.839,1.839,0,0,1-.071-.525l-.044,3.171a1.93,1.93,0,0,0,.071.525,2.876,2.876,0,0,0,1.158,1.5l.042-3.168a2.885,2.885,0,0,1-1.155-1.507" transform="translate(-59.081 -75.393)" fill="#bdc4df"/>
          </g>
        </g>
        <g id="Grupo_966208" data-name="Grupo 966208" transform="translate(0 0)">
          <g id="Grupo_966207" data-name="Grupo 966207" clip-path="url(#clip-path)">
            <path id="Trazado_731294" data-name="Trazado 731294" d="M68.6,75.022c2.184,1.261,2.194,3.305.024,4.566a8.684,8.684,0,0,1-7.881,0c-2.184-1.261-2.2-3.305-.027-4.566a8.69,8.69,0,0,1,7.883,0" transform="translate(85.271 106.885)" fill="#f2f4fe"/>
            <path id="Trazado_731295" data-name="Trazado 731295" d="M67.61,78.075a3.234,3.234,0,0,1-.689.528c-.083.046-.166.093-.252.134s-.166.081-.252.117a6.9,6.9,0,0,1-5.032-.007c-.086-.034-.169-.073-.252-.115s-.164-.083-.244-.129a3.065,3.065,0,0,1-.774-.613,1.657,1.657,0,0,1,.325-2.585c.064-.051.129-.1.2-.149s.151-.1.232-.144a6.645,6.645,0,0,1,6.032,0c.083.049.166.1.242.151a2.444,2.444,0,0,1,.2.147,1.667,1.667,0,0,1,.269,2.665" transform="translate(86.045 107.334)" fill="#c8d0ec"/>
            <path id="Trazado_731296" data-name="Trazado 731296" d="M67.78,75.846a3.648,3.648,0,0,0-.452-.308,6.648,6.648,0,0,0-6.029,0c-1.28.745-1.568,1.847-.862,2.756-1.2-.965-1.055-2.316.435-3.183a6.64,6.64,0,0,1,6.029,0,3.029,3.029,0,0,1,.879.735" transform="translate(86.045 107.332)" fill="#bdc4df"/>
            <path id="Trazado_731297" data-name="Trazado 731297" d="M55.021,63.7c0,2.555,1.8,3.594,4.009,2.313a8.859,8.859,0,0,0,4.009-6.943c0-2.555-1.8-3.591-4.009-2.313A8.862,8.862,0,0,0,55.021,63.7" transform="translate(79.39 81.099)" fill="#dae0f4"/>
            <path id="Trazado_731298" data-name="Trazado 731298" d="M60.9,56.987l-1.427-.828a2.955,2.955,0,0,0-2.985.293l1.427.828a2.96,2.96,0,0,1,2.985-.293" transform="translate(81.514 80.622)" fill="#dae0f4"/>
          </g>
        </g>
        <g id="Grupo_966210" data-name="Grupo 966210" transform="translate(138.007 136.494)">
          <g id="Grupo_966209" data-name="Grupo 966209" clip-path="url(#clip-path-16)">
            <path id="Trazado_731299" data-name="Trazado 731299" d="M59.762,56.987l-1.427-.828a2.139,2.139,0,0,0-1.05-.283l1.427.828a2.173,2.173,0,0,1,1.05.283" transform="translate(-55.35 -55.873)" fill="#f2f4fe"/>
            <path id="Trazado_731300" data-name="Trazado 731300" d="M59.854,56.7l-1.427-.828a3.77,3.77,0,0,0-1.935.574l1.427.828a3.794,3.794,0,0,1,1.935-.574" transform="translate(-56.493 -55.873)" fill="#f2f4fe"/>
          </g>
        </g>
        <g id="Grupo_966212" data-name="Grupo 966212" transform="translate(133.827 137.071)">
          <g id="Grupo_966211" data-name="Grupo 966211" clip-path="url(#clip-path-17)">
            <path id="Trazado_731302" data-name="Trazado 731302" d="M59.013,56.938l-1.427-.828a7.435,7.435,0,0,0-1.852,1.566l1.427.828a7.392,7.392,0,0,1,1.852-1.566" transform="translate(-53.407 -56.11)" fill="#f2f4fe"/>
            <path id="Trazado_731303" data-name="Trazado 731303" d="M57.974,57.579l-1.429-.828A10.149,10.149,0,0,0,55.172,58.8l1.429.828a9.852,9.852,0,0,1,1.373-2.045" transform="translate(-54.219 -55.185)" fill="#dae0f4"/>
            <path id="Trazado_731304" data-name="Trazado 731304" d="M57.164,58.416l-1.427-.828a8.233,8.233,0,0,0-.955,3.63,2.941,2.941,0,0,0,1.224,2.692l1.427.828a2.939,2.939,0,0,1-1.224-2.69,8.235,8.235,0,0,1,.955-3.633" transform="translate(-54.782 -53.977)" fill="#dae0f4"/>
          </g>
        </g>
        <g id="Grupo_966226" data-name="Grupo 966226" transform="translate(0 0)">
          <g id="Grupo_966225" data-name="Grupo 966225" clip-path="url(#clip-path)">
            <path id="Trazado_731306" data-name="Trazado 731306" d="M59.546,56.789a9.211,9.211,0,0,0-4.18,7.241c.007,2.663,1.891,3.738,4.207,2.4a9.211,9.211,0,0,0,4.182-7.241c-.007-2.663-1.893-3.738-4.209-2.4" transform="translate(79.887 81.11)" fill="#b7bedb"/>
            <path id="Trazado_731307" data-name="Trazado 731307" d="M58.958,57.179a7.017,7.017,0,0,0-3.183,5.514c0,2.028,1.441,2.844,3.205,1.827A7.022,7.022,0,0,0,62.163,59c-.007-2.025-1.441-2.844-3.205-1.825" transform="translate(80.478 81.871)" fill="#aab1cb"/>
            <path id="Trazado_731308" data-name="Trazado 731308" d="M73.239,102.913V66.8a3.8,3.8,0,0,0-1.9-3.288L60.287,57.126c-.049-.029-.1-.059-.147-.083l-.02-.012,0,0a1.7,1.7,0,0,0-1.3,0l0,0a5.251,5.251,0,0,0-.872.694l-.076.073a7.13,7.13,0,0,0-.955,1.19c-.071.107-.137.215-.2.325-.086.147-.164.3-.239.447-.049.1-.1.2-.142.305-.037.083-.073.171-.107.257s-.076.2-.11.3a5.963,5.963,0,0,0-.3,1.243,4.494,4.494,0,0,0-.039.6.865.865,0,0,0,0,.112.081.081,0,0,0,0,.034.725.725,0,0,0,.007.1.05.05,0,0,0,0,.027l.01.11a.966.966,0,0,0,.015.125v0a1.432,1.432,0,0,0,.577.686,1.2,1.2,0,0,0,.193.1l9.066,5.233v33.925a1.3,1.3,0,0,0,.037.305,3.193,3.193,0,0,0,.777.613c.078.044.159.088.242.127s.169.081.252.117a6.9,6.9,0,0,0,5.032,0c.085-.037.169-.076.252-.115s.171-.088.252-.134a3.24,3.24,0,0,0,.689-.53,1.252,1.252,0,0,0,.061-.388" transform="translate(80.478 82.105)" fill="#f27013"/>
            <g id="Grupo_966215" data-name="Grupo 966215" transform="translate(138.094 139.008)" opacity="0.1" style="mix-blend-mode: screen;isolation: isolate">
              <g id="Grupo_966214" data-name="Grupo 966214">
                <g id="Grupo_966213" data-name="Grupo 966213" clip-path="url(#clip-path-19)">
                  <path id="Trazado_731309" data-name="Trazado 731309" d="M72.151,66.8v36.116a1.316,1.316,0,0,1-.061.388,3.2,3.2,0,0,1-.691.53c-.081.046-.164.09-.252.134s-.164.078-.249.115a5.863,5.863,0,0,1-1.2.354V68.16a4.312,4.312,0,0,0-2.162-3.74l-11.01-6.356c.078-.09.161-.176.247-.261a1.034,1.034,0,0,1,.073-.073,5.387,5.387,0,0,1,.875-.7h0a1.7,1.7,0,0,1,1.3,0l0,0,.02.015c.049.024.1.051.144.081l11.054,6.383a3.8,3.8,0,0,1,1.9,3.288" transform="translate(-56.529 -56.902)" fill="#ff8e3d"/>
                </g>
              </g>
            </g>
            <g id="Grupo_966218" data-name="Grupo 966218" transform="translate(136.252 141.964)" opacity="0.2" style="mix-blend-mode: multiply;isolation: isolate">
              <g id="Grupo_966217" data-name="Grupo 966217">
                <g id="Grupo_966216" data-name="Grupo 966216" clip-path="url(#clip-path-20)">
                  <path id="Trazado_731310" data-name="Trazado 731310" d="M68.476,66.074V102.74a6.039,6.039,0,0,1-1.522-.41c-.086-.037-.169-.073-.252-.117s-.164-.083-.244-.127a3.166,3.166,0,0,1-.774-.613,1.3,1.3,0,0,1-.034-.305h0V67.242l-9.066-5.233a1.3,1.3,0,0,1-.193-.1,1.414,1.414,0,0,1-.577-.684v0A1.038,1.038,0,0,1,55.8,61.1c0-.037-.007-.073-.01-.112l0-.027c0-.032,0-.068,0-.105v-.029a.884.884,0,0,1,0-.112,4.53,4.53,0,0,1,.039-.6,6.058,6.058,0,0,1,.3-1.246c.034-.1.071-.193.11-.291s.068-.173.107-.259c.029-.068.064-.139.1-.208a1.042,1.042,0,0,0,0,.125.119.119,0,0,0,0,.042c0,.042,0,.086.01.127a.026.026,0,0,0,0,.029,1.2,1.2,0,0,0,.01.137,1.434,1.434,0,0,0,.017.151v0a1.758,1.758,0,0,0,.706.84,1.5,1.5,0,0,0,.235.117Z" transform="translate(-55.774 -58.113)" fill="#c57339"/>
                </g>
              </g>
            </g>
            <g id="Grupo_966221" data-name="Grupo 966221" transform="translate(136.253 138.611)" opacity="0.6" style="mix-blend-mode: multiply;isolation: isolate">
              <g id="Grupo_966220" data-name="Grupo 966220">
                <g id="Grupo_966219" data-name="Grupo 966219" clip-path="url(#clip-path-13)">
                  <path id="Trazado_731311" data-name="Trazado 731311" d="M61.8,57.517a2.247,2.247,0,0,0-2.284.215,7.008,7.008,0,0,0-3.183,5.514,2.825,2.825,0,0,0,.364,1.488,2.243,2.243,0,0,1-.919-2.04,7.017,7.017,0,0,1,3.183-5.514c1.231-.713,2.3-.53,2.839.337" transform="translate(-55.775 -56.741)" fill="#97a2cb"/>
                </g>
              </g>
            </g>
            <path id="Trazado_731312" data-name="Trazado 731312" d="M33.358,42.209l2.829,1.632L38.93,55.865l-2.458-1.419-.533-2.133-2.433-1.4-.518,1.527-2.46-1.419Zm2.1,7.473L34.8,46.509l-.755,2.36Z" transform="translate(44.05 60.903)" fill="#ffb806"/>
            <path id="Trazado_731313" data-name="Trazado 731313" d="M34.11,43.724a17.789,17.789,0,0,1,3.752,1.739,5.668,5.668,0,0,1,2.817,5.049c0,1.969-1.827,2.824-2.594,3.181l2.594,1.5v2.482l-6.474-3.738V51.541c1-.193,4.08-1.3,4.08-2.37,0-.87-.408-1.2-1.407-1.781l-2.768-1.6Z" transform="translate(49.217 63.089)" fill="#ffb806"/>
            <path id="Trazado_731314" data-name="Trazado 731314" d="M49.736,56.806l20.919-11.76V57.692L49.736,69.457Z" transform="translate(71.763 64.996)" fill="#9ba4c7"/>
            <path id="Trazado_731315" data-name="Trazado 731315" d="M69.752,45.267v11.6L49.735,68.1V56.492Z" transform="translate(71.763 65.316)" fill="#31233c"/>
            <path id="Trazado_731316" data-name="Trazado 731316" d="M69.752,45.878v1.065L49.735,57.907V56.844Z" transform="translate(71.763 66.197)" fill="#44374f"/>
            <path id="Trazado_731317" data-name="Trazado 731317" d="M69.752,46.658v1.065L49.735,58.686V57.624Z" transform="translate(71.763 67.322)" fill="#44374f"/>
            <path id="Trazado_731318" data-name="Trazado 731318" d="M69.752,47.561v1.063L49.735,59.589V58.527Z" transform="translate(71.763 68.625)" fill="#44374f"/>
            <path id="Trazado_731319" data-name="Trazado 731319" d="M69.752,48.463v1.065L49.735,60.492V59.43Z" transform="translate(71.763 69.928)" fill="#44374f"/>
            <path id="Trazado_731320" data-name="Trazado 731320" d="M69.752,49.367v1.065L49.735,61.4V60.333Z" transform="translate(71.763 71.231)" fill="#44374f"/>
            <g id="Grupo_966224" data-name="Grupo 966224" transform="translate(130.663 99.237)" opacity="0.2" style="mix-blend-mode: multiply;isolation: isolate">
              <g id="Grupo_966223" data-name="Grupo 966223">
                <g id="Grupo_966222" data-name="Grupo 966222" clip-path="url(#clip-path-22)">
                  <path id="Trazado_731321" data-name="Trazado 731321" d="M63.564,40.623l1.036,2.23-8.037,7.382-.9-1.94,1.388-1.331-.892-1.918-1.771.5-.9-1.94ZM58.91,45.409l2.182-1.915-2.7.8Z" transform="translate(-53.487 -40.622)" fill="#ffb806"/>
                  <path id="Trazado_731322" data-name="Trazado 731322" d="M63.57,42.591a10.068,10.068,0,0,1,1.744,2.748c.706,1.519-.2,2.934-1.932,3.933-1.705.982-4.031.5-5,.293l.948,2.045-2.15,1.241-2.367-5.106,2.074-1.2c1.033.4,4.654,1.39,5.582.855.752-.435.689-.806.322-1.6l-1.011-2.184Z" transform="translate(-51.575 -37.782)" fill="#ffb806"/>
                </g>
              </g>
            </g>
          </g>
        </g>
      </g>
    </g>
    <g id="Grupo_965806" data-name="Grupo 965806" transform="translate(-5489.672 2311.701)">
      <g id="Grupo_965803" data-name="Grupo 965803" clip-path="url(#clip-path-23)">
        <g id="Grupo_965802" data-name="Grupo 965802" transform="translate(0 0.001)">
          <g id="Grupo_965801" data-name="Grupo 965801" clip-path="url(#clip-path-24)">
            <path id="Trazado_730531" data-name="Trazado 730531" d="M18.124,5.466a1.86,1.86,0,0,1,.205-2.308,2.329,2.329,0,0,1,.534-.411c.383.03.772.088,1.142.151.876.142,1.749.287,2.625.433a14.014,14.014,0,0,1,2.488.569,8.812,8.812,0,0,1,3.811,2.853,17.136,17.136,0,0,1,2.357,4.188,3.958,3.958,0,0,1,.279,3.367c-.329.613-1.158,1.276-1.894,1-.608-.224-.98-1-1.336-1.495a8.259,8.259,0,0,0-2.13-1.949A8.046,8.046,0,0,1,23.629,8.9a7.292,7.292,0,0,0-.8-1.445c-.788-.939-2.113-1.15-3.291-1.489a11.84,11.84,0,0,1-1.41-.5" transform="translate(30.955 4.774)" fill="#0057bf"/>
            <path id="Trazado_730532" data-name="Trazado 730532" d="M24,.862V17.244a2.816,2.816,0,1,1-5.631,0V.862Z" transform="translate(31.914 1.497)" fill="#a7d6e7"/>
            <path id="Trazado_730533" data-name="Trazado 730533" d="M23.2,4.609v6.124a2.33,2.33,0,1,1-4.659,0V4.609Z" transform="translate(32.223 8.008)" fill="#2a3543"/>
            <path id="Trazado_730534" data-name="Trazado 730534" d="M22.488,4.5c.928.517.958,1.372.068,1.908a3.627,3.627,0,0,1-3.293.033c-.931-.517-.961-1.372-.068-1.908A3.627,3.627,0,0,1,22.488,4.5" transform="translate(32.222 7.152)" fill="#6d8eaa"/>
            <path id="Trazado_730535" data-name="Trazado 730535" d="M24.944,2.232l0-1.5A1.668,1.668,0,0,1,24,2.089a5.285,5.285,0,0,1-4.8.049A1.729,1.729,0,0,1,18.155.715v1.5A1.718,1.718,0,0,0,19.2,3.636,5.277,5.277,0,0,0,24,3.587a1.658,1.658,0,0,0,.944-1.355" transform="translate(31.545 1.242)" fill="#8bc3de"/>
            <path id="Trazado_730536" data-name="Trazado 730536" d="M23.9.552c1.352.756,1.4,2,.1,2.781a5.285,5.285,0,0,1-4.8.047c-1.352-.753-1.4-2-.1-2.779A5.285,5.285,0,0,1,23.9.552" transform="translate(31.547 0)" fill="#bee9f7"/>
            <path id="Trazado_730537" data-name="Trazado 730537" d="M21.253,3.139a4.422,4.422,0,0,0,2.19-.528,1.205,1.205,0,0,0,.709-.958c-.005-.345-.3-.7-.8-.986a4.82,4.82,0,0,0-4.312.038,1.211,1.211,0,0,0-.712.958c.005.35.3.709.8.988a4.459,4.459,0,0,0,2.124.487" transform="translate(31.853 0.307)" fill="#86c0da"/>
            <path id="Trazado_730538" data-name="Trazado 730538" d="M18.992,5.975a2.283,2.283,0,0,1,.958-.684c-.452,0-1.243-.156-1.287-.318-.4-1.495,3.488-3.2,3.874-3.2a67.915,67.915,0,0,1,7.222,1.686s.591,2.858.712,3.23a35.247,35.247,0,0,1,.936,3.51c.222,1.038.326,2.094.528,3.135a13.591,13.591,0,0,0,.769,1.911c.586,1.684-2.379,1.8-3.3,1.185a2.235,2.235,0,0,1-.662-.813,6.883,6.883,0,0,1-.813-2.669l-.005-.068a.09.09,0,0,0,0-.038l-.005-.047a4.765,4.765,0,0,0-.5-2.431.808.808,0,0,0-.309-.29.6.6,0,0,0-.09-.033,1.6,1.6,0,0,0-.876-.413,11.611,11.611,0,0,0-2.861.307c-.3.025-.594.008-.89.049-.26.036-.616.123-.777-.153l-.022-.027a1.455,1.455,0,0,1,.276-.846,1.509,1.509,0,0,1-1.81.446A.865.865,0,0,1,19.69,9.1a.79.79,0,0,1,.044-.829,1.468,1.468,0,0,1,.687-.523A2.983,2.983,0,0,1,19.3,7.506a1.011,1.011,0,0,1-.6-.906,1.142,1.142,0,0,1,.287-.624" transform="translate(32.379 3.085)" fill="#1a70d6"/>
            <path id="Trazado_730539" data-name="Trazado 730539" d="M4.18,26.912a5.7,5.7,0,0,0,5.456.452A7.375,7.375,0,0,0,11.7,25.774a29.385,29.385,0,0,0,4.054-5l-.575-9.349a5.852,5.852,0,0,0-3.449-3.3L11.706,8.1A7.01,7.01,0,0,0,9.3,7.7,8.816,8.816,0,0,0,2.913,11,12.192,12.192,0,0,0,.383,21.81a7.635,7.635,0,0,0,.487,1.317,8.727,8.727,0,0,0,3.31,3.786" transform="translate(0 13.373)" fill="#19100d"/>
            <path id="Trazado_730540" data-name="Trazado 730540" d="M20.861,8.658l8.933,24.435,1.33,3.646a5.806,5.806,0,0,0,.416.824A5.408,5.408,0,0,0,38.1,39.828a5.083,5.083,0,0,0,2.045-1.445,5.772,5.772,0,0,0,.986-5.53C38.143,23.569,28.57,5.26,28.57,5.26c-.014-.03-.112-.022-.279.019-1.407.337-7.616,2.913-7.43,3.378" transform="translate(36.239 9.108)" fill="#ecf0ff"/>
            <path id="Trazado_730541" data-name="Trazado 730541" d="M15.188,35.226c1.407,2.5,3.455,6.422,5.724,5.231,0,0,28.049-13.529,31.132-18.689l.049-.085a5.645,5.645,0,0,0-.151-6.294,3.73,3.73,0,0,0-2.28-.583,28.708,28.708,0,0,0-7.969,1.67c-8.415,2.713-19.357,7.977-23.729,10.145-1.221.6-1.93.966-1.93.966-3.1,1.328-2.026,5.524-.846,7.638" transform="translate(24.337 25.725)" fill="#ecf0ff"/>
            <g id="Grupo_965791" data-name="Grupo 965791" transform="translate(38.344 14.35)" opacity="0.4" style="mix-blend-mode: multiply;isolation: isolate">
              <g id="Grupo_965790" data-name="Grupo 965790">
                <g id="Grupo_965789" data-name="Grupo 965789" clip-path="url(#clip-path-25)">
                  <path id="Trazado_730542" data-name="Trazado 730542" d="M15.188,51.843c1.407,2.5,3.455,6.422,5.724,5.231,0,0,28.049-13.529,31.132-18.689a5.771,5.771,0,0,0,.986-5.533C50.043,23.569,40.469,5.26,40.469,5.26c-.014-.03-.112-.022-.279.019A7.448,7.448,0,0,0,41.3,9.854c3.2,4.9,3.972,10.463,6.346,15.812.8,1.818,1.9,3.589,2.015,5.574,0,.063.005.123.005.183.074,2.809-1.829,5.311-3.885,7.249-.222.208-.449.416-.676.619-4.61,4.112-10.258,6.893-15.82,9.617-1.632.8-3.43,1.621-5.2,1.221-3.074-.69-4.142-4.375-6.113-6.89-1.221.6-1.93.966-1.93.966-3.1,1.328-2.026,5.524-.846,7.638" transform="translate(-14.007 -5.242)" fill="#d1dce6"/>
                </g>
              </g>
            </g>
            <path id="Trazado_730543" data-name="Trazado 730543" d="M12.213,75.048c-.276,3.3-.367,6.729-.468,8.221l-1.558.137c.033-3.241.318-5.946.419-8.407Z" transform="translate(17.701 130.314)"/>
            <path id="Trazado_730544" data-name="Trazado 730544" d="M11.84,53.6c-.244,2.527-.5,5.054-.739,7.583-.4,4.03-1.355,8.095-1.068,12.1.734,10.2,1.859,20.365,2.995,30.527l-2.037,8.5,3.386,12.01,8.913.151c-.791-.011-2.814-17-3.006-18.747-.523-4.673.211-8.577.868-13.173q1.269-8.878,2.538-17.759a39.693,39.693,0,0,0,.725-8.437,30.658,30.658,0,0,1-.033-3.98c.057-1.114.824-3.318.471-4.336-.52-1.508-3.124-1.664-4.591-2.075-2.8-.783-5.615-1.566-8.423-2.357" transform="translate(17.342 93.141)" fill="#ba8b75"/>
            <path id="Trazado_730545" data-name="Trazado 730545" d="M22.65,88.881,22.6,91.216l-6.463-.1a2.847,2.847,0,0,1-2.724-2.182l-2.231-9.256-.835-2.951.635-2.636s4.9,12.765,5.442,12.771,5.182-.077,5.182-.077l.178-1.8Z" transform="translate(17.984 128.73)" fill="#242424"/>
            <path id="Trazado_730546" data-name="Trazado 730546" d="M6.875,20.849c.772-1.2,7.263,2.242,12.8,2.242s8.284-4.919,8.284.61-.8,30.8-6.337,30.8S3.886,25.512,6.875,20.849" transform="translate(11.138 35.787)" fill="#022540"/>
            <path id="Trazado_730547" data-name="Trazado 730547" d="M8.045,77.063c-.167,3.3-.153,6.74-.211,8.232l-1.549.181c-.071-3.236.129-5.951.153-8.413Z" transform="translate(10.894 133.901)"/>
            <path id="Trazado_730548" data-name="Trazado 730548" d="M6.805,55.669q-.25,3.8-.5,7.6c-.271,4.041-1.1,8.139-.687,12.127,1.054,10.173,2.5,20.3,3.95,30.414L7.8,114.373l3.759,11.895,8.908-.131c-.786.011-3.343-16.9-3.586-18.64-.668-4.648-.057-8.582.449-13.192q.994-8.915,1.979-17.83a39.2,39.2,0,0,0,.463-8.462,33.258,33.258,0,0,1-.162-3.978c.027-1.114.728-3.34.342-4.345-.572-1.489-3.176-1.571-4.646-1.933q-4.254-1.039-8.5-2.089" transform="translate(9.563 96.727)" fill="#deb09d"/>
            <path id="Trazado_730549" data-name="Trazado 730549" d="M19.009,90.563l.038,2.343-6.466.088a2.84,2.84,0,0,1-2.8-2.091L7.267,81.72,6.342,78.8l.548-2.653s5.3,12.6,5.839,12.59S17.9,88.5,17.9,88.5l.123-1.81Z" transform="translate(11.02 132.304)" fill="#242424"/>
            <path id="Trazado_730550" data-name="Trazado 730550" d="M7.448,99.462c5.724,6.184,31.772,1.763,32.459-6.636l.005-.068c.309-3.75.517-7.58.654-11.355.422-11.725.131-22.911-.137-29.527-.156-3.819-.3-6.116-.3-6.116A78.189,78.189,0,0,0,27.408,43c-8.552-.991-18.777,1.571-18.982,2.217-.014.038-.082.2-.2.474-.947,2.258-5,11.851-5.325,15.544-.912,10.312,1.979,35.462,4.544,38.23" transform="translate(4.747 74.318)" fill="#022540"/>
            <g id="Grupo_965794" data-name="Grupo 965794" transform="translate(7.481 118.653)" opacity="0.2" style="mix-blend-mode: multiply;isolation: isolate">
              <g id="Grupo_965793" data-name="Grupo 965793">
                <g id="Grupo_965792" data-name="Grupo 965792" clip-path="url(#clip-path-26)">
                  <path id="Trazado_730551" data-name="Trazado 730551" d="M7.448,98.469c5.724,6.184,31.772,1.763,32.459-6.636l.005-.068a49.707,49.707,0,0,0-9.579,2.393,15.074,15.074,0,0,1-3.915,1.076,11.116,11.116,0,0,1-5.916-1.64,10.276,10.276,0,0,1-3.49-2.664,4.333,4.333,0,0,1-.764-4.153c.734-1.768,2.781-2.535,4.632-3.025A74.16,74.16,0,0,1,34.873,81.51a16.3,16.3,0,0,0,5.2-.871q.25-.1.493-.23c.422-11.725.131-22.911-.137-29.527-.52-.693-1.068-1.366-1.632-2.02a16.1,16.1,0,0,0-5.147-4.306,17.722,17.722,0,0,0-7.441-1.21,114.426,114.426,0,0,0-14.586.843c-1.125.14-2.261.3-3.4.506-.947,2.258-5,11.851-5.325,15.544C1.992,70.551,4.883,95.7,7.448,98.469" transform="translate(-2.733 -43.343)" fill="#022540"/>
                </g>
              </g>
            </g>
            <path id="Trazado_730552" data-name="Trazado 730552" d="M2.711,120.074c3.359,3.622,17.622,4.238,28.148,2.3,1.007-.186,1.421-25.621,1.421-25.621s2.666,24.676,3.219,24.512c4.112-1.251,6.953-3.03,7.14-5.281C44.108,98.141,40.33,58.742,40.949,54c.558-4.32,2.768-12.705,2.253-17.1-.3-2.56-3.507-13.822-3.759-14.369a3.859,3.859,0,0,0-2.738-2.144l-7.255-1.44a61.623,61.623,0,0,1,3.605,22.985,51.9,51.9,0,0,1-.52,5.732,55.32,55.32,0,0,0-2.384-5.659c-4.769-9.984-11.607-22.771-11.607-22.771S5.867,26.844,5.878,30.365c0,.11-.011.386-.033.819,0,.107-.011.23-.019.372C5.561,36.768,4.26,57.543,3.275,77.664q-.115,2.287-.219,4.55c-.9,19.226-1.418,36.7-.345,37.86" transform="translate(3.665 32.924)" fill="#dae0f4"/>
            <g id="Grupo_965797" data-name="Grupo 965797" transform="translate(6.937 61.286)" style="mix-blend-mode: multiply;isolation: isolate">
              <g id="Grupo_965796" data-name="Grupo 965796">
                <g id="Grupo_965795" data-name="Grupo 965795" clip-path="url(#clip-path-27)">
                  <path id="Trazado_730553" data-name="Trazado 730553" d="M2.534,71.69c2.992,8.667,7,22.757,10.384,30.124.493,1.07,1.265,2.313,2.439,2.239,1.643-.1,1.894-2.415,2.932-3.693,1.01-1.246,3.033-1.678,3.449-3.228.35-1.306-.679-2.524-1.333-3.707-1.229-2.22-6.628-24.1-5.82-32.626.164-1.722.72-14.473.868-19.144.153-5,2.152-13.064-.843-17.6-2.094-3.17-6.663-1.287-9.5,1.15-.005.107-.014.23-.019.372C4.82,30.793,3.52,51.569,2.534,71.69" transform="translate(-2.534 -22.388)" fill="#d1dce6"/>
                </g>
              </g>
            </g>
            <path id="Trazado_730554" data-name="Trazado 730554" d="M17.342,31.846s1.9-7.071,1.938-7.312c.871-5.018-7.323-6.277-7.049-5.431.523,1.626,1.758,23.9,2.727,28.72.408-2.3,5.171-10.559,5.171-10.559Z" transform="translate(21.241 32.768)" fill="#fff"/>
            <path id="Trazado_730555" data-name="Trazado 730555" d="M16.6,35.136s-8.963-6.012-9.2-6.3c-5.3-6.57,5.847-11.15,6.149-9.831.556,2.445-2.179,3.063,1.76,8.388,4.3,5.817,9.436,16.779,10.5,20.567-1.161-1.53-8.807-6.871-8.807-6.871Z" transform="translate(10.384 32.629)" fill="#fff"/>
            <path id="Trazado_730556" data-name="Trazado 730556" d="M3.359,66.8c2.759,4.336,5.746,3.343,5.746,3.343,2.831.057,3.414-4.2,3.967-5.6,2.88-7.323,2.571-35.876,2.571-35.876.37-4.123-3.228-7.353-6.217-7.312-3.537.049-6.532,2.891-6.57,6.036,0,0-3.356,33.349.5,39.4" transform="translate(2.611 37.115)" fill="#ecf0ff"/>
            <path id="Trazado_730557" data-name="Trazado 730557" d="M5.771,47.649c1.632-1.681,4.273-.876,5.5-.479a27.906,27.906,0,0,1,1.588,4.361,19.826,19.826,0,0,1,.214,7.627c-.386,3.165-3.028,3.422-4.531,2.237-1.659-1.311-2.313-5.6-2.989-9.157-.263-1.3.5-3.846.219-4.588" transform="translate(9.549 81.013)" fill="#1a70d6"/>
            <path id="Trazado_730558" data-name="Trazado 730558" d="M1.808,40.5a6.349,6.349,0,0,0,.181.953l9.176,30.138c.148.567,7.881-1.333,7.8-1.651,0,0-2.721-21.851-6.094-31.55a5.78,5.78,0,0,0-6.978-3.945A5.684,5.684,0,0,0,1.808,40.5" transform="translate(3.087 59.477)" fill="#ecf0ff"/>
            <path id="Trazado_730559" data-name="Trazado 730559" d="M7.636,49.3c-.052.019-.057-.129-.077,0a13.545,13.545,0,0,0,3.367,5.27c.391.408,1.322,1.344,1.823.6.485-.739-.334-3.8-2.948-6.316-.263-.255-1.922-1.6-2.031-.953Z" transform="translate(13.134 82.931)" fill="#1a70d6"/>
            <path id="Trazado_730560" data-name="Trazado 730560" d="M16.77,32.239c0-1.385-.977-1.949-2.185-1.251a4.813,4.813,0,0,0-2.179,3.772c0,1.393.977,1.952,2.179,1.254a4.792,4.792,0,0,0,2.185-3.775" transform="translate(21.556 53.322)" fill="#0b0c0d"/>
            <path id="Trazado_730561" data-name="Trazado 730561" d="M17.017,36.879c0-1.382-.983-1.952-2.185-1.254A4.817,4.817,0,0,0,12.653,39.4c0,1.388.977,1.949,2.179,1.262a4.851,4.851,0,0,0,2.185-3.783" transform="translate(21.985 61.382)" fill="#0b0c0d"/>
            <path id="Trazado_730562" data-name="Trazado 730562" d="M15.71,28.15c3.362-1.8.925-8.6.249-8.851a2.473,2.473,0,0,0-2.51.381c-1.6,1.829-2.718,5.9-2.718,5.9s3.745,3.228,4.98,2.568" transform="translate(18.644 33.228)" fill="#0d3350"/>
            <path id="Trazado_730563" data-name="Trazado 730563" d="M8.063,18.783l.033,2L8.148,24.6a7.454,7.454,0,0,0,1.131,1.311l.019.014a3.231,3.231,0,0,0,.545.457,5.626,5.626,0,0,0,1.949,1,10.454,10.454,0,0,0,3.564.493,3.425,3.425,0,0,0,1.068-.164,2.785,2.785,0,0,0,1.768-1.328,5.231,5.231,0,0,0,.506-1.328l-.238-4.818-.12-2.346Z" transform="translate(14.01 31.089)" fill="#e9ae93"/>
            <path id="Trazado_730564" data-name="Trazado 730564" d="M7.166,24.931c1.363,2.119,5.346,5.535,7.545,5.188,1.35-.219,2.584-2.639,3.187-4.076a10.451,10.451,0,0,1-3.564-.49,5.674,5.674,0,0,1-1.949-1,3.245,3.245,0,0,1-.548-.46l-.016-.014a7.485,7.485,0,0,1-1.133-1.309l-.049-3.822C8.926,20,5.181,21.845,7.166,24.931" transform="translate(11.469 32.924)" fill="#0d3350"/>
            <path id="Trazado_730565" data-name="Trazado 730565" d="M6.413,27.412c1.21,2.4,5.341,9.245,7.63,10.006,3.214,1.076,10.258,2.16,12.94-1.254,3.581-4.569,1.64-13.061-.964-21.156s-9.264-7.627-13.411-2.477c-4.134,5.119-10.019,7.287-6.2,14.881" transform="translate(8.994 15.246)" fill="#e9c2b0"/>
            <path id="Trazado_730566" data-name="Trazado 730566" d="M24.915,9.163c-4.67-3.1-9.729-1.719-14.52.479-4.156,1.914-7.832,6.978-7.446,11.243.5,5.908,3.351,13.3,10.726,15.976,2.74,1-2.409-4.772.972-5.5,1.084-.23,1.2-2.072,1.949-2.483.6.208,4.646-2.644,9.141-4.8.323-.156.43-3.044.745-3.2.433-.2,1.073,2.327,1.465,2.133a18.738,18.738,0,0,0,3.912-2.551c.515-4.432-3.646-9.1-6.942-11.3" transform="translate(5.075 12.786)" fill="#2b0d04"/>
            <path id="Trazado_730567" data-name="Trazado 730567" d="M10.706,16.782c1.35,1.681,1.629,3.7.624,4.5s-2.921.1-4.271-1.574-1.621-3.7-.619-4.506,2.921-.1,4.265,1.577" transform="translate(10.146 25.831)" fill="#e9c2b0"/>
            <g id="Grupo_965800" data-name="Grupo 965800" transform="translate(21.481 34.137)" style="mix-blend-mode: multiply;isolation: isolate">
              <g id="Grupo_965799" data-name="Grupo 965799">
                <g id="Grupo_965798" data-name="Grupo 965798" clip-path="url(#clip-path-28)">
                  <path id="Trazado_730568" data-name="Trazado 730568" d="M7.964,20.389a28.728,28.728,0,0,0,5.062-2.026c2.267-.972,4.5-2.031,6.7-3.148.468-.238.961-.422,1.426-.662a3.562,3.562,0,0,0,1.257-.934c.131-.172.227-1.2.32-1.147a6.523,6.523,0,0,1,2.009,1.851c1.177,1.741,1.021,4.706-1.385,5.138a5.21,5.21,0,0,1-2.7-.381,3.2,3.2,0,0,0-1.979-.339c-.791.241-1.191,1.1-1.525,1.848a8.267,8.267,0,0,1-2.111,3.148,7.277,7.277,0,0,1-2.116,1.136,3.8,3.8,0,0,1-2.609.244A3.116,3.116,0,0,1,9.1,24.2a4.07,4.07,0,0,1-1.133-3.811" transform="translate(-7.846 -12.47)" fill="#ffe54d"/>
                </g>
              </g>
            </g>
          </g>
        </g>
      </g>
    </g>
  </g>
</svg>
