<svg xmlns="http://www.w3.org/2000/svg" width="748.624" height="550" viewBox="0 0 748.624 550"><g transform="translate(-316 -1031)"><g transform="translate(506.492 1012.887)"><g transform="translate(343.155 489.875)"><path d="M263.516,402.666a2.028,2.028,0,0,1-.4-4.017l156.849-31.57a2.029,2.029,0,1,1,.8,3.978L263.918,402.625A2.047,2.047,0,0,1,263.516,402.666Z" transform="translate(-261.489 -367.041)" fill="#0a88a5"/></g><g transform="translate(388.314 334.114)"><path d="M296.917,259.616a2.028,2.028,0,0,1-.066-4.055l111.692-3.718a2.028,2.028,0,0,1,.135,4.053l-111.693,3.718Z" transform="translate(-294.89 -251.836)" fill="#0a88a5"/></g><g transform="translate(344.399 177.839)"><path d="M264.435,165.171a2.029,2.029,0,0,1-.38-4.021l129.227-24.864a2.028,2.028,0,1,1,.765,3.983L264.821,165.133A2.069,2.069,0,0,1,264.435,165.171Z" transform="translate(-262.41 -136.25)" fill="#0a88a5"/></g><g transform="translate(109.956 178.635)"><path d="M218.874,170.276a2.03,2.03,0,0,1-.456-.051L90.584,140.845a2.028,2.028,0,0,1,.909-3.953l127.835,29.38a2.028,2.028,0,0,1-.453,4Z" transform="translate(-89.009 -136.839)" fill="#0a88a5"/></g><g transform="translate(84.268 402.79)"><path d="M72.039,393.5a2.028,2.028,0,0,1-1.267-3.613l108.676-86.814a2.028,2.028,0,1,1,2.531,3.169L73.3,393.056A2.027,2.027,0,0,1,72.039,393.5Z" transform="translate(-70.01 -302.631)" fill="#0a88a5"/></g><g transform="translate(84.267 243.292)"><path d="M72.04,285.088a2.027,2.027,0,0,1-1-3.794L242.23,184.923a2.028,2.028,0,1,1,1.989,3.534L73.033,284.828A2.008,2.008,0,0,1,72.04,285.088Z" transform="translate(-70.009 -184.662)" fill="#0a88a5"/></g><g transform="translate(291.684 72.866)"><path d="M225.448,138.677h0a2.028,2.028,0,0,1-2.025-2.031l.108-76.011a2.027,2.027,0,0,1,2.028-2.025h0a2.028,2.028,0,0,1,2.027,2.031l-.108,76.011A2.027,2.027,0,0,1,225.448,138.677Z" transform="translate(-223.42 -58.61)" fill="#0a88a5"/></g><g transform="translate(237.034 18.113)"><circle cx="56.785" cy="56.785" r="56.785" fill="#0a88a5"/><path d="M237.937,23.363a49.687,49.687,0,1,0,49.687,49.686A49.687,49.687,0,0,0,237.937,23.363Zm31.3,61.061c-1.479,0-11.508,3.185-31.3,3.185s-29.826-3.185-31.3-3.185c-6.414,0-9.578-1.186-2.7-6.908,1.891-8.68,6.076-15.647,12.057-20.414a2.5,2.5,0,0,1,.942-3.356l4.347-2.507a2.508,2.508,0,0,1,3.427.918l.034.059a36.172,36.172,0,0,1,8.169-1.931V49.96a2.508,2.508,0,0,1,2.509-2.508h5.026a2.507,2.507,0,0,1,2.507,2.508v.326a36.12,36.12,0,0,1,8.169,1.931l.036-.059a2.505,2.505,0,0,1,3.425-.918l4.348,2.507a2.5,2.5,0,0,1,.942,3.356c5.98,4.767,10.165,11.734,12.056,20.414C278.815,83.238,275.652,84.424,269.24,84.424Z" transform="translate(-181.152 -16.265)" fill="#f5f5f5"/></g><g transform="translate(29.508 279.363)"><circle cx="56.785" cy="56.785" r="56.785" fill="#0a88a5"/><path d="M84.445,216.592a49.686,49.686,0,1,0,49.687,49.685A49.687,49.687,0,0,0,84.445,216.592ZM49.739,255.034c0-3.967.956-6.25,2.922-6.982,4.372-1.629,11.55,5.841,19.241,14.676q-.748.825-1.452,1.741c-4.643-5.357-13.714-15.534-17.007-14.321-.944.353-1.464,2.086-1.464,4.885,0,10.674,7.482,19.66,14.117,25a16.659,16.659,0,0,0,1.1,3.614C59.435,278.218,49.739,267.588,49.739,255.034Zm34.708,36.858c-9.075,0-16.43-6.035-16.43-15.11,0-5.568,3.711-11.371,8.1-15.026,2.762-2.3,3.944-5.6,8.331-5.6,4.516,0,5.573,3.3,8.339,5.6,4.383,3.655,8.091,9.459,8.091,15.022C100.877,285.857,93.521,291.892,84.447,291.892Zm17.253-8.251a16.629,16.629,0,0,0,1.1-3.613c6.633-5.335,14.115-14.319,14.115-24.994,0-2.8-.519-4.532-1.463-4.884-3.287-1.225-12.362,8.959-17.009,14.318-.466-.611-.955-1.192-1.449-1.743,7.688-8.834,14.856-16.306,19.239-14.674,1.966.731,2.922,3.015,2.922,6.982C119.155,267.588,109.461,278.216,101.7,283.641Zm-9.417-17.407c-1.119,0-3.36-4.478-7.836-4.478s-6.718,4.478-7.839,4.478a1.057,1.057,0,0,0-1.117,1.118,1.116,1.116,0,0,0,1.117,1.121c1.121,0,5.6-4.479,7.839-4.479s6.717,4.479,7.836,4.479a1.076,1.076,0,0,0,1.118-1.121A1.118,1.118,0,0,0,92.283,266.233Z" transform="translate(-27.66 -209.492)" fill="#f5f5f5"/></g><g transform="translate(418.872 123.878)"><path d="M431.063,153.125A56.785,56.785,0,1,1,374.277,96.34,56.788,56.788,0,0,1,431.063,153.125Z" transform="translate(-317.492 -96.34)" fill="#0a88a5"/><path d="M372.427,101.591a49.687,49.687,0,1,0,49.69,49.686A49.688,49.688,0,0,0,372.427,101.591Zm34.712,49.686a2.238,2.238,0,0,1-2.24,2.239h-1.276a17.926,17.926,0,0,1-17.759,15.675,17.72,17.72,0,0,1-8.956-2.239c-.749-.352-2.238-2.239-4.475-2.135-2.24-.1-3.733,1.783-4.481,2.135A17.709,17.709,0,0,1,359,169.191a17.926,17.926,0,0,1-17.759-15.675h-1.274a2.237,2.237,0,0,1-2.243-2.239v-8.955a2.24,2.24,0,0,1,2.243-2.24h1.118v-2.239a4.483,4.483,0,0,1,4.481-4.479H399.3a4.478,4.478,0,0,1,4.478,4.479v2.239H404.9a2.241,2.241,0,0,1,2.24,2.24ZM385.863,138.4H359c-10.83,0-12.874,2.046-12.874,12.874A12.884,12.884,0,0,0,359,164.154c2.482,0,4.719-1.156,6.887-2.282,2.088-1.078,4.243-2.2,6.549-2.2s4.462,1.118,6.544,2.194c2.167,1.128,4.409,2.284,6.887,2.284a12.891,12.891,0,0,0,12.877-12.877c0-5.876-.657-8.825-2.351-10.515S391.743,138.4,385.863,138.4Z" transform="translate(-315.644 -94.491)" fill="#f5f5f5"/></g><g transform="translate(55.196 123.88)"><circle cx="56.785" cy="56.785" r="56.785" fill="#0a88a5"/><path d="M103.444,101.591a49.687,49.687,0,1,0,49.689,49.686A49.686,49.686,0,0,0,103.444,101.591Zm27.548,74.087a2.679,2.679,0,0,1-2.765,2.605,2.725,2.725,0,0,1-2.466-2.926l1.352-24.892a2.669,2.669,0,0,1,2.766-2.6,2.72,2.72,0,0,1,2.463,2.923c.077,0,.154.024.23.032a31.777,31.777,0,0,0-8.237-17.551c-1.134.08-3.184-.9-5.205-2.593a16.106,16.106,0,0,1-2.4-2.459,10.7,10.7,0,0,1-5.176-1.1,13.929,13.929,0,0,1-3.633-2.232,14.21,14.21,0,0,1-8.96,0,13.9,13.9,0,0,1-3.636,2.232,10.7,10.7,0,0,1-5.17,1.1,16.018,16.018,0,0,1-2.4,2.459c-2.023,1.7-4.072,2.673-5.207,2.592a31.786,31.786,0,0,0-8.237,17.552c.078-.007.154-.027.234-.032a2.716,2.716,0,0,1,2.466-2.923,2.669,2.669,0,0,1,2.762,2.6l1.355,24.892a2.727,2.727,0,0,1-2.466,2.926,2.675,2.675,0,0,1-2.765-2.605c-4.333.26-8.146-5.1-8.521-11.97a17.089,17.089,0,0,1,1.6-8.5v-.042c0-20.084,15.461-36.425,34.467-36.425s34.47,16.341,34.47,36.425v.046a17.15,17.15,0,0,1,1.6,8.492C139.135,170.58,135.324,175.935,130.992,175.678Z" transform="translate(-46.66 -94.493)" fill="#f5f5f5"/></g><g transform="translate(444.561 434.847)"><circle cx="56.785" cy="56.785" r="56.785" fill="#0a88a5"/><path d="M391.429,331.591a49.687,49.687,0,1,0,49.687,49.689A49.687,49.687,0,0,0,391.429,331.591Zm-8.047,17.5H410.2l0,3.129H390.084v5.814H383.7l-.161-1.8c-.091-.976-.161-2.582-.161-3.565Zm-12.811,59H366.4a4.387,4.387,0,0,1-2.235-.445,3.169,3.169,0,0,1-.446-1.79c0-.731.2-1.339.446-1.339s.247-.4,0-.9a7.637,7.637,0,0,1-.443-2.68,4.4,4.4,0,0,1,.89-2.682,7.968,7.968,0,0,1,2.593-1.46l1.971-.654a27.213,27.213,0,0,1,3.459-.861l7.2-1.2a6.493,6.493,0,0,0,3.027-1.559l2.838-2.835a4.134,4.134,0,0,0,1.038-3.041L385.392,375.9c-.124-.975-.3-2.574-.383-3.556l-1.061-11.629h6.226c.026.4.051.776.081,1.094l.184,2.034,1.28,14.072c.091,1,.266,2.631.391,3.625l1.345,10.761a2.037,2.037,0,0,1-.406,1.176l-2.832,2.834a4.459,4.459,0,0,1-1.81.934l-7.2,1.2a30.177,30.177,0,0,0-3.8.94l-1.974.66a10.077,10.077,0,0,0-3.463,2,6.534,6.534,0,0,0-1.548,4.262A11.953,11.953,0,0,0,370.571,408.094Zm46.94-30.384c-.088.978-.293,2.572-.454,3.545l-1.2,7.2a26.006,26.006,0,0,0-.295,3.554,13.232,13.232,0,0,0,.565,3.479l.657,1.973a13.173,13.173,0,0,1,.565,3.487V407.2a4.768,4.768,0,0,1-.446,1.787c-.247.5-.247.892,0,.892s.446.607.446,1.344a5.651,5.651,0,0,1-.222,1.787c-.124.246-1.032.446-2.012.446h-8.493c-.984,0-1.789-.4-1.789-.9s-.8-.892-1.785-.892h-1.789a4.4,4.4,0,0,0-2.682.892,4.35,4.35,0,0,1-2.682.9h-20.56a4.344,4.344,0,0,1-2.232-.446,3.14,3.14,0,0,1-.45-1.787c0-.737.2-1.344.45-1.344s.247-.4,0-.892a7.557,7.557,0,0,1-.45-2.682,4.347,4.347,0,0,1,.9-2.681,7.907,7.907,0,0,1,2.589-1.462l1.971-.658a28.151,28.151,0,0,1,3.46-.854l7.2-1.2a6.567,6.567,0,0,0,3.029-1.559l2.833-2.832a4.146,4.146,0,0,0,1.044-3.039l-1.348-10.757c-.122-.976-.291-2.576-.384-3.553l-1.056-11.628H418.57Zm1.628-19.673c0,.983-.074,2.588-.161,3.568l-.161,1.794H392.649l-.166-1.794c-.089-.98-.164-2.585-.164-3.568l0-3.577h26.818Z" transform="translate(-334.644 -324.493)" fill="#f5f5f5"/></g><g transform="translate(29.508 434.847)"><circle cx="56.785" cy="56.785" r="56.785" fill="#0a88a5"/><path d="M84.445,331.591a49.688,49.688,0,1,0,49.687,49.686A49.687,49.687,0,0,0,84.445,331.591Zm-20.24,58.892L50.182,382.3a3.956,3.956,0,1,1,3.987-6.835l5.641,3.292-5.923-15.742a3.428,3.428,0,0,1,6.411-2.431L59.1,357.4l0-.009a3.43,3.43,0,0,1,6.421-2.417v0l.6,1.6a3.431,3.431,0,0,1,6.425-2.409h0l1.809,4.811a3.428,3.428,0,1,1,6.419-2.407l1.351,3.591a6.127,6.127,0,0,0-3.745,7.317L82.271,382.3l-7.194,12.682a3.924,3.924,0,0,0-3.6,3.753l-4.521,1.7Zm5.593,19.68a1.716,1.716,0,1,1-1.21-3.211l.146-.05-1.067-3.865,4.616-1.739a3.885,3.885,0,0,0,1.5,1.219l7.413,3.358Zm34.436-.065a1.716,1.716,0,0,1-1.412,3.127L74.7,400.48a1.716,1.716,0,0,1,1.418-3.126l.141.066,1.979-3.484,27.169,12.308-1.317,3.787Zm5.516-16.329h0L106.3,403.7,79.571,391.592l5.094-8.983-4.126-15.7a3.955,3.955,0,0,1,7.651-2.01l1.66,6.318,6.941-15.321a3.43,3.43,0,0,1,6.255,2.816l1.4-3.1V355.6a3.431,3.431,0,0,1,6.25,2.83h0l-.7,1.555a3.429,3.429,0,0,1,6.242,2.839h0l-2.125,4.681a3.43,3.43,0,1,1,6.245,2.837Z" transform="translate(-27.66 -324.493)" fill="#f5f5f5"/></g><g transform="translate(444.561 279.362)"><circle cx="56.785" cy="56.785" r="56.785" fill="#0a88a5"/><path d="M391.425,216.592a49.686,49.686,0,1,0,49.691,49.687A49.685,49.685,0,0,0,391.425,216.592Zm-30.191,50.5c5.887-2.677,9.643-9.566,8.748-16.961l-1.641-15.82,5.293-.742,7.494,40.7H361.234Zm30.191,27.162c0,3.31-2.384,5.995-5.326,5.995l-19.535-2c-2.945,0-5.33-2.684-5.33-5.994v-4h30.191Zm0-9.993H361.234v-5.995h30.191Zm0-9.99h-6.11l-7.6-41.28,4.838-.681,8.875,21.979Zm8.883-41.962,4.838.681-7.605,41.28h-3.878V253.854l-1.03-2.55Zm21.309,59.949c0,3.31-2.381,5.994-5.326,5.994l-19.533,2a5.075,5.075,0,0,1-4.007-2.077,8.776,8.776,0,0,0,.911-3.918v-6h27.955Zm0-8H393.663v-5.995h27.955Zm0-9.99H401.724l7.5-40.7,5.293.742-1.644,15.82c-.9,7.4,2.865,14.284,8.745,16.961Z" transform="translate(-334.644 -209.491)" fill="#f5f5f5"/></g><g transform="translate(204.197 164.43)"><path d="M247.806,225.375c0,12.072-10.146,4.371-18.17,4.371s-18.169,7.7-18.169-4.371,10.142-91.811,18.169-91.811S247.806,213.3,247.806,225.375Z" transform="translate(-140.142 -123.787)" fill="#681e1e"/><g transform="translate(0 107.031)"><path d="M179.872,301.928h-17.7c0-51.668,27.523-90.423,37.984-96.432l8.815,15.344.173-.108C203.98,224.384,179.872,257.183,179.872,301.928Z" transform="translate(-157.494 -205.496)" fill="#ffcc80"/><path d="M208.974,220.84,200.159,205.5c-.114.065-.239.155-.357.228l8.026,13.969.173-.108c-5.169,3.652-29.277,36.451-29.277,81.2h-16.53c0,.383-.019.76-.019,1.145h17.7c0-44.746,24.108-77.545,29.276-81.2Z" transform="translate(-157.494 -205.496)" fill="#212121" opacity="0.05"/><g transform="translate(0 84.244)"><path d="M158.735,294.67c-.4,10.43,4.644,19.165,11.25,19.494,17.954.9,12.29-7.861,12.689-18.293s-4.64-19.164-11.249-19.495C160.264,275.816,159.455,275.775,158.735,294.67Z" transform="translate(-158.713 -264.842)" fill="#ff8f00"/><path d="M174.332,291.017c4,6.045,8.844,9.555,10.822,7.83s.333-8.02-3.665-14.069-8.84-9.562-10.82-7.839S170.329,284.962,174.332,291.017Z" transform="translate(-154.799 -264.744)" fill="#ff8f00"/><path d="M183.805,269.792c.341,4.843-1.886,14.446-1.886,14.446l-21.312,1.448s-2.5-13.808-.9-17.882C163.337,269.317,179.367,271.365,183.805,269.792Z" transform="translate(-158.551 -267.805)" fill="#ff8f00"/></g><path d="M184.161,287.321a33.109,33.109,0,0,0-3.2-4.126c.45-2.048,2.061-9.744,1.768-13.919a7.289,7.289,0,0,1-1.119.276,75.542,75.542,0,0,1-1.8,12.5,32.949,32.949,0,0,1,3.2,4.124c4,6.05,5.641,12.349,3.665,14.071-1.275,1.111-3.744.027-6.407-2.488-.178,10.17,4.94,18.586-12.677,17.706a8.738,8.738,0,0,1-5.358-2.353,9.313,9.313,0,0,0,6.506,3.5c17.616.88,12.5-7.536,12.677-17.706,2.662,2.515,5.132,3.6,6.406,2.488C189.8,299.67,188.159,293.37,184.161,287.321Z" transform="translate(-157.472 -183.044)" fill="#212121" opacity="0.5"/><path d="M299.86,301.928H282.167c0-44.748-24.109-77.546-29.274-81.2l8.986-15.236C272.338,211.5,299.86,250.258,299.86,301.928Z" transform="translate(-125.558 -205.496)" fill="#ffcc80"/><path d="M259.71,205.5l-.657,1.117c11.421,8.676,36.345,46.13,36.345,95.316h2.293C297.691,250.258,270.169,211.5,259.71,205.5Z" transform="translate(-123.39 -205.496)" fill="#212121" opacity="0.05"/><g transform="translate(147.797 84.244)"><path d="M297.457,294.67c.4,10.43-4.643,19.165-11.249,19.494-17.958.9-12.3-7.861-12.689-18.293s4.637-19.164,11.243-19.495C295.928,275.816,296.739,275.775,297.457,294.67Z" transform="translate(-266.287 -264.842)" fill="#ff8f00"/><path d="M279.685,291.017c-4,6.045-8.846,9.555-10.822,7.83s-.333-8.02,3.668-14.069,8.841-9.562,10.816-7.839S283.686,284.962,279.685,291.017Z" transform="translate(-268.027 -264.744)" fill="#ff8f00"/><path d="M272.429,269.792c-.343,4.843,1.882,14.446,1.882,14.446l21.311,1.448s2.5-13.808.9-17.882C292.9,269.317,276.863,271.365,272.429,269.792Z" transform="translate(-266.49 -267.805)" fill="#ff8f00"/></g><path d="M299.185,297.632c-.291-7.581-.6-12.08-1.585-14.756.634-4.252,1.593-12.152.449-15.071a13.75,13.75,0,0,1-1.806.56,69.5,69.5,0,0,1-.934,12.218c.979,2.674,1.294,7.175,1.582,14.755.4,10.431-4.643,19.166-11.25,19.495-5.012.25-8.177-.254-10.155-1.334,1.325,2.589,4.666,4.017,12.451,3.628C294.542,316.8,299.581,308.062,299.185,297.632Zm-30.334,4.275c.867.754,2.29.477,3.945-.556,1.572-1.122,2.958-1.943,2.815-3.592-1.837,1.739-6.221,2.135-7.547,2.255A2.835,2.835,0,0,0,268.851,301.907Z" transform="translate(-120.218 -183.561)" fill="#212121" opacity="0.5"/></g><g transform="translate(38.627 211.28)"><g transform="translate(0 4.41)"><path d="M259.047,435.852H239.973L227.256,294.688l47.686-8.825Z" transform="translate(-173.21 -285.863)" fill="#184054"/><path d="M203.177,435.852h19.072L234.97,294.688l-47.688-8.825Z" transform="translate(-187.282 -285.863)" fill="#184054"/></g><path d="M240.931,331.129l-8.632-5.1h-8.165l-8.636,5.1V282.6h25.434Z" transform="translate(-177.35 -282.602)" fill="#184054"/></g><path d="M279.825,286.82,264.52,431.265h-14.9l.415,4.587h19.073L285,285.863Zm-42.509,33.472H225.467l-1.919,1.133-9.9,109.839H198.679l.485,4.587h19.072l9.9-109.839,1.919-1.133h8.165l1.917,1.133Z" transform="translate(-144.643 -70.173)" fill="#212121" opacity="0.4"/><g transform="translate(20.137 84.099)"><path d="M188.263,271.607c0-65.583,22.183-83.072,49.543-83.072s49.54,17.489,49.54,83.072Z" transform="translate(-168.448 -188.535)" fill="#153d51"/><path d="M264.6,247.766c19.817,0,23.122-17.483,23.122-21.857s-9.91-21.861-33.03-30.606-3.3,34.978-3.3,34.978Z" transform="translate(-149.007 -186.559)" fill="#153d51"/><path d="M196.724,247.766c-19.815,0-23.117-17.483-23.117-21.857s9.9-21.861,33.026-30.606,3.3,34.978,3.3,34.978Z" transform="translate(-173.607 -186.559)" fill="#153d51"/><path d="M295.67,221.326c0,18.111-25.14,32.788-56.146,32.788s-56.147-14.678-56.147-32.788,25.14-32.791,56.147-32.791S295.67,203.214,295.67,221.326Z" transform="translate(-170.168 -188.535)" fill="#153d51"/></g><g transform="translate(35.448 84.099)"><g transform="translate(54.046)"><path d="M274.469,265c-14.8-7.348-17.977-31.652-11.191-65.39.206-1.029.412-2.028.623-3.046l-20.978-8.027L224.9,237.141v85.07c0,6.7,4.271,12.152,9.537,12.152l34.97-4.052c5.266,0,9.541-5.443,9.541-12.155l-3.33-50.949C275.4,265.981,276.009,265.759,274.469,265Z" transform="translate(-224.905 -188.535)" fill="#f57f17"/><path d="M275.037,265.466c-.222-1.221.377-1.445-1.138-2.2l1.329,50.008c0,6.713-4.276,12.155-9.541,12.155l-34.97,4.052a7.833,7.833,0,0,1-4.144-1.253,8.871,8.871,0,0,0,7.283,4.394l34.97-4.052c5.266,0,9.541-5.443,9.541-12.155Zm-8.065-7.861c-8.7-10.849-9.833-32.128-4.281-59.738.206-1.029.412-2.028.623-3.046l-3.51-1.341c-.084.415-.169.825-.256,1.247C253.394,225.349,255.477,248.152,266.972,257.606Z" transform="translate(-224.318 -186.794)" fill="#e26910"/><path d="M276.817,262.549H224.905v-8.1h51.408Z" transform="translate(-224.905 -165.332)" fill="#212121"/><path d="M278.156,277.528H224.905v-8.1H277.62Z" transform="translate(-224.905 -160.058)" fill="#212121"/><path d="M253.525,192.541,237.75,276.807l-.766,4.049-6.2-1.863.415-2.187,18.126-85.877Z" transform="translate(-222.836 -187.692)" fill="#212121"/></g><path d="M189.414,265c14.794-7.348,17.974-31.652,11.189-65.39-.207-1.029-.415-2.028-.622-3.046l20.974-8.027,18.021,48.606v85.07c0,6.7-4.272,12.152-9.539,12.152l-34.973-4.052c-5.268,0-9.535-5.443-9.535-12.155l3.329-50.949C188.484,265.981,187.873,265.759,189.414,265Z" transform="translate(-184.931 -188.535)" fill="#f57f17"/><path d="M220.29,188.535l-1.263.484,16.991,45.829v85.071c0,6.7-4.272,12.149-9.54,12.149l-34.972-4.052a7.966,7.966,0,0,1-4.683-1.625,8.718,8.718,0,0,0,6.977,3.92l34.973,4.052c5.266,0,9.539-5.447,9.539-12.152v-85.07Z" transform="translate(-184.265 -188.535)" fill="#e26910"/><path d="M186.506,262.549h51.917v-8.1H187.014Z" transform="translate(-184.377 -165.332)" fill="#212121"/><path d="M185.519,277.528h53.252v-8.1H186.057Z" transform="translate(-184.724 -160.058)" fill="#212121"/><path d="M202.274,192.5l15.687,84.3.761,4.049,6.2-1.863-.412-2.187-18.123-85.877Z" transform="translate(-178.826 -187.692)" fill="#212121"/><path d="M226.908,307.53a1.844,1.844,0,0,1-1.587,2.024h0a1.848,1.848,0,0,1-1.591-2.024V226.514a1.852,1.852,0,0,1,1.591-2.027h0a1.848,1.848,0,0,1,1.587,2.027Z" transform="translate(-171.273 -175.879)" fill="#212121"/><path d="M227.736,227.482h-3.181l-3.177,12.153,1.587,4.051h6.361l1.59-4.051Zm-1.59,14.333a2.49,2.49,0,1,1,2.49-2.489A2.489,2.489,0,0,1,226.146,241.815Z" transform="translate(-172.101 -174.824)" fill="#e0e0e0"/></g><path d="M246.471,194.476c-2.5,5.227-9.191,8.967-17.11,8.967s-14.61-3.74-17.113-8.967c.41-3.467.864-7.3,1.409-11.35,3.142-4.01,8.968-6.714,15.7-6.714s12.56,2.7,15.7,6.714C245.611,187.179,246.065,191.009,246.471,194.476Z" transform="translate(-139.867 -108.704)" fill="#ffb74d"/><g transform="translate(48.939)"><path d="M261.818,168.031c0,21.776-13.113,46.39-29.286,46.39s-29.29-24.614-29.29-46.39,13.112-32.472,29.29-32.472S261.818,146.252,261.818,168.031Z" transform="translate(-191.977 -123.085)" fill="#ffcc80"/><path d="M248.771,168.288c-.711,5.528.644,10.216-2.4,9.891s-4.927-5.07-4.217-10.6,3.76-9.747,6.8-9.426S249.487,162.755,248.771,168.288Z" transform="translate(-178.33 -115.136)" fill="#ffcc80"/><path d="M203.232,168.288c.71,5.528-.652,10.216,2.4,9.891s4.932-5.07,4.217-10.6-3.76-9.747-6.8-9.426S202.517,162.755,203.232,168.288Z" transform="translate(-192.564 -115.136)" fill="#ffcc80"/><g transform="translate(10.147 44.59)"><path d="M245.742,185.474c0,9.129-7.4,15.2-16.533,15.2s-16.533-6.076-16.533-15.2c0-5.6,3.733-11.442,8.147-15.121,2.782-2.316,3.97-5.629,8.385-5.629,4.539,0,5.608,3.315,8.393,5.634C242.011,174.035,245.742,179.876,245.742,185.474Z" transform="translate(-198.801 -157.408)" fill="#f5f5f5"/><path d="M221.555,177.9a1.126,1.126,0,0,1-.757-.293l-18.015-16.329a1.127,1.127,0,1,1,1.516-1.667l18.013,16.326a1.129,1.129,0,0,1-.757,1.963Z" transform="translate(-202.414 -159.313)" fill="#f5f5f5"/><path d="M233.529,177.9a1.129,1.129,0,0,1-.768-1.951l17.449-16.327a1.127,1.127,0,1,1,1.54,1.645L234.3,177.592A1.13,1.13,0,0,1,233.529,177.9Z" transform="translate(-191.857 -159.313)" fill="#f5f5f5"/><path d="M218.135,189.909a1.117,1.117,0,0,1-.8-.33L206.07,178.311a1.126,1.126,0,1,1,1.59-1.594l11.271,11.267a1.128,1.128,0,0,1,0,1.593A1.117,1.117,0,0,1,218.135,189.909Z" transform="translate(-201.244 -153.303)" fill="#f5f5f5"/><path d="M235.192,189.909a1.109,1.109,0,0,1-.79-.33,1.123,1.123,0,0,1,0-1.6l11.26-11.267a1.127,1.127,0,1,1,1.593,1.594L236,189.579A1.135,1.135,0,0,1,235.192,189.909Z" transform="translate(-191.27 -153.303)" fill="#f5f5f5"/><path d="M236.26,174.521a1.083,1.083,0,0,1-1.125,1.129c-1.128,0-5.633-4.509-7.884-4.508s-6.762,4.508-7.888,4.508a1.126,1.126,0,0,1-1.125-1.129h0a1.065,1.065,0,0,1,1.125-1.126c1.126,0,3.38-4.5,7.888-4.508s6.756,4.508,7.884,4.508a1.124,1.124,0,0,1,1.125,1.126Z" transform="translate(-196.843 -155.943)" fill="#757575"/><g transform="translate(22.61 25.718)"><path d="M233.111,179.095a.727.727,0,0,1-.615.779c-3.925.118-7.869.118-11.792,0a.725.725,0,0,1-.614-.779h0a.7.7,0,0,1,.618-.76h11.786a.7.7,0,0,1,.618.76Z" transform="translate(-218.801 -178.335)" fill="#bdbdbd"/><path d="M234.733,182.431a.889.889,0,0,1-.729.852,48.481,48.481,0,0,1-14.138,0,.893.893,0,0,1-.729-.852h0a.641.641,0,0,1,.731-.649,63.981,63.981,0,0,0,14.133,0,.639.639,0,0,1,.731.649Z" transform="translate(-219.137 -177.123)" fill="#bdbdbd"/><path d="M233.884,185.932a.967.967,0,0,1-.662.917,27.955,27.955,0,0,1-12.923,0,.967.967,0,0,1-.663-.917h0a.559.559,0,0,1,.665-.606,32.265,32.265,0,0,0,12.917,0,.559.559,0,0,1,.665.606Z" transform="translate(-218.961 -175.878)" fill="#bdbdbd"/></g></g><g transform="translate(11.265 38.35)"><path d="M256.146,166.908c0,18.855-20.283,6.284-24.79,6.284s-24.785,12.521-24.785-6.332c0-13.52,0-11.268,24.785-11.268S256.146,153.34,256.146,166.908Z" transform="translate(-202.069 -154.433)" fill="#263238"/><path d="M261.821,157.533a2.594,2.594,0,0,1-2.25,2.833H205.5a2.6,2.6,0,0,1-2.255-2.833h0A2.6,2.6,0,0,1,205.5,154.7h54.075a2.6,2.6,0,0,1,2.25,2.835Z" transform="translate(-203.241 -154.698)" fill="#263238"/><path d="M243.826,166.824c1.241,0,2.252-5.042,2.252-11.268h-4.51C241.568,161.782,242.574,166.824,243.826,166.824Z" transform="translate(-189.749 -154.396)" fill="#263238"/><path d="M207.157,166.824c1.248,0,2.261-5.042,2.261-11.268h-4.51C204.907,161.782,205.914,166.824,207.157,166.824Z" transform="translate(-202.655 -154.396)" fill="#263238"/><path d="M228.786,163.724v-4.506l-.562-1.126c-3.56,0-4.355-.043-6.974-.084-1.929-.03-3.618-.057-5.1-.057-5.211,0-6.337.425-6.542.673-.538.649-.538,4.213-.538,7.356,0,2.824.523,4.867,1.518,5.907.265.28,1.064,1.122,3.469,1.122,3.156,0,7.12-1.384,10.3-2.495a9.886,9.886,0,0,0,3.3-1.582Z" transform="translate(-201.188 -153.553)" fill="#bbdefb"/><path d="M217.02,166.2a2.159,2.159,0,1,1,2.531-2.127A2.352,2.352,0,0,1,217.02,166.2Z" transform="translate(-199.28 -152.146)" fill="#90caf9"/><path d="M245.329,158.631c-.208-.254-1.339-.679-6.565-.679-1.478,0-3.165.026-5.1.055-2.612.041-3.4.084-6.948.084l-.562,1.126v4.506l1.125,5.209a10.045,10.045,0,0,0,3.317,1.593c3.188,1.118,7.154,2.511,10.312,2.511,1.975,0,4.959,0,4.959-7.013C245.867,162.706,245.867,159.282,245.329,158.631Z" transform="translate(-195.175 -153.552)" fill="#bbdefb"/><path d="M234.1,166.212a2.159,2.159,0,1,1,2.53-2.127A2.353,2.353,0,0,1,234.1,166.212Z" transform="translate(-193.267 -152.142)" fill="#90caf9"/></g><g transform="translate(0 3.463)"><path d="M233.705,133.4c16.466,0,29.818,15.131,29.818,33.8H267.5c0-21.155-15.133-38.3-33.8-38.3s-33.8,17.149-33.8,38.3h3.976C203.883,148.532,217.235,133.4,233.705,133.4Z" transform="translate(-193.15 -128.894)" fill="#ff8f00"/><path d="M207.014,178.661a2.671,2.671,0,0,1-2.508,2.812h0a2.665,2.665,0,0,1-2.811-2.507l-1.374-23.927a2.665,2.665,0,0,1,2.507-2.812h0a2.669,2.669,0,0,1,2.814,2.507Z" transform="translate(-193.006 -120.681)" fill="#212121"/><path d="M203.6,178.233c-4.408.251-8.285-4.9-8.661-11.5s2.884-12.171,7.287-12.422Z" transform="translate(-194.91 -119.948)" fill="#ff8f00"/><path d="M198.494,175.959c1.881-3.853,2.96-13.945,2.705-18.669l1.148,19.884A6.016,6.016,0,0,1,198.494,175.959Z" transform="translate(-193.648 -118.898)" fill="#212121" opacity="0.1"/></g><g transform="translate(67.096 35.004)"><path d="M244.54,178.661a2.669,2.669,0,0,0,2.507,2.812h0a2.673,2.673,0,0,0,2.815-2.507l1.364-23.927a2.654,2.654,0,0,0-2.5-2.812h0a2.67,2.67,0,0,0-2.812,2.507Z" transform="translate(-244.536 -152.223)" fill="#212121"/><path d="M248.471,178.233c4.406.251,8.281-4.9,8.664-11.5s-2.884-12.171-7.294-12.422Z" transform="translate(-243.15 -151.49)" fill="#ff8f00"/><path d="M257.157,162.6c0,.389,0,.8-.02,1.215-.391,6.606-4.267,11.744-8.672,11.491l.158-2.662C253.9,172.277,256.128,165.582,257.157,162.6Z" transform="translate(-243.153 -148.57)" fill="#212121" opacity="0.1"/></g><g transform="translate(4.885)"><path d="M263.661,161.148c-1.375,0-10.824,3-29.469,3s-28.1-3-29.493-3c-6.033,0-9.014-1.1-2.523-6.491,1.766-8.187,5.71-14.748,11.353-19.242a2.321,2.321,0,0,1,.894-3.142l4.083-2.386a2.39,2.39,0,0,1,3.231.872l.024.069c.046-.022.092-.022.138-.046a33.187,33.187,0,0,1,7.567-1.789v-.3a1.436,1.436,0,0,1,.024-.322,2.371,2.371,0,0,1,2.339-2.04h4.724a2.359,2.359,0,0,1,2.361,2.362v.3a.142.142,0,0,1,.093.023,32.4,32.4,0,0,1,7.613,1.812l.023-.069c0-.023.024-.023.047-.045a2.344,2.344,0,0,1,3.188-.827l4.082,2.386a2.318,2.318,0,0,1,.892,3.142c5.643,4.494,9.589,11.056,11.353,19.242C272.7,160.046,269.72,161.148,263.661,161.148Z" transform="translate(-198.522 -126.333)" fill="#f57f17"/><path d="M236.5,130.015l-1.261,11.9a3.9,3.9,0,0,1-7.777-.391,2.5,2.5,0,0,1,.023-.414l1.332-12.8a32.4,32.4,0,0,1,7.613,1.812l.023-.069C236.456,130.037,236.48,130.037,236.5,130.015Z" transform="translate(-188.334 -125.635)" fill="#e26910"/><path d="M224.826,141.12a2.231,2.231,0,0,1,.023.391,3.923,3.923,0,0,1-3.51,3.9,3.884,3.884,0,0,1-4.287-3.486l-1.238-11.836a33.186,33.186,0,0,1,7.567-1.789Z" transform="translate(-192.436 -125.641)" fill="#e26910"/><path d="M256.92,150.328c-21.533,6.031-26.719,4.264-32.015,4.264,6.514-1.7,31.809-1.055,27.36-15.962A36.1,36.1,0,0,1,256.92,150.328Z" transform="translate(-189.235 -122.004)" fill="#e26910"/></g></g><g transform="translate(26.422 338.648)"><g transform="translate(73.555 0)"><path d="M284.534,426.711a1.552,1.552,0,0,1,.2-.763,8.694,8.694,0,0,0,.51-3.069,5.042,5.042,0,0,0-1.022-3.072,9.08,9.08,0,0,0-2.966-1.672L279,417.382a31.09,31.09,0,0,0-3.961-.98l-8.25-1.378a7.522,7.522,0,0,1-3.469-1.781l-3.246-3.249a4.757,4.757,0,0,1-1.19-3.481l1.541-12.321c.138-1.117.333-2.947.438-4.07l1.2-13.316H232.658l1.21,13.316c.105,1.122.338,2.953.525,4.061l1.376,8.246a29.848,29.848,0,0,1,.335,4.066,15.034,15.034,0,0,1-.652,3.994l-.748,2.253a14.987,14.987,0,0,0-.65,4V423.9a5.5,5.5,0,0,0,.512,2.044,1.4,1.4,0,0,1,.191.81C241.9,425.571,267.795,427.569,284.534,426.711Z" transform="translate(-232.658 -376.806)" fill="#dedede"/><path d="M278,419.807a9.079,9.079,0,0,0-2.966-1.672l-2.259-.753a31.088,31.088,0,0,0-3.961-.98l-8.25-1.378a7.521,7.521,0,0,1-3.469-1.781l-3.246-3.249a4.757,4.757,0,0,1-1.19-3.481l1.541-12.321c.138-1.117.333-2.947.438-4.07l1.2-13.316H253.55l-1.2,13.316c-.105,1.122-.3,2.953-.441,4.07l-1.54,12.321a4.756,4.756,0,0,0,1.188,3.481l3.246,3.249a7.524,7.524,0,0,0,3.472,1.781l8.25,1.378a31.141,31.141,0,0,1,3.957.98l2.263.753a9.085,9.085,0,0,1,2.965,1.672,5.032,5.032,0,0,1,1.019,3.072,8.7,8.7,0,0,1-.51,3.069,1.538,1.538,0,0,0-.2.763c-2.828.145-5.929.2-9.142.215,4.041.013,7.94-.035,11.434-.215a1.551,1.551,0,0,1,.2-.763,8.7,8.7,0,0,0,.51-3.069A5.041,5.041,0,0,0,278,419.807Z" transform="translate(-226.433 -376.806)" fill="#212121" opacity="0.5"/><path d="M284.375,413.9c-.13,0-.193-.105-.2-.264-16.74.859-42.634-1.141-49.776.047-.022.127-.077.216-.191.216-.28,0-.512.69-.512,1.534a6.529,6.529,0,0,0,.257,2.052c.137.28,1.178.508,2.3.508h9.728c1.125,0,2.044-.462,2.044-1.023s.925-1.026,2.052-1.026h2.043a5.013,5.013,0,0,1,3.072,1.026A5.035,5.035,0,0,0,258.266,418h23.547a5.023,5.023,0,0,0,2.562-.508,3.64,3.64,0,0,0,.51-2.052C284.884,414.59,284.655,413.9,284.375,413.9Z" transform="translate(-232.294 -363.96)" fill="#212121"/></g><g transform="translate(0 0)"><path d="M178.968,426.711a1.558,1.558,0,0,0-.2-.763,8.691,8.691,0,0,1-.511-3.069,5.041,5.041,0,0,1,1.022-3.072,9.085,9.085,0,0,1,2.965-1.672l2.262-.753a30.958,30.958,0,0,1,3.96-.98l8.249-1.378a7.531,7.531,0,0,0,3.472-1.781l3.245-3.249a4.762,4.762,0,0,0,1.188-3.481l-1.541-12.321c-.135-1.117-.333-2.947-.438-4.07l-1.206-13.316h29.409l-1.209,13.316c-.1,1.122-.338,2.953-.525,4.061l-1.376,8.246a30.064,30.064,0,0,0-.335,4.066,15.034,15.034,0,0,0,.653,3.994l.749,2.253a15.1,15.1,0,0,1,.649,4V423.9a5.5,5.5,0,0,1-.514,2.044,1.409,1.409,0,0,0-.189.81C221.6,425.571,195.707,427.569,178.968,426.711Z" transform="translate(-178.255 -376.806)" fill="#dedede"/><path d="M216.911,394.184c.187-1.109.421-2.939.525-4.061l1.209-13.316h-2.293l-1.209,13.316c-.105,1.122-.338,2.953-.525,4.061l-1.378,8.246a30.291,30.291,0,0,0-.334,4.066,15.035,15.035,0,0,0,.653,3.994l.748,2.253a15.041,15.041,0,0,1,.65,4V423.9a5.5,5.5,0,0,1-.514,2.044,1.723,1.723,0,0,0-.177.576c.872.061,1.666.132,2.281.234a1.409,1.409,0,0,1,.189-.81,5.5,5.5,0,0,0,.514-2.044v-7.167a15.1,15.1,0,0,0-.649-4l-.749-2.253a15.034,15.034,0,0,1-.653-3.994,30.064,30.064,0,0,1,.335-4.066Z" transform="translate(-166.057 -376.806)" fill="#212121" opacity="0.5"/><path d="M178.766,413.9c.127,0,.189-.105.2-.264,16.74.859,42.634-1.141,49.778.047.019.127.076.216.189.216.28,0,.514.69.514,1.534a6.57,6.57,0,0,1-.257,2.052c-.138.28-1.176.508-2.3.508h-9.728c-1.128,0-2.044-.462-2.044-1.023s-.926-1.026-2.052-1.026h-2.046a5.008,5.008,0,0,0-3.069,1.026A5.038,5.038,0,0,1,204.874,418H181.325a5.011,5.011,0,0,1-2.559-.508,3.639,3.639,0,0,1-.511-2.052C178.255,414.59,178.486,413.9,178.766,413.9Z" transform="translate(-178.255 -363.96)" fill="#212121"/></g></g></g></g><g transform="translate(-262.95 1415.119)"><circle cx="68.5" cy="68.5" r="68.5" transform="translate(578.95 28.881)" fill="#0a88a5"/><g transform="translate(587.512 37.445)"><path d="M644.137,34.132a59.936,59.936,0,1,0,59.938,59.934A59.937,59.937,0,0,0,644.137,34.132Z" transform="translate(-584.2 -34.132)" fill="#f5f5f5"/></g><g transform="translate(613.914 63.839)"><line x1="5.873" y1="2.575" transform="translate(45.775 59.718)" fill="none" stroke="#0a88a5" stroke-miterlimit="10" stroke-width="2"/><line x2="5.334" y2="2.339" transform="translate(52.334 46.221)" fill="none" stroke="#0a88a5" stroke-miterlimit="10" stroke-width="2"/><rect width="20.449" height="9.07" transform="matrix(0.401, -0.916, 0.916, 0.401, 50.556, 64.793)" fill="none" stroke="#0a88a5" stroke-miterlimit="10" stroke-width="2"/><line x1="5.873" y2="2.575" transform="translate(15.422 59.718)" fill="none" stroke="#0a88a5" stroke-miterlimit="10" stroke-width="2"/><line x1="5.334" y2="2.338" transform="translate(9.401 46.223)" fill="none" stroke="#0a88a5" stroke-miterlimit="10" stroke-width="2"/><rect width="9.07" height="20.449" transform="matrix(0.916, -0.401, 0.401, 0.916, 0, 49.701)" fill="none" stroke="#0a88a5" stroke-miterlimit="10" stroke-width="2"/><path d="M628.839,90.584A44.1,44.1,0,0,0,639.36,72.107" transform="translate(-582.437 -36.565)" fill="none" stroke="#0a88a5" stroke-miterlimit="10" stroke-width="2"/><path d="M606.609,72.107a44.109,44.109,0,0,0,10.52,18.477" transform="translate(-596.463 -36.565)" fill="none" stroke="#0a88a5" stroke-miterlimit="10" stroke-width="2"/><path d="M624.293,51.151h2.725c8.977,0,16.266,7.833,16.355,17.536" transform="translate(-585.305 -49.788)" fill="none" stroke="#0a88a5" stroke-miterlimit="10" stroke-width="2"/><g transform="translate(32.218)"><path d="M621.458,53.04a1.363,1.363,0,0,0,0-2.725,1.363,1.363,0,0,0,0,2.725Z" transform="translate(-620.142 -50.315)" fill="none" stroke="#0a88a5" stroke-miterlimit="10" stroke-width="2"/></g><path d="M605.906,68.687c.09-9.7,7.378-17.536,16.355-17.536h2.727" transform="translate(-596.906 -49.788)" fill="none" stroke="#0a88a5" stroke-miterlimit="10" stroke-width="2"/><path d="M616.675,72.162" transform="translate(-590.112 -36.531)" fill="none" stroke="#0a88a5" stroke-miterlimit="10" stroke-width="2"/><circle cx="12.95" cy="12.95" r="12.95" transform="translate(20.584 42.531)" fill="none" stroke="#0a88a5" stroke-miterlimit="10" stroke-width="2"/><line y2="2.726" transform="translate(33.535 47.984)" fill="none" stroke="#0a88a5" stroke-miterlimit="10" stroke-width="2"/><line x2="2.593" y2="0.842" transform="translate(26.404 53.165)" fill="none" stroke="#0a88a5" stroke-miterlimit="10" stroke-width="2"/><line y1="2.206" x2="1.603" transform="translate(29.128 59.341)" fill="none" stroke="#0a88a5" stroke-miterlimit="10" stroke-width="2"/><line x1="1.602" y1="2.206" transform="translate(36.339 59.341)" fill="none" stroke="#0a88a5" stroke-miterlimit="10" stroke-width="2"/><line x1="2.593" y2="0.842" transform="translate(38.072 53.165)" fill="none" stroke="#0a88a5" stroke-miterlimit="10" stroke-width="2"/><circle cx="12.269" cy="12.269" r="12.269" transform="translate(6.271 14.333)" fill="none" stroke="#0a88a5" stroke-miterlimit="10" stroke-width="2"/><circle cx="6.816" cy="6.816" r="6.816" transform="translate(11.724 19.786)" fill="none" stroke="#0a88a5" stroke-miterlimit="10" stroke-width="2"/><circle cx="12.269" cy="12.269" r="12.269" transform="translate(36.261 14.333)" fill="none" stroke="#0a88a5" stroke-miterlimit="10" stroke-width="2"/><circle cx="6.816" cy="6.816" r="6.816" transform="translate(41.714 19.786)" fill="none" stroke="#0a88a5" stroke-miterlimit="10" stroke-width="2"/></g></g></g></svg>