<svg xmlns="http://www.w3.org/2000/svg" width="67.375" height="77" viewBox="0 0 67.375 77">
  <g id="pdf" transform="translate(-32)">
    <path id="Trazado_735256" data-name="Trazado 735256" d="M100.813,0A4.827,4.827,0,0,0,96,4.813V72.188A4.827,4.827,0,0,0,100.813,77h48.125a4.827,4.827,0,0,0,4.813-4.813V19.25L134.5,0Z" transform="translate(-54.375)" fill="#fff"/>
    <path id="Trazado_735257" data-name="Trazado 735257" d="M356.813,19.25H371.25L352,0V14.438A4.827,4.827,0,0,0,356.813,19.25Z" transform="translate(-271.875)" fill="#b0b7bd"/>
    <path id="Trazado_735258" data-name="Trazado 735258" d="M398.438,142.438,384,128h14.438Z" transform="translate(-299.062 -108.75)" fill="#cad1d8"/>
    <path id="Trazado_735259" data-name="Trazado 735259" d="M89.75,266.469a2.413,2.413,0,0,1-2.406,2.406H34.406A2.413,2.413,0,0,1,32,266.469V242.406A2.413,2.413,0,0,1,34.406,240H87.344a2.413,2.413,0,0,1,2.406,2.406Z" transform="translate(0 -203.906)" fill="#f15642"/>
    <g id="Grupo_972233" data-name="Grupo 972233" transform="translate(42.489 44.263)">
      <path id="Trazado_735260" data-name="Trazado 735260" d="M101.744,295.648a1.324,1.324,0,0,1,1.307-1.328h4.444a4.81,4.81,0,0,1,0,9.62h-3.212v2.541a1.208,1.208,0,0,1-1.232,1.326,1.3,1.3,0,0,1-1.307-1.326Zm2.539,1.095v4.793h3.212a2.4,2.4,0,0,0,0-4.793Z" transform="translate(-101.744 -294.32)" fill="#fff"/>
      <path id="Trazado_735261" data-name="Trazado 735261" d="M189.152,308.786a1.2,1.2,0,0,1-1.328-1.191V296.665a1.309,1.309,0,0,1,1.328-1.194h4.406c8.793,0,8.6,13.314.173,13.314Zm1.213-10.965v8.619h3.193c5.2,0,5.426-8.619,0-8.619Z" transform="translate(-174.878 -295.299)" fill="#fff"/>
      <path id="Trazado_735262" data-name="Trazado 735262" d="M289.653,297.961v3.058h4.906a1.488,1.488,0,0,1,1.386,1.364,1.337,1.337,0,0,1-1.386,1.155h-4.906v4.04a1.14,1.14,0,0,1-1.153,1.191,1.222,1.222,0,0,1-1.364-1.191V296.649a1.216,1.216,0,0,1,1.364-1.193h6.754a1.2,1.2,0,0,1,1.348,1.193,1.329,1.329,0,0,1-1.348,1.309h-5.6Z" transform="translate(-259.255 -295.285)" fill="#fff"/>
    </g>
    <path id="Trazado_735263" data-name="Trazado 735263" d="M141.719,418.406H96v2.406h45.719a2.413,2.413,0,0,0,2.406-2.406V416A2.413,2.413,0,0,1,141.719,418.406Z" transform="translate(-54.375 -353.437)" fill="#cad1d8"/>
  </g>
</svg>
