<svg xmlns="http://www.w3.org/2000/svg" width="801" height="401" viewBox="0 0 801 401"><g transform="translate(-401 -26755)"><text transform="translate(434 26755)" fill="#12263f" font-size="16" font-family="Roboto-Bold, Roboto" font-weight="700"><tspan x="10.875" y="17">Sólidos en </tspan><tspan x="7.25" y="37">suspensión</tspan></text><text transform="translate(752 26815)" fill="#12263f" font-size="16" font-family="Roboto-Regular, Roboto"><tspan x="5.434" y="17">desnitrificación </tspan><tspan x="12.375" y="37">Volatilización</tspan></text><text transform="translate(580 26761)" fill="#12263f" font-size="16" font-family="Roboto-Regular, Roboto"><tspan x="21.313" y="17">Materia</tspan><tspan x="17.496" y="37">orgánica</tspan></text><text transform="translate(580 26761)" fill="#12263f" font-size="16" font-family="Roboto-Bold, Roboto" font-weight="700"><tspan x="20.848" y="17">Materia</tspan><tspan x="17.141" y="37">orgánica</tspan></text><text transform="translate(752 26761)" fill="#12263f" font-size="16" font-family="Roboto-Bold, Roboto" font-weight="700"><tspan x="12.832" y="17">Nitrogeno</tspan></text><text transform="translate(949 26761)" fill="#12263f" font-size="16" font-family="Roboto-Bold, Roboto" font-weight="700"><tspan x="20.789" y="17">Fósforo</tspan></text><text transform="translate(1105 26755)" fill="#12263f" font-size="16" font-family="Roboto-Bold, Roboto" font-weight="700"><tspan x="13.973" y="17">Patógenó</tspan></text><text transform="translate(1105 27022)" fill="#12263f" font-size="16" font-family="Roboto-Regular, Roboto"><tspan x="15.574" y="17">Filtración</tspan><tspan x="12.367" y="37">Absorción</tspan><tspan x="12.539" y="57">Predación</tspan></text><text transform="translate(962 27045)" fill="#12263f" font-size="16" font-family="Roboto-Regular, Roboto"><tspan x="12.367" y="17">Absorción</tspan><tspan x="12.539" y="37">Predación</tspan></text><text transform="translate(764 27079)" fill="#12263f" font-size="16" font-family="Roboto-Regular, Roboto"><tspan x="6.563" y="17">Lixividación</tspan><tspan x="20.117" y="37">Nitratos</tspan></text><text transform="translate(566 27045)" fill="#12263f" font-size="16" font-family="Roboto-Regular, Roboto"><tspan x="3.656" y="17">Degradación</tspan><tspan x="21.07" y="37">Aerobia</tspan></text><text transform="translate(566 27112)" fill="#12263f" font-size="16" font-family="Roboto-Regular, Roboto"><tspan x="3.656" y="17">Degradación</tspan><tspan x="12.305" y="37">Anaerobia</tspan></text><text transform="translate(609 26887)" fill="#12263f" font-size="16" font-family="Roboto-Regular, Roboto"><tspan x="-29.145" y="0">Oxígeno</tspan></text><text transform="translate(832 27033)" fill="#12263f" font-size="16" font-family="Roboto-Regular, Roboto"><tspan x="-36.133" y="0">Absorción</tspan></text><text transform="translate(1010 27029)" fill="#12263f" font-size="16" font-family="Roboto-Regular, Roboto"><tspan x="-36.133" y="0">Absorción</tspan></text><text transform="translate(483 27108)" fill="#12263f" font-size="16" font-family="Roboto-Regular, Roboto"><tspan x="-32.926" y="0">Filtración</tspan></text><rect width="792" height="11" transform="translate(401 26953)" fill="#f51818"/><path d="M-6724,15061v355" transform="translate(7261 11700)" fill="none" stroke="#12263f" stroke-width="7" stroke-dasharray="10"/><path d="M-6724,15061v355" transform="translate(7409 11700)" fill="none" stroke="#12263f" stroke-width="7" stroke-dasharray="10"/><path d="M-6724,15061v355" transform="translate(7608 11700)" fill="none" stroke="#12263f" stroke-width="7" stroke-dasharray="10"/><path d="M-6724,15061v355" transform="translate(7808 11700)" fill="none" stroke="#12263f" stroke-width="7" stroke-dasharray="10"/><path d="M-6786,15126.667V15360" transform="translate(7261 11700)" fill="none" stroke="#12263f" stroke-width="2"/><path d="M18.372.146,1.188,8.077a2,2,0,0,0,.793,3.833h7.27v7.27a2,2,0,0,0,3.833.793L21.016,2.789A2.062,2.062,0,0,0,18.372.146Z" transform="translate(490.395 27053.037) rotate(133)" fill="#12263f"/><path d="M-6786,15126.667v202.38h12.236" transform="translate(7337.514 11678)" fill="none" stroke="#12263f" stroke-width="2"/><path d="M18.372.146,1.188,8.077a2,2,0,0,0,.793,3.833h7.27v7.27a2,2,0,0,0,3.833.793L21.016,2.789A2.062,2.062,0,0,0,18.372.146Z" transform="translate(562.171 26992.104) rotate(42)" fill="#12263f"/><g transform="translate(244.514)"><path d="M-6786,15126.667v177.984" transform="translate(7261 11700.001)" fill="none" stroke="#12263f" stroke-width="2"/><path d="M18.372.145,1.188,8.077a2,2,0,0,0,.793,3.833h7.27v7.27a2,2,0,0,0,3.833.793L21.016,2.789A2.062,2.062,0,0,0,18.372.145Z" transform="translate(490.394 26997.689) rotate(133)" fill="#12263f"/></g><g transform="translate(257.606 184.998)"><path d="M-6786,15126.668v102.818" transform="translate(7261 11699.999)" fill="none" stroke="#12263f" stroke-width="2"/><path d="M18.372.145,1.188,8.077a2,2,0,0,0,.793,3.833h7.27v7.27a2,2,0,0,0,3.833.793L21.016,2.789A2.062,2.062,0,0,0,18.372.145Z" transform="translate(490.394 26922.525) rotate(133)" fill="#12263f"/></g><g transform="translate(139.514 91.998)"><path d="M-6786,15126.668v66.152" transform="translate(7261 11699.999)" fill="none" stroke="#12263f" stroke-width="2"/><path d="M18.372.145,1.188,8.077a2,2,0,0,0,.793,3.833h7.27v7.27a2,2,0,0,0,3.833.793L21.016,2.789A2.062,2.062,0,0,0,18.372.145Z" transform="translate(490.394 26885.857) rotate(133)" fill="#12263f"/></g><g transform="translate(454.514 184.998)"><path d="M-6786,15126.668v68.818" transform="translate(7261 11699.999)" fill="none" stroke="#12263f" stroke-width="2"/><path d="M18.372.145,1.188,8.077a2,2,0,0,0,.793,3.833h7.27v7.27a2,2,0,0,0,3.833.793L21.016,2.789A2.062,2.062,0,0,0,18.372.145Z" transform="translate(490.394 26888.525) rotate(133)" fill="#12263f"/></g><g transform="translate(439.514)"><path d="M-6786,15126.667v178.818" transform="translate(7261 11700)" fill="none" stroke="#12263f" stroke-width="2"/><path d="M18.372.145,1.188,8.077a2,2,0,0,0,.793,3.833h7.27v7.27a2,2,0,0,0,3.833.793L21.016,2.789A2.062,2.062,0,0,0,18.372.145Z" transform="translate(490.394 26998.523) rotate(133)" fill="#12263f"/></g><g transform="translate(664.514 -22.668)"><path d="M-6786,15126.667v205.484" transform="translate(7261 11700.001)" fill="none" stroke="#12263f" stroke-width="2"/><path d="M18.372.145,1.188,8.077a2,2,0,0,0,.793,3.833h7.27v7.27a2,2,0,0,0,3.833.793L21.016,2.789A2.062,2.062,0,0,0,18.372.145Z" transform="translate(490.394 27025.191) rotate(133)" fill="#12263f"/></g><text transform="translate(633 27018)" fill="#12263f" font-size="16" font-family="Roboto-Regular, Roboto"><tspan x="-33.496" y="0">Bacterias</tspan></text><g transform="translate(749.046 26861)"><path d="M-6786,15270.318v-143.65" transform="translate(6800.514 -15118.151)" fill="none" stroke="#12263f" stroke-width="2"/><path d="M18.372,21.016,1.188,13.084a2,2,0,0,1,.793-3.833h7.27V1.981a2,2,0,0,1,3.833-.793l7.931,17.184a2.062,2.062,0,0,1-2.644,2.644Z" transform="translate(14.432 29.908) rotate(-133)" fill="#12263f"/></g><g transform="translate(826 26975.666)"><path d="M-6786,15155.652v-28.984" transform="translate(6800.514 -15118.151)" fill="none" stroke="#12263f" stroke-width="2"/><path d="M18.372,21.016,1.188,13.084a2,2,0,0,1,.793-3.833h7.27V1.981a2,2,0,0,1,3.833-.793l7.931,17.184a2.062,2.062,0,0,1-2.644,2.644Z" transform="translate(14.432 29.908) rotate(-133)" fill="#12263f"/></g><g transform="translate(990.092 26975.666)"><path d="M-6786,15155.652v-28.984" transform="translate(6800.514 -15118.151)" fill="none" stroke="#12263f" stroke-width="2"/><path d="M18.372,21.016,1.188,13.084a2,2,0,0,1,.793-3.833h7.27V1.981a2,2,0,0,1,3.833-.793l7.931,17.184a2.062,2.062,0,0,1-2.644,2.644Z" transform="translate(14.432 29.908) rotate(-133)" fill="#12263f"/></g><path d="M-6541.046,15314.167H-6420" transform="translate(7261 11698)" fill="none" stroke="#12263f" stroke-width="3"/><path d="M-6541.046,15314.167H-6451" transform="translate(7456.046 11698)" fill="none" stroke="#12263f" stroke-width="3"/><text transform="translate(718 26810)" fill="#12263f" font-size="16" font-family="Roboto-Regular, Roboto"><tspan x="-5.703" y="0">N</tspan></text><text transform="translate(917 26810)" fill="#12263f" font-size="16" font-family="Roboto-Regular, Roboto"><tspan x="-5.047" y="0">P</tspan></text><g transform="translate(784.031 26883.166)"><path d="M85.606,34.748a9.868,9.868,0,0,0-6.027-9.09A8.8,8.8,0,0,0,67.9,13.714a8.8,8.8,0,0,0-16.945,0A8.8,8.8,0,0,0,39.282,25.658,9.863,9.863,0,0,0,42.669,44.6c.73,2.645,3.551,4.617,6.921,4.617a7.839,7.839,0,0,0,4.92-1.665,8.1,8.1,0,0,0,9.84,0,7.839,7.839,0,0,0,4.92,1.665c3.371,0,6.191-1.972,6.921-4.617A9.861,9.861,0,0,0,85.606,34.748Z" transform="translate(-6.431 -6.431)" fill="#129b12"/><g transform="translate(51.239 0.856)"><path d="M242.249,7.3c-.108.006-.216.014-.323.025l-.1.01c-.115.012-.23.027-.344.044l-.064.01c-.135.021-.27.045-.4.072h0a9.7,9.7,0,0,1,5.842,4.106,4.872,4.872,0,0,0,4.357,2.146l.035,0a8.8,8.8,0,0,0-8.472-6.427c-.141,0-.282,0-.422.011Z" transform="translate(-241.016 -7.287)" fill="#097c09"/><path d="M336.819,67.237a8.8,8.8,0,0,0-9.578-12.657A8.8,8.8,0,0,1,333.3,67.237a9.863,9.863,0,0,1-3.387,18.939,6.613,6.613,0,0,1-5.16,4.432,8.388,8.388,0,0,0,1.761.186c3.37,0,6.191-1.972,6.921-4.617a9.863,9.863,0,0,0,3.387-18.939Z" transform="translate(-314.91 -48.866)" fill="#097c09"/></g><path d="M162.581,335.633c-.793,1.346-4.082,2.851-5.3,2.936.134.029.27.054.407.076l.033.006q.209.033.421.056h.011c.128.014.256.023.386.031l.095.005c.135.006.271.011.408.011h0a7.918,7.918,0,0,0,4.571-1.4l.217-.158-1.1-1.811Z" transform="translate(-115.881 -295.972)" fill="#009000"/><path d="M190.952,263.75l3.769-5.948a1.127,1.127,0,0,0-.212-1.454h0a1.127,1.127,0,0,0-1.542.058l-2.776,2.81a.546.546,0,0,1-.929-.456l.816-6.048a1.127,1.127,0,0,0-1.041-1.275l-.765-.052a1.127,1.127,0,0,0-1.186.929l-1.457,8.279a.546.546,0,0,1-.961.25l-4.564-5.612a1.127,1.127,0,0,0-1.311-.328l-.8.336a1.127,1.127,0,0,0-.53,1.619l4.69,7.817a5.863,5.863,0,0,1,.789,3.769c-.608,4.687-1.363,9.108-4.452,12.709h16.121c-3.307-3.855-4.123-8.649-4.561-13.7A5.947,5.947,0,0,1,190.952,263.75Z" transform="translate(-133.553 -221.842)" fill="#bf6101"/><path d="M265,258.254a1.127,1.127,0,0,0-.212-1.454h0a1.127,1.127,0,0,0-1.542.058l-1.24,1.255h0l-1.536,1.555a.546.546,0,0,1-.929-.456l.816-6.048a1.126,1.126,0,0,0-.993-1.269l-2.3,14.267q-.058.276-.09.558h0a5.973,5.973,0,0,0-.015,1.181c.438,5.055,1.254,9.849,4.561,13.7h3.367c-3.307-3.855-4.123-8.649-4.561-13.7a5.949,5.949,0,0,1,.9-3.7Z" transform="translate(-203.834 -222.294)" fill="#9a4d01"/><path d="M95.034,66.065a6.108,6.108,0,0,0-5.556,3.572,6.107,6.107,0,0,0-8.809,8.045A6.108,6.108,0,0,0,81.6,89.826c3.373,0,19.537-14.28,19.537-17.654A6.108,6.108,0,0,0,95.034,66.065Z" transform="translate(-43.709 -58.302)" fill="#28a528"/><path d="M74.281,18.815a9.541,9.541,0,0,0,.7-3.624c0-.255-.01-.513-.03-.767a.856.856,0,0,0-1.707.134c.016.209.025.422.025.632a7.852,7.852,0,0,1-.885,3.642.856.856,0,0,0,.427,1.182,9.007,9.007,0,0,1-3.092,17.295.856.856,0,0,0-.787.628c-.638,2.311-3.2,3.989-6.1,3.989a7.131,7.131,0,0,1-3.777-1.045l2.829-4.464a1.983,1.983,0,0,0-3.086-2.455l-2.123,2.149.692-5.127a1.984,1.984,0,0,0-1.832-2.244l-.765-.052a1.979,1.979,0,0,0-2.087,1.635l-.67,3.8-.67,3.8-4.134-5.084a1.961,1.961,0,0,0-.477-.422l0,0-.059-.034a2.008,2.008,0,0,0-.83-.265h-.028c-.043,0-.086-.006-.129-.006a1.964,1.964,0,0,0-.781.153l-.8.336a1.983,1.983,0,0,0-.932,2.849L46.563,41.1a7.259,7.259,0,0,1-3.4.831c-2.894,0-5.458-1.678-6.1-3.989a.856.856,0,0,0-.787-.628,9.007,9.007,0,0,1-3.092-17.3.856.856,0,0,0,.427-1.182,7.852,7.852,0,0,1-.885-3.642A7.951,7.951,0,0,1,40.669,7.25a7.864,7.864,0,0,1,3.483.8.856.856,0,0,0,1.2-.539,7.941,7.941,0,0,1,15.3,0,.856.856,0,0,0,1.2.539,7.947,7.947,0,0,1,10.481,3.38.856.856,0,1,0,1.508-.812A9.665,9.665,0,0,0,61.989,6.132a9.654,9.654,0,0,0-17.978,0,9.568,9.568,0,0,0-3.343-.595,9.665,9.665,0,0,0-9.655,9.654,9.54,9.54,0,0,0,.7,3.624,10.72,10.72,0,0,0,3.887,20.164,7.92,7.92,0,0,0,7.553,4.661,8.973,8.973,0,0,0,4.284-1.074l.424.707a5.027,5.027,0,0,1,.675,3.219c-.125.96-.278,2.091-.472,3.2a.856.856,0,1,0,1.687.3c.2-1.14.357-2.295.484-3.274a6.746,6.746,0,0,0-.9-4.32l-4.69-7.817a.271.271,0,0,1,.127-.389l.8-.336a.272.272,0,0,1,.315.079l4.564,5.612.037.043a1.382,1.382,0,0,0,1.394.431l.009,0h0a1.4,1.4,0,0,0,.659-.383l.021-.021.018-.021a1.4,1.4,0,0,0,.331-.689l1.457-8.279a.273.273,0,0,1,.285-.223l.765.052a.271.271,0,0,1,.25.307L54.861,36.8a1.4,1.4,0,0,0,.771,1.446q.051.025.1.045a1.4,1.4,0,0,0,1.513-.319l2.776-2.81a.269.269,0,0,1,.174-.079h.013a.27.27,0,0,1,.235.415L56.676,41.45a6.844,6.844,0,0,0-1.029,4.23c.359,4.142.98,8.813,3.681,12.774H46.666a17.911,17.911,0,0,0,2.279-4.941.856.856,0,1,0-1.641-.491,15.339,15.339,0,0,1-3.015,5.73.856.856,0,0,0,.65,1.414H61.06a.856.856,0,0,0,.65-1.414c-3.3-3.843-3.978-8.839-4.358-13.221a5.122,5.122,0,0,1,.77-3.166l.024-.038A8.849,8.849,0,0,0,62.84,43.64a7.92,7.92,0,0,0,7.553-4.661,10.72,10.72,0,0,0,3.887-20.164Z" fill="#121419"/></g><g transform="translate(948.032 26883.166)"><path d="M85.606,34.748a9.868,9.868,0,0,0-6.027-9.09A8.8,8.8,0,0,0,67.9,13.714a8.8,8.8,0,0,0-16.945,0A8.8,8.8,0,0,0,39.282,25.658,9.863,9.863,0,0,0,42.669,44.6c.73,2.645,3.551,4.617,6.921,4.617a7.839,7.839,0,0,0,4.92-1.665,8.1,8.1,0,0,0,9.84,0,7.839,7.839,0,0,0,4.92,1.665c3.371,0,6.191-1.972,6.921-4.617A9.861,9.861,0,0,0,85.606,34.748Z" transform="translate(-6.431 -6.431)" fill="#129b12"/><g transform="translate(51.239 0.856)"><path d="M242.249,7.3c-.108.006-.216.014-.323.025l-.1.01c-.115.012-.23.027-.344.044l-.064.01c-.135.021-.27.045-.4.072h0a9.7,9.7,0,0,1,5.842,4.106,4.872,4.872,0,0,0,4.357,2.146l.035,0a8.8,8.8,0,0,0-8.472-6.427c-.141,0-.282,0-.422.011Z" transform="translate(-241.016 -7.287)" fill="#097c09"/><path d="M336.819,67.237a8.8,8.8,0,0,0-9.578-12.657A8.8,8.8,0,0,1,333.3,67.237a9.863,9.863,0,0,1-3.387,18.939,6.613,6.613,0,0,1-5.16,4.432,8.388,8.388,0,0,0,1.761.186c3.37,0,6.191-1.972,6.921-4.617a9.863,9.863,0,0,0,3.387-18.939Z" transform="translate(-314.91 -48.866)" fill="#097c09"/></g><path d="M162.581,335.633c-.793,1.346-4.082,2.851-5.3,2.936.134.029.27.054.407.076l.033.006q.209.033.421.056h.011c.128.014.256.023.386.031l.095.005c.135.006.271.011.408.011h0a7.918,7.918,0,0,0,4.571-1.4l.217-.158-1.1-1.811Z" transform="translate(-115.881 -295.972)" fill="#009000"/><path d="M190.952,263.75l3.769-5.948a1.127,1.127,0,0,0-.212-1.454h0a1.127,1.127,0,0,0-1.542.058l-2.776,2.81a.546.546,0,0,1-.929-.456l.816-6.048a1.127,1.127,0,0,0-1.041-1.275l-.765-.052a1.127,1.127,0,0,0-1.186.929l-1.457,8.279a.546.546,0,0,1-.961.25l-4.564-5.612a1.127,1.127,0,0,0-1.311-.328l-.8.336a1.127,1.127,0,0,0-.53,1.619l4.69,7.817a5.863,5.863,0,0,1,.789,3.769c-.608,4.687-1.363,9.108-4.452,12.709h16.121c-3.307-3.855-4.123-8.649-4.561-13.7A5.947,5.947,0,0,1,190.952,263.75Z" transform="translate(-133.553 -221.842)" fill="#bf6101"/><path d="M265,258.254a1.127,1.127,0,0,0-.212-1.454h0a1.127,1.127,0,0,0-1.542.058l-1.24,1.255h0l-1.536,1.555a.546.546,0,0,1-.929-.456l.816-6.048a1.126,1.126,0,0,0-.993-1.269l-2.3,14.267q-.058.276-.09.558h0a5.973,5.973,0,0,0-.015,1.181c.438,5.055,1.254,9.849,4.561,13.7h3.367c-3.307-3.855-4.123-8.649-4.561-13.7a5.949,5.949,0,0,1,.9-3.7Z" transform="translate(-203.834 -222.294)" fill="#9a4d01"/><path d="M95.034,66.065a6.108,6.108,0,0,0-5.556,3.572,6.107,6.107,0,0,0-8.809,8.045A6.108,6.108,0,0,0,81.6,89.826c3.373,0,19.537-14.28,19.537-17.654A6.108,6.108,0,0,0,95.034,66.065Z" transform="translate(-43.709 -58.302)" fill="#28a528"/><path d="M74.281,18.815a9.541,9.541,0,0,0,.7-3.624c0-.255-.01-.513-.03-.767a.856.856,0,0,0-1.707.134c.016.209.025.422.025.632a7.852,7.852,0,0,1-.885,3.642.856.856,0,0,0,.427,1.182,9.007,9.007,0,0,1-3.092,17.295.856.856,0,0,0-.787.628c-.638,2.311-3.2,3.989-6.1,3.989a7.131,7.131,0,0,1-3.777-1.045l2.829-4.464a1.983,1.983,0,0,0-3.086-2.455l-2.123,2.149.692-5.127a1.984,1.984,0,0,0-1.832-2.244l-.765-.052a1.979,1.979,0,0,0-2.087,1.635l-.67,3.8-.67,3.8-4.134-5.084a1.961,1.961,0,0,0-.477-.422l0,0-.059-.034a2.008,2.008,0,0,0-.83-.265h-.028c-.043,0-.086-.006-.129-.006a1.964,1.964,0,0,0-.781.153l-.8.336a1.983,1.983,0,0,0-.932,2.849L46.563,41.1a7.259,7.259,0,0,1-3.4.831c-2.894,0-5.458-1.678-6.1-3.989a.856.856,0,0,0-.787-.628,9.007,9.007,0,0,1-3.092-17.3.856.856,0,0,0,.427-1.182,7.852,7.852,0,0,1-.885-3.642A7.951,7.951,0,0,1,40.669,7.25a7.864,7.864,0,0,1,3.483.8.856.856,0,0,0,1.2-.539,7.941,7.941,0,0,1,15.3,0,.856.856,0,0,0,1.2.539,7.947,7.947,0,0,1,10.481,3.38.856.856,0,1,0,1.508-.812A9.665,9.665,0,0,0,61.989,6.132a9.654,9.654,0,0,0-17.978,0,9.568,9.568,0,0,0-3.343-.595,9.665,9.665,0,0,0-9.655,9.654,9.54,9.54,0,0,0,.7,3.624,10.72,10.72,0,0,0,3.887,20.164,7.92,7.92,0,0,0,7.553,4.661,8.973,8.973,0,0,0,4.284-1.074l.424.707a5.027,5.027,0,0,1,.675,3.219c-.125.96-.278,2.091-.472,3.2a.856.856,0,1,0,1.687.3c.2-1.14.357-2.295.484-3.274a6.746,6.746,0,0,0-.9-4.32l-4.69-7.817a.271.271,0,0,1,.127-.389l.8-.336a.272.272,0,0,1,.315.079l4.564,5.612.037.043a1.382,1.382,0,0,0,1.394.431l.009,0h0a1.4,1.4,0,0,0,.659-.383l.021-.021.018-.021a1.4,1.4,0,0,0,.331-.689l1.457-8.279a.273.273,0,0,1,.285-.223l.765.052a.271.271,0,0,1,.25.307L54.861,36.8a1.4,1.4,0,0,0,.771,1.446q.051.025.1.045a1.4,1.4,0,0,0,1.513-.319l2.776-2.81a.269.269,0,0,1,.174-.079h.013a.27.27,0,0,1,.235.415L56.676,41.45a6.844,6.844,0,0,0-1.029,4.23c.359,4.142.98,8.813,3.681,12.774H46.666a17.911,17.911,0,0,0,2.279-4.941.856.856,0,1,0-1.641-.491,15.339,15.339,0,0,1-3.015,5.73.856.856,0,0,0,.65,1.414H61.06a.856.856,0,0,0,.65-1.414c-3.3-3.843-3.978-8.839-4.358-13.221a5.122,5.122,0,0,1,.77-3.166l.024-.038A8.849,8.849,0,0,0,62.84,43.64a7.92,7.92,0,0,0,7.553-4.661,10.72,10.72,0,0,0,3.887-20.164Z" fill="#121419"/></g></g></svg>