<svg xmlns="http://www.w3.org/2000/svg" xmlns:xlink="http://www.w3.org/1999/xlink" width="1320" height="506.835" viewBox="0 0 1320 506.835"><defs><clipPath id="a"><path d="M20.787,0H1299.213C1310.693,0,1320,8.4,1320,18.772V488.063c0,10.367-9.307,18.772-20.787,18.772H20.787C9.307,506.835,0,498.431,0,488.063V18.772C0,8.4,9.307,0,20.787,0Z" transform="translate(140.333 69.582)" fill="#80cab6" style="mix-blend-mode:multiply;isolation:isolate"/></clipPath><clipPath id="b"><rect width="1398" height="561" transform="translate(0 0)" fill="none"/></clipPath><clipPath id="c"><rect width="247.81" height="197.72" fill="none"/></clipPath><clipPath id="e"><rect width="30.344" height="92.743" transform="translate(84.291 44.92)" fill="none"/></clipPath><clipPath id="f"><rect width="93.61" height="69.504" transform="translate(82.871 43.704)" fill="none"/></clipPath><clipPath id="g"><path d="M76.654,232.674A144.818,144.818,0,1,0,221.471,87.857,144.82,144.82,0,0,0,76.654,232.674" transform="translate(-76.654 -87.857)" fill="none"/></clipPath><clipPath id="h"><rect width="269.722" height="284.073" fill="none"/></clipPath><clipPath id="i"><rect width="149.974" height="130.965" fill="none"/></clipPath><clipPath id="j"><path d="M106.03,99.843a5.375,5.375,0,0,0-4.811,4.259L97.8,120.135c-.508,2.354.846,4.273,3,4.273h36.165c2.149,0,3.5-1.92,3-4.273L136.536,104.1a5.346,5.346,0,0,0-4.807-4.259Z" transform="translate(-97.697 -99.843)" fill="none"/></clipPath><clipPath id="k"><path d="M141.96,153.538c-2.936,0-5.906,2.634-6.59,5.837l-4.684,21.981c-.693,3.229,1.158,5.861,4.1,5.861h49.59c2.945,0,4.8-2.632,4.1-5.861l-4.689-21.981c-.669-3.2-3.65-5.837-6.595-5.837Z" transform="translate(-130.54 -153.538)" fill="none"/></clipPath></defs><g transform="translate(12479.333 12436.418)"><g transform="translate(-12619.666 -12506)" clip-path="url(#a)"><g transform="translate(102.091 45.762)"><path d="M0,0H1398V561H0Z" transform="translate(-0.425 -0.201)" fill="#0540b7"/><g transform="translate(-0.425 -0.201)"><g clip-path="url(#b)"><path d="M125.964,290.788a1.621,1.621,0,1,0-1.619,1.709,1.665,1.665,0,0,0,1.619-1.709" transform="translate(86.805 230.584)" fill="#fff"/><path d="M77.131,184.011a2.432,2.432,0,1,0-2.426,2.564,2.5,2.5,0,0,0,2.426-2.564" transform="translate(51.295 144.809)" fill="#fff"/><path d="M340.861,212.167a1.621,1.621,0,1,0-1.619,1.709,1.664,1.664,0,0,0,1.619-1.709" transform="translate(238.059 167.93)" fill="#fff"/><path d="M90.031,258.68a3.96,3.96,0,1,0-3.955,4.174,4.068,4.068,0,0,0,3.955-4.174" transform="translate(58.226 203.032)" fill="#fff"/><path d="M421.316,151.4a2.432,2.432,0,1,0-2.426,2.564,2.5,2.5,0,0,0,2.426-2.564" transform="translate(293.547 118.819)" fill="#fff"/><path d="M137.979,206.557a1.621,1.621,0,1,0-1.619,1.709,1.664,1.664,0,0,0,1.619-1.709" transform="translate(95.262 163.459)" fill="#fff"/><path d="M635.544,26.389a1.621,1.621,0,1,0-1.619,1.709,1.664,1.664,0,0,0,1.619-1.709" transform="translate(445.469 19.88)" fill="#fff"/><path d="M690.051,109.2a2.432,2.432,0,1,0-2.426,2.564,2.5,2.5,0,0,0,2.426-2.564" transform="translate(482.694 85.194)" fill="#fff"/><path d="M554.357,107.4a2.432,2.432,0,1,0-2.426,2.564,2.5,2.5,0,0,0,2.426-2.564" transform="translate(387.187 83.756)" fill="#fff"/><path d="M411.911,90.45a1.621,1.621,0,1,0-1.619,1.709,1.665,1.665,0,0,0,1.619-1.709" transform="translate(288.067 70.931)" fill="#fff"/><path d="M308.033,281.684a1.621,1.621,0,1,0-1.619,1.709,1.664,1.664,0,0,0,1.619-1.709" transform="translate(214.953 223.329)" fill="#fff"/><path d="M498.685,50.849a1.621,1.621,0,1,0-1.619,1.709,1.664,1.664,0,0,0,1.619-1.709" transform="translate(349.142 39.372)" fill="#fff"/><path d="M243.108,43.658a2.432,2.432,0,1,0-2.426,2.564,2.5,2.5,0,0,0,2.426-2.564" transform="translate(168.117 32.959)" fill="#fff"/><path d="M359.865,48.733a1.621,1.621,0,1,0-1.619,1.709,1.664,1.664,0,0,0,1.619-1.709" transform="translate(251.435 37.686)" fill="#fff"/><path d="M133.759,157.812a3.7,3.7,0,1,0-3.692,3.9,3.8,3.8,0,0,0,3.692-3.9" transform="translate(89.373 122.868)" fill="#fff"/></g></g></g><g transform="translate(70.666 35.436)"><g clip-path="url(#c)"><g clip-path="url(#c)"><path d="M38.013,190.536c8.216.558,16.013,3.681,24.053,5.461a74.415,74.415,0,0,0,86.171-47.639c3.462-9.7,5.025-20.349,11.066-28.69,7.94-10.962,21.736-15.541,33.976-21.322,16.5-7.793,31.7-19.05,41.964-34.133s15.21-34.239,11.145-52.026c-36.6,1.2-72.818-6.605-109.27-10.056C91.793-2.16,45.983.3.965,7.1,0,35.9-.967,64.812,1.945,93.486c2.251,22.163,6.8,44.018,9.16,66.166.6,5.62,1.073,11.257,1.315,16.9.15,3.495-1.266,10.829,1.224,13.69,4.547,5.224,18.4-.116,24.369.29" fill="#80cab6"/><path d="M109.876,46.76A77.87,77.87,0,0,0,128.37,57.885a20.3,20.3,0,0,1,4.448-6.728c3.224-2.925,6.268-3.551,7.915-1.561,1.4,2.168-.122,4.879-3.894,7.053a18.369,18.369,0,0,1-6.472,2.046,78.553,78.553,0,0,0,10.246,3.265,20.248,20.248,0,0,1,3.571-7.657c2.787-3.354,5.714-4.39,7.614-2.643,1.68,1.957.555,4.847-2.879,7.526a19.449,19.449,0,0,1-6.846,3.114c1.4.323,2.8.608,4.223.851,2.559.435,5.152.748,7.751.951a20.4,20.4,0,0,1,2.665-8.055c2.377-3.647,5.166-5.008,7.257-3.5,1.889,1.75,1.114,4.751-1.983,7.807a19.4,19.4,0,0,1-6.383,3.865,84.514,84.514,0,0,0,10.028.046,20.547,20.547,0,0,1,2.3-8.221c2.214-3.747,4.933-5.239,7.091-3.826,1.979,1.663,1.327,4.7-1.63,7.889a19.084,19.084,0,0,1-5.918,4.031c1.686-.134,3.354-.3,5.025-.524.69-.1,1.424-.208,2.156-.326a20.359,20.359,0,0,1,7.091-4.433c4.156-1.3,7.181-.6,7.831,1.907.348,2.557-2.165,4.376-6.5,4.761a19.967,19.967,0,0,1-8.079-1.311A73.709,73.709,0,0,1,163.213,65.3a19.249,19.249,0,0,1,6.049,3.944c3.022,3.137,3.725,6.164,1.777,7.852-2.131,1.463-4.882.016-7.16-3.691a20.63,20.63,0,0,1-2.453-8.079,89.969,89.969,0,0,1-12.179-.777,20.022,20.022,0,0,1,5.914,5.308c2.425,3.609,2.605,6.714.407,8.049-2.353,1.061-4.822-.82-6.431-4.873a20.741,20.741,0,0,1-1.012-8.641,83.163,83.163,0,0,1-11.56-2.527,20.656,20.656,0,0,1,6.68,5.766c2.441,3.606,2.623,6.71.408,8.041-2.345,1.081-4.811-.82-6.414-4.857a21.165,21.165,0,0,1-.978-9.038c-2.06-.61-4.079-1.31-6.074-2.091-.64-.246-1.274-.515-1.909-.778-.193.009-.316.01-.316.01s.019-.046.05-.118q-2.182-.933-4.3-1.994a17.862,17.862,0,0,1,3.684,4.9c1.874,3.922,1.584,7.015-.8,8.013-2.478.705-4.633-1.528-5.627-5.766A20.47,20.47,0,0,1,121.2,55.5a78.8,78.8,0,0,1-11.924-8.006.474.474,0,0,1,.6-.734" fill="#3a8931"/><path d="M84.288,44.926s.492.287,1.416.832c.8.575,2.239,1.351,3.555,2.439A61.125,61.125,0,0,1,99.274,57.33a63.611,63.611,0,0,1,9.2,13.734,61.379,61.379,0,0,1,5.308,16.615,60.1,60.1,0,0,1,.383,17.429,62.643,62.643,0,0,1-4.27,15.968,67.951,67.951,0,0,1-3.236,6.638c-1.088,1.987-2.347,3.78-3.341,5.238a42.032,42.032,0,0,1-2.594,3.456c-.645.806-1.081,1.253-1.081,1.253s-.55-.277-1.426-.827c-.812-.567-2.252-1.352-3.574-2.437-1.406-1.067-3.181-2.357-4.852-3.889a68.463,68.463,0,0,1-5.2-5.241A62.4,62.4,0,0,1,75.4,111.538,60.412,60.412,0,0,1,70.146,94.9a61.215,61.215,0,0,1-.333-17.439,63.481,63.481,0,0,1,4.281-15.96,61.644,61.644,0,0,1,6.531-11.881c.9-1.452,2.008-2.659,2.585-3.451.7-.817,1.078-1.248,1.078-1.248" fill="#aed144"/><path d="M74.553,83.207q5.9-11.751,11.778-23.488L89.79,80.643c-.1.082-.217.138-.27.247q-6.231,12.429-12.462,24.851c-.4.81.915,1.3,1.312.5Q84.262,94.5,90.142,82.751l3.467,20.928c-.1.081-.224.149-.273.257q-3.6,7.172-7.2,14.345c-.4.814.916,1.3,1.311.5q3.261-6.5,6.513-12.99l4.748,28.683,1.149-.2-4.642-28.064q5.151,4.633,10.31,9.259c.669.616,1.485-.542.806-1.131q-5.736-5.163-11.481-10.321L91.4,83.175q.444.4.9.812c2.234,2.014,4.49,4.025,6.735,6.045,3.4,3.053,6.8,6.118,10.208,9.159.667.621,1.479-.533.813-1.13q-9.516-8.541-19.018-17.088L87.579,60.132c.3.271.6.541.889.81q3.372,3.018,6.738,6.052,5.113,4.579,10.21,9.164c.671.606,1.483-.545.813-1.143q-9.5-8.542-19.016-17.081l-.994-6.026-1.157.194.914,5.5c-.1.076-.224.138-.271.248Q79.466,70.272,73.247,82.7c-.412.809.9,1.3,1.306.506" fill="#246b1a"/><g opacity="0.1"><g clip-path="url(#e)"><path d="M99.649,137.663s.442-.447,1.081-1.247a42.154,42.154,0,0,0,2.6-3.456c.984-1.466,2.249-3.261,3.339-5.247a66.76,66.76,0,0,0,3.23-6.64,62.215,62.215,0,0,0,4.274-15.964,60.4,60.4,0,0,0-.381-17.432,61.785,61.785,0,0,0-5.307-16.619A63.621,63.621,0,0,0,99.28,57.331a61.5,61.5,0,0,0-10.016-9.136,41.389,41.389,0,0,0-3.556-2.436c-.917-.533-1.415-.831-1.417-.839Z" fill="#211a72"/></g></g><path d="M92.751,75.352a77.956,77.956,0,0,1,15.87,14.629,20.234,20.234,0,0,0-5.208,6.158c-1.9,3.914-1.649,7.011.725,8.035,2.471.731,4.646-1.489,5.674-5.719a18.446,18.446,0,0,0,.148-6.787,78.67,78.67,0,0,1,6.008,8.917,20.262,20.262,0,0,0-6.346,5.578c-2.436,3.616-2.61,6.715-.4,8.049,2.35,1.064,4.806-.828,6.413-4.877a19.432,19.432,0,0,0,1.067-7.444c.7,1.254,1.373,2.522,2,3.814,1.135,2.335,2.164,4.736,3.087,7.172a20.43,20.43,0,0,0-6.981,4.82c-2.834,3.306-3.355,6.365-1.324,7.948,2.211,1.321,4.875-.264,6.936-4.095a19.447,19.447,0,0,0,1.921-7.21,85.558,85.558,0,0,1,2.858,9.611,20.552,20.552,0,0,0-7.246,4.518c-2.972,3.18-3.643,6.207-1.678,7.882,2.149,1.428,4.884-.047,7.112-3.781a19.1,19.1,0,0,0,2.206-6.809c.345,1.652.658,3.3.91,4.968.1.69.2,1.425.29,2.161a20.385,20.385,0,0,0-2.261,8.051c-.086,4.356,1.442,7.06,4.026,6.979,2.554-.382,3.593-3.3,2.747-7.571a20,20,0,0,0-3.524-7.383,74.234,74.234,0,0,0-2.265-11.626,19.227,19.227,0,0,0,5.483,4.7c3.858,2.021,6.96,1.846,8.035-.5.8-2.456-1.357-4.692-5.553-5.836a20.648,20.648,0,0,0-8.442-.086,89.88,89.88,0,0,0-4.164-11.472,19.944,19.944,0,0,0,6.753,4.185c4.145,1.317,7.173.618,7.841-1.868.358-2.555-2.144-4.4-6.483-4.8a20.677,20.677,0,0,0-8.575,1.456,83.156,83.156,0,0,0-5.676-10.388,20.68,20.68,0,0,0,7.411,4.793c4.145,1.33,7.176.633,7.832-1.866.379-2.552-2.137-4.388-6.461-4.791a21.116,21.116,0,0,0-8.95,1.6c-1.165-1.806-2.4-3.548-3.713-5.244-.413-.546-.85-1.078-1.283-1.611-.043-.189-.077-.309-.077-.309l-.1.083q-1.5-1.832-3.12-3.568a17.864,17.864,0,0,0,5.736,2.162c4.293.695,7.178-.451,7.469-3.013-.018-2.577-2.769-4.019-7.116-3.783a20.45,20.45,0,0,0-8.051,2.592,78.351,78.351,0,0,0-11.031-9.195.472.472,0,0,0-.535.778" fill="#3a8931"/><path d="M82.873,46.088s.676-.174,1.952-.507c1.19-.2,3.112-.766,5.192-.962a75.035,75.035,0,0,1,16.587-.743,77.777,77.777,0,0,1,19.876,3.93,75.175,75.175,0,0,1,18.982,9.821,73.64,73.64,0,0,1,15.426,14.779,76.715,76.715,0,0,1,10.118,17.541,81.256,81.256,0,0,1,2.937,8.561,75.047,75.047,0,0,1,1.642,7.44,48.555,48.555,0,0,1,.744,5.239c.143,1.257.148,2.02.148,2.02s-.719.235-1.95.523c-1.2.2-3.127.775-5.215.977-2.142.287-4.8.708-7.575.828a83.473,83.473,0,0,1-9.04-.041,76.613,76.613,0,0,1-19.862-3.947,74.02,74.02,0,0,1-18.952-9.872A74.565,74.565,0,0,1,98.5,86.83,77.5,77.5,0,0,1,88.39,69.282a75.741,75.741,0,0,1-4.627-15.946c-.47-2.04-.555-4.056-.742-5.235-.1-1.309-.148-2.013-.148-2.013" fill="#aed144"/><path d="M107.568,87.708q-5.049-15.287-10.12-30.558l21.117,15.143a1,1,0,0,0-.021.449q5.358,16.176,10.71,32.343c.359,1.049,1.916.337,1.57-.7Q125.771,89.1,120.7,73.825l21.124,15.14a1.075,1.075,0,0,0-.025.464q3.1,9.332,6.18,18.672c.355,1.048,1.927.33,1.573-.695q-2.8-8.467-5.592-16.906l28.947,20.755.824-1.166L145.412,89.783q8.477-.444,16.954-.9c1.113-.043.818-1.751-.274-1.673q-9.448.479-18.9.985L122.149,73.1c.5-.021.993-.04,1.478-.071,3.687-.19,7.386-.394,11.08-.584q8.393-.447,16.779-.895c1.116-.044.823-1.749-.273-1.68q-15.645.817-31.285,1.64L98.889,56.427c.5-.027.987-.054,1.484-.077,3.689-.2,7.389-.391,11.074-.572q8.4-.46,16.789-.9c1.11-.054.818-1.751-.283-1.684Q112.314,54,96.676,54.831L90.6,50.475l-.843,1.157L95.31,55.61a.983.983,0,0,0-.026.455Q100.645,72.237,106,88.4c.342,1.057,1.9.338,1.565-.7" fill="#246b1a"/><g opacity="0.1"><g clip-path="url(#f)"><path d="M176.481,113.208c0-.007,0-.769-.144-2.024a52.579,52.579,0,0,0-.734-5.246c-.418-2.118-.869-4.776-1.655-7.439a79.326,79.326,0,0,0-2.939-8.554A76.43,76.43,0,0,0,160.9,72.4a74.24,74.24,0,0,0-15.423-14.783A75.438,75.438,0,0,0,126.484,47.8a77.5,77.5,0,0,0-19.866-3.935,75.328,75.328,0,0,0-16.6.741,52.07,52.07,0,0,0-5.189.967c-1.257.334-1.953.508-1.959.505Z" fill="#211a72"/></g></g></g></g></g><path d="M356.6,194.578C223.348,311.966,0,339.369,0,339.369l10.076,5.374C91,401.288,509.453,390.3,615.666,390.3c222.631,0,107.666-134.211,172.019-335.489C568.125-61.365,489.77,77.261,356.6,194.578" transform="translate(756.999 261.193)" fill="#80cab6"/><g transform="translate(12427.991 13372)"><path d="M366.291,232.674A144.819,144.819,0,1,1,221.47,87.857,144.819,144.819,0,0,1,366.291,232.674" transform="translate(-11309.089 -13244.986)" fill="#82cbfc"/><g transform="translate(-11232.435 -13157.129)"><g clip-path="url(#g)"><path d="M144.875,290.521s1.226,5.574-1.123,8.592-6.541,7.639-5.09,14.279,6.443,18.414,10.423,20.965c4,2.549,9.106,3.819,8.548,10.58-.566,6.741-3.688,22.216-4.069,27.462s-5.1,28.17-3.6,38.149c1.489,9.97,8.719,13.482,11.014,13.019s-2.418-13.146,0-17.332c2.414-4.166,4.851-5.725,6.83-12.314s5.568-9.076,9.276-10.029,2.735-6.17,6.834-10.1,9.822-10.322,10.374-14.645c.567-4.319,1.568-9.482,7.152-9.066s9.027-3.565,9.891-11.127,2.027-11.372,3.951-14.1c1.916-2.711,3.527-7.16-1.163-11.048s-10.467-1.364-14.346-4.914a15.84,15.84,0,0,0-9.931-4.06c-1.792-.118.7-10.717-5.314-12.388s-8.036-2.256-10.316-5.181-10.468-5.554-15.133-4.362-7.508,2.676-11.333,2.783-4.568-1.191-8.329-1.254-6.731-2.019-6.208-5.794-2.614-5.187-6.561-7.068-2.4-5.667-6.364-4.666-9.62-5.284-9.3-9.071.283-16.118,7.277-14.263,14.752,4.026,18.983,7.206-.591-9,2-11.552,10.708-3.991,10.957-7.967,2.881-13.4,8.871-17.321,12.153-3.923,14.874-6.547c2.711-2.608,9.187-13.486,7.39-17.453s-7.6-12.187-10.36-16.114c-2.78-3.933-7.122-.611-10.893-1.25s-3.316-7.455-6.735-8.026-8.823,1.691-8.671,5.774,3.356,10.888.465,13.154-4.641,5.438-9.144,1.123-13.312-6.5-15.89-10.775-3.527-8.807,3.223-13.5,14.991-10.435,15.026-13.448-3.791-7.577-6.36-7.083c-2.584.483-1.843,5.378-5.056,5.027s-6.209-10.423-9.422-11.934c-3.229-1.519-.743,10.893-4.943,11.934a29.141,29.141,0,0,1-14.957,0c-6.488-1.558-8.123-.84-12.646,0-4.538.835-5.359-.411-10.3-2.482s-6.652-3.122-16.476-2.286c-9.842.826-14.819,2.755-20,0-5.2-2.765-15.04.811-22.078.518C9.08,140.258.02,144.865,0,150.756c-.024,12.606,23.007,16.3,30.876,17.882s17.385,8.25,19.944,15.719,11.528,9.272,13.077,17.83,2.408,22.889,4.831,27.275,18.283,14.332,21.374,21.5c3.107,7.16,9.863,13.911,14.757,18.1s16.462,5.657,20.652,8.578,10.326,15.22,19.363,12.881" transform="translate(-107.898 -69.557)" fill="#3a8931"/><path d="M50.826,123.889a8.323,8.323,0,0,0-5.588,8.885c.411,4.079,3.86,5.238,6.966,4.748,3.1-.469,8.733.8,10.344,4.4s8.71,2.213,14.176,1.661c5.485-.557,10.688-2.13,7.415-4.749s-2.921-6.476-5.017-8.557-4.01.034-8.143.522-10.107-2.013-13.413-3.854-3.107-4.259-6.741-3.053" transform="translate(-89.479 -73.302)" fill="#3a8931"/><path d="M58.878,120.509c-1.584.918-4.323,4.782-.876,6.276s11.079,1.578,13.8-.83.854-6.595-1.2-7.9c-2.082-1.309-10.132,1.538-11.718,2.456" transform="translate(-84.933 -75.687)" fill="#3a8931"/><path d="M136.434,99.482c-5.764-1.788-9.116-3.19-17.737-2.2s-18.42,5.58-24.368,6.219-11.9,3.385-13.683,7.366,9.746,7.694,12.193,10.765,11.542,6.155,16.808,3.761c5.26-2.373,7.419-9.711,12.343-12.666,4.9-2.955,16.389-12.636,14.445-13.247" transform="translate(-75.102 -84.149)" fill="#3a8931"/><path d="M80.675,109.879a11.91,11.91,0,0,0-9.28,1.28c-1.685,1.07-.415,5.657-.5,8.289s-1.07,7.747,1.382,11.953c2.432,4.2,1.875,10.2,7.151,10.33s9.579-3.771,13.34-6.115c3.781-2.355,16.2-2,18.611-6.063s-1.524-3.508-8.016-3.884c-6.472-.381-10.14-4.03-14.194-7.981s-6.092-7.093-8.495-7.811" transform="translate(-79.156 -79.061)" fill="#3a8931"/><path d="M95.477,128.332c-6.752.977-7.318,5.408-6.25,9.173s9.5-2.189,12.169,0,7.874,7.469,5.628,11.782,2.7,7.85,9.023,8.675,12.2,4.109,15.27.069,4.155-8.485-1.876-11.924-6.409-8.592-10.1-11.3-8.458-8.64-12.725-8.377a84.988,84.988,0,0,0-11.14,1.9" transform="translate(-71.702 -72.137)" fill="#3a8931"/><path d="M139.038,101.05c-4.973,1.71-16.9,7.483-18.3,11.064-1.4,3.565-7.577,4.523-8.426,8.386s4.991,4.314,12.753,6.262,10.6,5.1,11.3,11.6,11.216,7.963,8.661,15.382-4.2,11.689-1.25,17.682,11.044,13.389,13.32,12.612,6.027-17.111,12.11-20.476,23.158-9.242,23.964-11.313c.785-2.082,4-25.014,3.39-29.26-.631-4.23,10.209-10.912,10.575-15.831s-11.426-2.09-16.921-3.111-9.97-6.3-18.024-6.84-27.868,2.038-33.157,3.84" transform="translate(-62.153 -84.076)" fill="#3a8931"/><path d="M201.511,219.437s-9.945-1.388-11.123,0-.688,7.4-1.382,9.344-.6,5.681.771,5.956c1.388.267,3.743,2.589,4.763,2.13a48.985,48.985,0,0,1,6.717-2.907c2.056-.548,2.144-3.581,3.7-6.092s1.553-7.008,7.121-8.684c5.549-1.691,9.173-.494,10.453.977s7.973,4.547,7.953,8c0,3.435,4.416-1.046,4.107-2.217s-5.759-5.873-7.434-7.425-2.2-4.714-.728-5.207,6.286,6.286,7.5,6.854,3.366,2.725,3.1,4.527,2.917,9.79,4.235,10.049,3.775-1.5,3.233-3.083-2.911-4.235-1.246-5.408,6.027-.229,8-1.558-1.016-3.047.709-6.326,2.842-8.2,5.031-7.526c2.2.684,2.2,7.058,3.751,6.755s6.34-2.555,9.852,1.344,2.477,5.29-1.143,5.753-10.512-.825-12.235.67-8.153,2.442-8.188,4.123,1.637,6.516,3.8,6.061,10.931-1.679,11.748-1.157-2.238,11.9-4.548,12.387-4.192.6-6.351,1.032-7.58-.548-9.911-2.345-5.958.166-9.793,1.685-8.578-1.983-10.3-3.478.265-5.011,0-6.579-6.727-3.63-9.306-2.349c-2.594,1.27-10.3,2.857-12.782,3.5s-5.93-.68-6.458-.455c-.514.21-1.479,4.24-3.878,5.183s-2.414,4.479-3.791,8.167-7.846,8.958-8.793,16.721,0,15.43,3.449,21.6,8.28,8.754,14.317,8.568c6.033-.2,16.98-2.373,20.35,0s3.708,7.752,2.76,11.837,1.026,7.263,4.748,13.941c3.7,6.662,5.505,9.856,3.268,14.922-2.247,5.086-2.511,8.04-.342,13.535,2.149,5.476,1.626,7.67,1.983,12.744.332,5.08,3.277,17.121,6.98,17.716s11.034-3.38,13.959-7.659,7.332-13.047,10.611-15.729,1.675-9.672,3.435-11.9,7.746-6.116,7.321-12.183c-.41-6.077-2.569-14.034.025-19.318s13.164-13.747,14.512-17.82,4.107-9.452,1.616-9.247-4.483,1.461-9.237.983c-4.738-.488-7.512-10.308-8.964-12.169-1.47-1.857-6.848-11.537-6.8-14.3s-3.884-10.945-1.9-11.044,7.018,10.053,8.641,13.14a110.347,110.347,0,0,1,6.14,13.512c1.256,3.9,3.164,5.393,5.027,5.031s17.829-9.051,20.027-11.972,3.336-7.992.977-9.223-3.581-4.831-4.2-3.732c-.64,1.094-2.725,3.473-4.44,3.4-1.734-.079-6.6-7.327-7.431-9.774-.811-2.462,1.384-4.465,2.341-4.366.937.107,3.829,7.728,7.61,7.669s4.166,1.592,6.859,3.083,13.925-1.55,15.161,1.861,4.738,9.09,7.1,8.211c2.349-.9,1.869,3.332,3.6,8.529s4.929,17.184,6.389,17.609,5.78-6.443,5.857-10.228.073-6.243,3.449-9.042,7.552-8.343,10.444-9.672,7,5.153,7.16,8.562c.141,3.4,3.781,2.39,4.645,5.867s3.2,15.2,4.742,18.742,7.156,4.587,5.442,1.661c-1.724-2.911-6.037-13.638-4.317-15.928s7.283,7.854,10.287,6.375,2.994-10.8.787-14.556-.807-9.75,2.037-10.723c2.842-.991,13.276-2.183,15.859-5.774s7.816-10.55,6.331-14.566-7.732-12.632-4.685-15.689,10.067-1.491,11.24,2.642,4.655,7.079,6.057,5.276-.538-11.361,3.047-14.493c3.567-3.14,13.883-11.748,15.173-16.124,1.3-4.376,1.153-12.788-1.6-14.576s-4.342-3.836-3.136-5.529,6.98-11.148,15.084-10.156,10,2.613,13.54,1.353,3.884-7.322,8.71-7.127,10.4-4.894,10.888-2.891-4.181,5.612-6.994,8.714-7.884,8.786-7.694,14.766,1.817,6.571,3.5,6.033,7.239-12.539,7.947-15.895,4.4-7.987,8.113-7.514,16.579-4.058,18.552-6.569-2.379-7.186.346-7.493,10.6,4.582,13.975,2.984c3.352-1.582-3.028-7.957-6.041-8.754s-15.173-5.974-17.508-4.977-8.1-.3-10.6-1.895-10.174-3.684-15.177-3.088-7.068-3.575-10.688-4.479-14.742-3.878-19.007-1.992-11.088,2.691-13.672,2.29-6.13-4.279-8.367-6.462-11.987-1.881-14.869-1.788-10.053-1.6-13.927-.356-11.908,1.3-9.144,0,12.954-5.471,13.1-8.607-3.532-4.884-7.937-4.782-10.1-2.824-12.505-.548-12.221,3.209-16.881,6.223S353,130.17,349.3,131.073s-9.486,3.1-8.964,7.083-5.162,1.768-8.108,4.181-.352,8.07-3.36,10.649-7.356,2.286-5.965.9,5.042-4.817,4.627-9.223c-.391-4.416,1.513-10.268-2.292-10.922-3.785-.66-6.55,3.823-6.379,6.706s2.379,8.363,1.363,9.261-3.781-3.024-9.891-4.4c-6.126-1.388-5.525,3.311-8.275,3.8-2.769.5-9.49-.1-14.228,2.891-4.753,2.984-6.193,2.691-9.047,3.634s-5.383,4.8-8.256,5.675c-2.871.894-5.124,2.521-6.5-.453s-6.267-7.5-4-6.78,12.778,2.017,13.433-.083-10.194-7.694-11.938-8.651-7.4-6.027-13.086-5.06c-5.671.957-15.493,5.6-18.347,10.063s-8.333,13.472-11.376,15.391-5.857,6.146-5.212,9.873,3.532,6.31,5.1,5.49c1.544-.84,4.24-5.011,4.87-3.82s1.681,5.979,2.711,8.261,2.13,2.408,4.264.967,3.116-7.645,2.976-10.732-.152-9.575,3.364-11.934,5.408-7.714,7.787-6.545-.577,4.752-1.944,8.04-2.535,9.1-.621,9.183c1.93.073,10.033-1.871,10.306,0,.249,1.865-8.679,1.885-8.327,5.549s-2.521,4.762-4.342,6.711-10.014,7.425-14.327,6.624-10.478-.4-13.229,3.028c-2.77,3.444-4.621,7.429-8.24,9.715s-1.813,11.753-2.325,13.292" transform="translate(-35.217 -75.802)" fill="#3a8931"/><path d="M192.281,184.876c3.346,1.226,9.832-4.376,10-6.868s-3.864-5.187-4.651-7.766-.37-6.015-1.651-7.763-7.18.108-7.077,2.145,1.149,3.839,2.78,6.569-1.046,13.091.6,13.682" transform="translate(-30.901 -57.723)" fill="#3a8931"/><path d="M185.565,179.2c2.871,1.824,5.808-2.235,5.832-5.345s.206-6.3-2.124-6.2-6.986,9.446-3.708,11.542" transform="translate(-32.723 -55.331)" fill="#3a8931"/></g></g><g transform="translate(-11212.52 -13151.565)" opacity="0.1"><g clip-path="url(#h)"><path d="M255.567,91.81A144.892,144.892,0,0,1,90.8,304.386,144.833,144.833,0,1,0,255.567,91.81" transform="translate(-90.802 -91.81)" fill="#211a72"/></g></g><g transform="translate(-11231.727 -13157.129)" opacity="0.1"><g clip-path="url(#i)"><path d="M77.157,218.312c28.3,3.385,65.826-10.184,98.168-38.237,32.493-28.155,51.285-63.525,51.807-92.085-1.954-.079-3.9-.132-5.867-.132A144.843,144.843,0,0,0,77.157,218.312" transform="translate(-77.157 -87.857)" fill="#fff"/></g></g><path d="M211.958,0c-10.546,23.586,0,49.235,0,49.235s10.556-25.649,0-49.235" transform="translate(-11255.849 -13280.797)" fill="#e6fcfa"/><path d="M211.958,0V0c-10.546,23.587,0,49.236,0,49.236Z" transform="translate(-11255.849 -13280.797)" fill="#c8ebf3"/><path d="M179.445,57.322C205.241,56,223.3,34.951,223.3,34.951s-27.648,2.256-43.855,22.371" transform="translate(-11267.191 -13266.551)" fill="#e6fcfa"/><path d="M179.445,57.324h0C205.241,56,223.3,34.953,223.3,34.953v-.006Z" transform="translate(-11267.191 -13266.553)" fill="#c8ebf3"/><path d="M254.465,57.322C228.653,56,210.6,34.951,210.6,34.951s27.647,2.256,43.864,22.371" transform="translate(-11254.492 -13266.551)" fill="#e6fcfa"/><path d="M254.456,57.324h.01C228.655,56,210.6,34.953,210.6,34.953l.01-.006Z" transform="translate(-11254.492 -13266.553)" fill="#c8ebf3"/><path d="M214.533,36.512h-2.715L204.3,122.57h17.76Z" transform="translate(-11257.062 -13265.915)" fill="#e6fcfa"/><path d="M218.185,36.684a5.881,5.881,0,1,1-5.881-5.891,5.884,5.884,0,0,1,5.881,5.891" transform="translate(-11256.194 -13268.246)" fill="#e6fcfa"/><path d="M189,14.594C165.031,32.516,161.23,64.413,161.23,64.413S186.371,44.4,189,14.594" transform="translate(-11274.615 -13274.849)" fill="#e6fcfa"/><path d="M189,14.6c-.006,0,0,0,0,0C165.031,32.516,161.23,64.412,161.23,64.412Z" transform="translate(-11274.615 -13274.849)" fill="#c8ebf3"/><path d="M120.757,49.771c26.85,13.208,57,2.09,57,2.09s-29.25-13.3-57-2.09" transform="translate(-11291.112 -13262.342)" fill="#e6fcfa"/><path d="M120.757,48.47h0c26.85,13.208,57,2.09,57,2.09v0Z" transform="translate(-11291.112 -13261.04)" fill="#c8ebf3"/><path d="M193.011,97.326c-25.357-15.883-31.771-47.37-31.771-47.37s26.711,17.878,31.771,47.37" transform="translate(-11274.611 -13260.435)" fill="#e6fcfa"/><path d="M193,97.326h.01c-25.357-15.883-31.771-47.37-31.771-47.37h.025Z" transform="translate(-11274.611 -13260.435)" fill="#c8ebf3"/><path d="M166.139,52.277h-3.146l-8.714,99.676h20.575Z" transform="translate(-11277.448 -13259.488)" fill="#e6fcfa"/><path d="M170.373,52.476a6.816,6.816,0,1,1-6.814-6.824,6.819,6.819,0,0,1,6.814,6.824" transform="translate(-11276.445 -13262.189)" fill="#e6fcfa"/><path d="M300.624,130.246a10.47,10.47,0,0,0-1.481.152,20.435,20.435,0,0,0-30.47-17.609,26.036,26.036,0,0,0-48.168,5.393,16.384,16.384,0,0,0-3.526-.4,16.782,16.782,0,1,0,12.529,27.844,25.8,25.8,0,0,0,33.777-1.192,20.287,20.287,0,0,0,28.459,2.027,10.546,10.546,0,1,0,8.881-16.217" transform="translate(-11258.729 -13240.482)" fill="#e6fcfa"/><path d="M300.624,135.534a10.543,10.543,0,0,1-8.881-4.884,20.284,20.284,0,0,1-28.459-2.033,25.788,25.788,0,0,1-33.777,1.192,16.691,16.691,0,0,1-28.981-7.85,16.566,16.566,0,0,0-.322,3.209,16.714,16.714,0,0,0,29.3,11.064,25.8,25.8,0,0,0,33.777-1.191,20.288,20.288,0,0,0,28.459,2.026,10.5,10.5,0,0,0,18.884-8.879,10.518,10.518,0,0,1-10,7.346" transform="translate(-11258.729 -13231.086)" fill="#c8ebf3"/><path d="M75.688,212.079a7.257,7.257,0,0,1,1.016.107,14.185,14.185,0,0,1,14.18-13.961,14.018,14.018,0,0,1,6.824,1.817,17.952,17.952,0,0,1,33.205,3.717,11.73,11.73,0,0,1,2.438-.263,11.567,11.567,0,1,1-8.645,19.187,17.785,17.785,0,0,1-23.29-.821,13.985,13.985,0,0,1-19.618,1.4,7.269,7.269,0,1,1-6.11-11.186" transform="translate(-11312.451 -13203.157)" fill="#e6fcfa"/><path d="M75.688,215.723a7.233,7.233,0,0,0,6.11-3.361,13.991,13.991,0,0,0,19.618-1.406,17.792,17.792,0,0,0,23.29.825,11.512,11.512,0,0,0,19.982-5.412,11.114,11.114,0,0,1,.225,2.218,11.525,11.525,0,0,1-20.208,7.619,17.787,17.787,0,0,1-23.29-.819,13.987,13.987,0,0,1-19.618,1.4A7.264,7.264,0,0,1,68.4,212.875a7.45,7.45,0,0,1,.376-2.218,7.259,7.259,0,0,0,6.907,5.066" transform="translate(-11312.451 -13196.681)" fill="#c8ebf3"/><path d="M193.59,264.054a5.989,5.989,0,0,0-.894.093,12.393,12.393,0,0,0-18.479-10.682A15.792,15.792,0,0,0,145,256.737a9.922,9.922,0,0,0-2.145-.239,10.177,10.177,0,1,0,7.6,16.886,15.66,15.66,0,0,0,20.49-.722,12.314,12.314,0,0,0,17.263,1.23,6.394,6.394,0,1,0,5.378-9.838" transform="translate(-11286.25 -13180.915)" fill="#e6fcfa"/><path d="M193.59,267.26a6.381,6.381,0,0,1-5.378-2.964,12.3,12.3,0,0,1-17.263-1.232,15.644,15.644,0,0,1-20.49.724,10.122,10.122,0,0,1-17.575-4.758,9.842,9.842,0,0,0-.2,1.944,10.137,10.137,0,0,0,17.771,6.711,15.657,15.657,0,0,0,20.49-.723,12.312,12.312,0,0,0,17.263,1.232,6.369,6.369,0,0,0,11.449-5.388,6.382,6.382,0,0,1-6.071,4.455" transform="translate(-11286.25 -13175.216)" fill="#c8ebf3"/><path d="M125.018,148.445H105.987L114,107.6h3.009Z" transform="translate(-11297.133 -13236.939)" fill="#e6fcfa"/><path d="M143.063,121.873c.493,2.349-.85,4.269-3,4.269H99.091c-2.154,0-3.5-1.92-2.994-4.269l3.985-18.728a5.378,5.378,0,0,1,4.817-4.259h29.363a5.376,5.376,0,0,1,4.806,4.259Z" transform="translate(-11301.207 -13240.491)" fill="#c8ebf3"/><path d="M139.959,120.135c.508,2.355-.845,4.273-2.994,4.273H100.8c-2.149,0-3.5-1.919-2.994-4.273l3.415-16.031a5.373,5.373,0,0,1,4.811-4.259h25.7a5.346,5.346,0,0,1,4.807,4.259Z" transform="translate(-11300.512 -13240.101)" fill="#e6fcfa"/><g transform="translate(-11202.814 -13140.258)"><g clip-path="url(#j)"><path d="M147.951,102.52v-1.969H130.71l-.358-3.751-1.954.182.338,3.57h-7.1V96.884H119.67v3.667h-7.1l.336-3.57-1.958-.182-.352,3.751H93.356v1.969h17.052l-.386,4.1H93.356v1.983h16.48l-.386,4.107H93.356v1.965h15.909l-.386,4.1H93.356v1.973h15.337l-.38,4.119H93.356v1.958h14.771l-.338,3.581,1.954.18.358-3.761h9.569v3.674h1.964v-3.674H131.2l.352,3.761,1.959-.18-.338-3.581h14.776v-1.958H132.99l-.38-4.119h15.341v-1.973H132.418l-.39-4.1h15.923v-1.965h-16.1l-.39-4.107h16.49v-1.983h-16.67l-.391-4.1Zm-28.282,4.1H112l.386-4.1h7.289Zm0,1.983v4.107h-8.246l.386-4.107Zm0,6.072v4.1h-8.817l.386-4.1Zm0,6.075v4.119h-9.383l.376-4.119Zm1.964,0h9l.391,4.119h-9.389Zm0-1.973v-4.1h8.43l.381,4.1Zm0-6.067v-4.107H129.5l.376,4.107Zm0-6.091v-4.1h7.287l.391,4.1Z" transform="translate(-99.466 -101.083)" fill="#c8e9c1"/></g></g><path d="M168,220.174H141.9l10.986-56h4.127Z" transform="translate(-11282.493 -13213.881)" fill="#e6fcfa"/><path d="M192.738,183.742c.68,3.219-1.163,5.851-4.107,5.851H132.446c-2.95,0-4.8-2.632-4.1-5.851l5.466-25.679c.69-3.2,3.65-5.837,6.6-5.837h40.26c2.931,0,5.9,2.638,6.583,5.837Z" transform="translate(-11288.08 -13218.749)" fill="#c8ebf3"/><path d="M188.481,181.356c.694,3.229-1.158,5.861-4.1,5.861h-49.59c-2.945,0-4.8-2.632-4.1-5.861l4.684-21.981c.684-3.205,3.654-5.837,6.59-5.837H177.2c2.945,0,5.925,2.632,6.595,5.837Z" transform="translate(-11287.125 -13218.215)" fill="#e6fcfa"/><g transform="translate(-11156.585 -13064.677)"><g clip-path="url(#k)"><path d="M199.44,157.208v-2.7H175.8l-.49-5.149-2.676.249.459,4.9h-9.735v-5.036h-2.7v5.036h-9.739l.463-4.9-2.681-.249-.483,5.149H124.588v2.7h23.377l-.526,5.628H124.588v2.717h22.6l-.532,5.636H124.588v2.691H146.4l-.526,5.622H124.588v2.707h21.028l-.528,5.647h-20.5v2.686h20.247l-.459,4.91,2.676.243.494-5.153h13.115v5.036h2.7v-5.036h13.12l.479,5.153,2.686-.243-.459-4.91H199.44v-2.686H178.926l-.524-5.647H199.44V179.5h-21.3l-.532-5.622H199.44v-2.691H177.367l-.533-5.636H199.44v-2.717H176.581l-.532-5.628Zm-38.779,5.628H150.139l.533-5.628h9.988Zm0,2.717v5.636h-11.3l.528-5.636Zm0,8.327V179.5h-12.09l.533-5.622Zm0,8.329v5.647H147.8l.514-5.647Zm2.7,0h12.333l.538,5.647H163.358Zm0-2.707v-5.622h11.556l.524,5.622Zm0-8.313v-5.636h10.785l.514,5.636Zm0-8.353v-5.628h9.994l.532,5.628Z" transform="translate(-132.966 -155.24)" fill="#c8e9c1"/></g></g></g></g></g></svg>