<svg xmlns="http://www.w3.org/2000/svg" xmlns:xlink="http://www.w3.org/1999/xlink" width="335" height="245.762" viewBox="0 0 335 245.762"><defs><clipPath id="a"><rect width="77.672" height="225.299" fill="none"/></clipPath><clipPath id="b"><rect width="77.673" height="225.298" fill="none"/></clipPath><clipPath id="c"><rect width="39.329" height="52.051" fill="none"/></clipPath><clipPath id="d"><rect width="38.047" height="58.021" fill="none"/></clipPath><clipPath id="e"><rect width="19.275" height="81.67" fill="none"/></clipPath><clipPath id="f"><rect width="17.609" height="12.792" fill="none"/></clipPath></defs><g transform="translate(5530 -1733.851)"><g transform="translate(-5847.35 1753.897)"><g transform="translate(317.35 41.468)"><g style="isolation:isolate"><path d="M652.35,147.627,541.845,211.436c-14.047,8.11-16.68,19.5-30.629,11.4L317.35,110.546,425.138,47.908c14.994-8.723,39.409-8.723,54.5,0Z" transform="translate(-317.35 -41.365)" fill="#483558"/></g></g><g transform="translate(332.065 41.103)"><path d="M430.254,132.522l-75.7-43.444,55.432-32.415,75.547,43.556-55.28,32.3Z" transform="translate(-317.425 -34.98)" fill="#1b8289"/><path d="M446.313,115.338l-7.363,4.3L365.622,77.79,373,73.473Z" transform="translate(-313.07 -28.365)" fill="#05555b" opacity="0.2" style="mix-blend-mode:multiply;isolation:isolate"/><path d="M465.242,98.727,414.524,69.479l23.838-13.937,50.674,29.281-23.794,13.9Z" transform="translate(-293.826 -35.421)" fill="#05555b"/><path d="M386.049,124.446,335.07,95.255l23.838-13.94,50.935,29.224-23.794,13.907Z" transform="translate(-325.092 -25.279)" fill="#05555b"/><path d="M418.213,71.611l-21.5-12.4,23.859-13.953,21.483,12.413L418.213,71.611Z" transform="translate(-300.835 -39.468)" fill="#13474a"/><path d="M395.51,129.853l-21.473-12.3,23.791-13.905,21.454,12.309L395.51,129.853Z" transform="translate(-309.759 -16.489)" fill="#199ba4"/><path d="M354.555,89.078l8.155,4.68,47.356-27.692,67.429,38.851,8.039-4.7L409.986,56.663Z" transform="translate(-317.425 -34.98)" fill="#1b8289" opacity="0.2" style="mix-blend-mode:multiply;isolation:isolate"/><path d="M414.524,69.479l8.121,4.683,15.778-9.224L481,89.521l8.039-4.7L438.362,55.542Z" transform="translate(-293.826 -35.421)" fill="#05555b" opacity="0.2" style="mix-blend-mode:multiply;isolation:isolate"/><path d="M335.071,95.255l8.161,4.673L359.01,90.7,401.8,115.237l8.04-4.7L358.908,81.315Z" transform="translate(-325.092 -25.279)" fill="#05555b" opacity="0.2" style="mix-blend-mode:multiply;isolation:isolate"/><path d="M396.712,59.211l8.136,4.692,15.793-9.235L434,62.381l8.055-4.709L420.571,45.258Z" transform="translate(-300.835 -39.468)" fill="#13474a" opacity="0.2" style="mix-blend-mode:multiply;isolation:isolate"/><path d="M374.037,117.557l8.125,4.653,15.747-9.2,13.34,7.649,8.033-4.695-21.454-12.308Z" transform="translate(-309.758 -16.489)" fill="#199ba4" opacity="0.2" style="mix-blend-mode:multiply;isolation:isolate"/><g transform="translate(9.978 5.791)" style="isolation:isolate"><g transform="translate(109.758)"><path d="M413.834,45.258l.043,4.225,21.479,12.408-.039-4.219Z" transform="translate(-413.834 -45.258)" fill="#c8d0ec"/></g><g transform="translate(85.899)"><path d="M396.712,59.211l.047,4.222,23.855-13.95-.043-4.225Z" transform="translate(-396.712 -45.258)" fill="#dae0f4"/></g><g transform="translate(110.72 14.33)"><path d="M414.524,69.479l.043,4.215L438.4,59.76l-.039-4.218Z" transform="translate(-414.524 -55.542)" fill="#dae0f4"/></g><g transform="translate(134.557 14.33)"><path d="M431.63,55.542l.039,4.218,50.665,29.268-.031-4.2Z" transform="translate(-431.63 -55.542)" fill="#c8d0ec"/></g><g transform="translate(27.151 15.892)"><path d="M354.554,89.078l.057,4.215,55.422-32.409-.048-4.221Z" transform="translate(-354.554 -56.662)" fill="#dae0f4"/></g><g transform="translate(82.583 15.892)"><path d="M394.333,56.662l.048,4.221,75.534,43.536-.035-4.2Z" transform="translate(-394.333 -56.662)" fill="#c8d0ec"/></g><g transform="translate(0 50.245)"><path d="M335.07,95.255l.062,4.211,23.834-13.937-.058-4.214Z" transform="translate(-335.07 -81.315)" fill="#dae0f4"/></g><g transform="translate(23.838 50.245)"><path d="M352.177,81.315l.058,4.214,50.926,29.21-.049-4.2Z" transform="translate(-352.177 -81.315)" fill="#c8d0ec"/></g><g transform="translate(78.092 81.373)"><path d="M391.11,103.652l.048,4.2,21.451,12.3-.045-4.194Z" transform="translate(-391.11 -103.652)" fill="#c8d0ec"/></g><g transform="translate(54.3 81.373)"><path d="M374.037,117.558l.053,4.2,23.787-13.9-.048-4.2Z" transform="translate(-374.037 -103.652)" fill="#dae0f4"/></g></g><path d="M364.816,80.73l-.058-5.761,31.307-18.309.051,5.766Z" transform="translate(-313.41 -34.981)" fill="#f2f4fe"/><g transform="translate(60.162 30.492)"><g transform="translate(0.039 5.121)"><g style="isolation:isolate"><g transform="translate(0 4.994)"><path d="M371.111,70.242l.016,1.28,75.882,43.343L447,113.592Z" transform="translate(-371.111 -70.242)" fill="#d69617"/></g><g transform="translate(75.885 43.367)"><path d="M425.567,102.755l.012,1.274,8.515-4.976-.012-1.274Z" transform="translate(-425.567 -97.78)" fill="#d3891a"/></g><path d="M371.111,71.652,447,115l8.516-4.976L379.65,66.659Z" transform="translate(-371.111 -66.659)" fill="#ffb806"/></g></g><g transform="translate(8.169)"><g style="isolation:isolate"><g transform="translate(0.49 1.046)"><path d="M377.3,63.968l.4-.234.029,4.365-.4.234Z" transform="translate(-377.297 -63.735)" fill="#3d2d4a"/></g><g transform="translate(3.729 2.898)"><path d="M379.621,65.3l.4-.234.028,4.364-.4.234Z" transform="translate(-379.621 -65.064)" fill="#3d2d4a"/></g><g transform="translate(6.968 4.75)"><path d="M381.945,66.627l.4-.234.028,4.363-.4.233Z" transform="translate(-381.945 -66.393)" fill="#3d2d4a"/></g><g transform="translate(10.206 6.601)"><path d="M384.268,67.955l.4-.233.027,4.362-.4.234Z" transform="translate(-384.268 -67.721)" fill="#3d2d4a"/></g><g transform="translate(13.442 8.452)"><path d="M386.591,69.283l.4-.234.027,4.361-.4.234Z" transform="translate(-386.591 -69.049)" fill="#3d2d4a"/></g><g transform="translate(16.678 10.302)"><path d="M388.913,70.611l.4-.234.026,4.36-.4.234Z" transform="translate(-388.913 -70.377)" fill="#3d2d4a"/></g><g transform="translate(19.913 12.152)"><path d="M391.234,71.938l.4-.234.026,4.359-.4.234Z" transform="translate(-391.234 -71.705)" fill="#3d2d4a"/></g><g transform="translate(23.147 14.001)"><path d="M393.555,73.265l.4-.233.025,4.358-.4.234Z" transform="translate(-393.555 -73.032)" fill="#3d2d4a"/></g><g transform="translate(26.38 15.85)"><path d="M395.876,74.592l.4-.234.025,4.358-.4.233Z" transform="translate(-395.876 -74.358)" fill="#3d2d4a"/></g><g transform="translate(29.612 17.698)"><path d="M398.195,75.918l.4-.234.024,4.357-.4.233Z" transform="translate(-398.195 -75.685)" fill="#3d2d4a"/></g><g transform="translate(32.843 19.546)"><path d="M400.513,77.244l.4-.233.023,4.356-.4.233Z" transform="translate(-400.513 -77.011)" fill="#3d2d4a"/></g><g transform="translate(36.075 21.394)"><path d="M402.832,78.57l.4-.233.023,4.355-.4.233Z" transform="translate(-402.832 -78.337)" fill="#3d2d4a"/></g><g transform="translate(39.304 23.24)"><path d="M405.15,79.9l.4-.233.022,4.354-.4.233Z" transform="translate(-405.15 -79.662)" fill="#3d2d4a"/></g><g transform="translate(42.533 25.087)"><path d="M407.467,81.22l.4-.233.021,4.353-.4.233Z" transform="translate(-407.467 -80.987)" fill="#3d2d4a"/></g><g transform="translate(45.761 26.933)"><path d="M409.784,82.545l.4-.233.021,4.352-.4.233Z" transform="translate(-409.784 -82.312)" fill="#3d2d4a"/></g><g transform="translate(48.988 28.778)"><path d="M412.1,83.869l.4-.234.02,4.352-.4.233Z" transform="translate(-412.099 -83.636)" fill="#3d2d4a"/></g><g transform="translate(52.215 30.624)"><path d="M414.415,85.193l.4-.233.02,4.35-.4.233Z" transform="translate(-414.415 -84.96)" fill="#3d2d4a"/></g><g transform="translate(55.44 32.468)"><path d="M416.729,86.516l.4-.233.019,4.349-.4.233Z" transform="translate(-416.729 -86.283)" fill="#3d2d4a"/></g><g transform="translate(58.665 34.311)"><path d="M419.043,87.84l.4-.233.019,4.349-.4.233Z" transform="translate(-419.043 -87.607)" fill="#3d2d4a"/></g><g transform="translate(61.889 36.155)"><path d="M421.357,89.163l.4-.233.018,4.348-.4.233Z" transform="translate(-421.357 -88.93)" fill="#3d2d4a"/></g><g transform="translate(65.112 37.998)"><path d="M423.67,90.485l.4-.233.018,4.347-.4.233Z" transform="translate(-423.67 -90.252)" fill="#3d2d4a"/></g><g transform="translate(68.333 39.84)"><path d="M425.981,91.807l.4-.233.017,4.346-.4.233Z" transform="translate(-425.981 -91.574)" fill="#3d2d4a"/></g><g transform="translate(71.555 41.683)"><path d="M428.294,93.129l.4-.233.017,4.345-.4.233Z" transform="translate(-428.294 -92.896)" fill="#3d2d4a"/></g><g transform="translate(75.86 44.144)"><path d="M431.383,94.9l.4-.233.016,4.344-.4.233Z" transform="translate(-431.383 -94.662)" fill="#3d2d4a"/></g><g transform="translate(0 0.234)"><path d="M452.8,106.531l0,.764.016,4.344-.483-.275-.016-4.344-3.822-2.185.017,4.345-.484-.276-.017-4.345-2.738-1.566.017,4.346-.483-.276-.017-4.346-2.739-1.566.018,4.347-.483-.276-.018-4.347-2.74-1.567.018,4.348-.484-.277-.018-4.348-2.741-1.567.019,4.349-.483-.276-.019-4.349-2.741-1.568.019,4.35-.483-.276-.019-4.35-2.742-1.568.02,4.35-.484-.277-.02-4.351-2.743-1.568.021,4.351L425.47,96l-.021-4.351-2.743-1.569.021,4.352-.484-.276-.021-4.352-2.516-1.439-.228-.131.022,4.353-.485-.277-.022-4.353-2.745-1.57.022,4.354-.484-.277-.022-4.354-2.745-1.57.023,4.355-.484-.277-.023-4.355L409.788,82.7l.023,4.356-.484-.277-.023-4.356-2.747-1.571.024,4.357-.484-.277-.024-4.357L403.325,79l.024,4.358-.485-.277-.024-4.358-2.749-1.572.025,4.359-.484-.277-.025-4.359L396.858,75.3l.025,4.36-.484-.277-.026-4.359-2.75-1.572.026,4.36-.484-.277-.026-4.36L390.387,71.6l.027,4.361-.485-.277-.027-4.362-2.751-1.573.027,4.362-.485-.277-.027-4.362L383.913,67.9l.028,4.363-.485-.277-.028-4.363-2.754-1.575.029,4.364-.485-.277-.028-4.364L377.435,64.2l.029,4.365-.485-.278-.029-4.365-.005-.768Z" transform="translate(-376.945 -63.152)" fill="#5a4b66"/></g><g transform="translate(75.857 43.38)"><path d="M431.38,94.347l.4-.233,0,.764-.4.233Z" transform="translate(-431.38 -94.114)" fill="#3d2d4a"/></g><path d="M376.945,63.218l.4-.234,75.856,43.38-.4.233Z" transform="translate(-376.945 -62.984)" fill="#715f7f"/></g></g><g transform="translate(0 4.739)"><g style="isolation:isolate"><g transform="translate(0.492 1.046)"><path d="M371.436,67.369l.4-.234.03,4.366-.4.234Z" transform="translate(-371.436 -67.136)" fill="#3d2d4a"/></g><g transform="translate(0.492 1.279)"><path d="M371.465,71.669l-.029-4.366Z" transform="translate(-371.436 -67.303)" fill="#3d2d4a"/></g><g transform="translate(3.733 2.898)"><path d="M373.762,68.7l.4-.234.03,4.365-.4.234Z" transform="translate(-373.762 -68.465)" fill="#3d2d4a"/></g><g transform="translate(6.974 4.75)"><path d="M376.087,70.028l.4-.234.029,4.364-.4.234Z" transform="translate(-376.087 -69.794)" fill="#3d2d4a"/></g><g transform="translate(10.213 6.601)"><path d="M378.412,71.356l.4-.233.029,4.363-.4.234Z" transform="translate(-378.412 -71.122)" fill="#3d2d4a"/></g><g transform="translate(13.452 8.452)"><path d="M380.736,72.684l.4-.233.028,4.362-.4.234Z" transform="translate(-380.736 -72.451)" fill="#3d2d4a"/></g><g transform="translate(16.691 10.303)"><path d="M383.06,74.012l.4-.233.027,4.361-.4.234Z" transform="translate(-383.06 -73.779)" fill="#3d2d4a"/></g><g transform="translate(19.928 12.153)"><path d="M385.383,75.34l.4-.233.027,4.36-.4.234Z" transform="translate(-385.383 -75.106)" fill="#3d2d4a"/></g><g transform="translate(23.164 14.002)"><path d="M387.706,76.667l.4-.233.026,4.359-.4.234Z" transform="translate(-387.706 -76.433)" fill="#3d2d4a"/></g><g transform="translate(26.4 15.851)"><path d="M390.028,77.994l.4-.233.026,4.358-.4.234Z" transform="translate(-390.028 -77.76)" fill="#3d2d4a"/></g><g transform="translate(29.634 17.699)"><path d="M392.349,79.32l.4-.234.025,4.358-.4.234Z" transform="translate(-392.349 -79.086)" fill="#3d2d4a"/></g><g transform="translate(32.868 19.547)"><path d="M394.669,80.646l.4-.234.025,4.357-.4.233Z" transform="translate(-394.669 -80.412)" fill="#3d2d4a"/></g><g transform="translate(36.102 21.395)"><path d="M396.99,81.972l.4-.234.024,4.356-.4.233Z" transform="translate(-396.99 -81.738)" fill="#3d2d4a"/></g><g transform="translate(39.333 23.242)"><path d="M399.309,83.3l.4-.234.023,4.355-.4.233Z" transform="translate(-399.309 -83.064)" fill="#3d2d4a"/></g><g transform="translate(42.565 25.088)"><path d="M401.628,84.623l.4-.234.023,4.354-.4.233Z" transform="translate(-401.628 -84.389)" fill="#3d2d4a"/></g><g transform="translate(45.795 26.935)"><path d="M403.946,85.947l.4-.233.022,4.353-.4.233Z" transform="translate(-403.946 -85.714)" fill="#3d2d4a"/></g><g transform="translate(49.025 28.78)"><path d="M406.263,87.271l.4-.233.022,4.352-.4.233Z" transform="translate(-406.263 -87.038)" fill="#3d2d4a"/></g><g transform="translate(52.254 30.625)"><path d="M408.581,88.6l.4-.233L409,92.714l-.4.233Z" transform="translate(-408.581 -88.362)" fill="#3d2d4a"/></g><g transform="translate(55.481 32.47)"><path d="M410.9,89.919l.4-.233.021,4.351-.4.233Z" transform="translate(-410.897 -89.686)" fill="#3d2d4a"/></g><g transform="translate(58.708 34.313)"><path d="M413.213,91.242l.4-.233.02,4.35-.4.233Z" transform="translate(-413.213 -91.009)" fill="#3d2d4a"/></g><g transform="translate(61.935 36.157)"><path d="M415.528,92.565l.4-.233.02,4.349-.4.233Z" transform="translate(-415.528 -92.332)" fill="#3d2d4a"/></g><g transform="translate(65.16 38)"><path d="M417.842,93.888l.4-.233L418.258,98l-.4.233Z" transform="translate(-417.842 -93.655)" fill="#3d2d4a"/></g><g transform="translate(68.384 39.843)"><path d="M420.156,95.21l.4-.233.019,4.347-.4.233Z" transform="translate(-420.156 -94.977)" fill="#3d2d4a"/></g><g transform="translate(71.608 41.685)"><path d="M422.47,96.532l.4-.233.018,4.346-.4.233Z" transform="translate(-422.47 -96.299)" fill="#3d2d4a"/></g><g transform="translate(75.916 44.146)"><path d="M425.561,98.3l.4-.233.017,4.345-.4.233Z" transform="translate(-425.561 -98.065)" fill="#3d2d4a"/></g><g transform="translate(0 0.234)"><path d="M447,109.934l0,.765.017,4.345-.483-.276-.017-4.345-3.825-2.186.018,4.346-.484-.276-.018-4.346-2.74-1.566.018,4.347-.483-.276-.019-4.347-2.741-1.566.019,4.348-.483-.276-.02-4.348-2.742-1.567.02,4.349-.484-.277-.02-4.349-2.742-1.567.02,4.349-.484-.276-.02-4.349-2.743-1.568.021,4.35-.483-.276-.021-4.35-2.744-1.568.021,4.351-.484-.277-.021-4.351-2.745-1.569.022,4.352-.484-.276-.022-4.353-2.745-1.569.023,4.353-.484-.276-.022-4.353-2.518-1.439-.229-.131L413.671,96l-.485-.277-.023-4.354-2.747-1.569.023,4.355-.484-.277-.024-4.355-2.747-1.57.024,4.356-.484-.277-.024-4.356L403.951,86.1l.025,4.357-.484-.277-.025-4.357-2.749-1.571.025,4.358-.485-.277-.025-4.358-2.75-1.571.026,4.359-.485-.277L397,82.127l-2.751-1.572.026,4.36-.485-.277-.026-4.36-2.751-1.572.027,4.361-.485-.277-.027-4.36-2.752-1.573.028,4.362-.485-.277-.028-4.362L384.535,75l.028,4.363-.485-.277-.028-4.362L381.3,73.154l.029,4.363-.486-.277-.029-4.363L378.057,71.3l.029,4.364-.485-.277-.029-4.364-2.756-1.575.029,4.365-.485-.277-.03-4.365L371.574,67.6l.03,4.366-.486-.277-.03-4.366-.006-.768Z" transform="translate(-371.083 -66.553)" fill="#5a4b66"/></g><g transform="translate(75.913 43.382)"><path d="M425.559,97.75l.4-.233,0,.764-.4.233Z" transform="translate(-425.559 -97.517)" fill="#3d2d4a"/></g><path d="M371.083,66.619l.4-.234,75.911,43.382L447,110Z" transform="translate(-371.083 -66.385)" fill="#715f7f"/></g></g></g><path d="M327.91,111.12l85.768,49.091L533.032,90.47,447.635,41.1l-37.072,21.68.052,5.766,9.856-5.765,75.546,43.557-55.279,32.3L365.039,95.2l14.277-8.349-.059-5.761ZM469.128,59.306l-23.84,13.939-21.5-12.4,23.86-13.953Zm30.2,45.1L448.608,75.16l23.837-13.937,50.674,29.282ZM392.188,142.172l23.791-13.9,21.455,12.309-23.773,13.891Zm-3.322-1.9-50.979-29.191,23.839-13.939,50.934,29.223Z" transform="translate(-327.91 -41.103)" fill="#f2f4fe"/><g transform="translate(85.786 43.61)"><g transform="translate(0 5.781)"><g style="isolation:isolate"><g transform="translate(9.744 5.572)"><path d="M515.791,80.545v1.446L396.471,151.669l-.008-1.441Z" transform="translate(-396.463 -80.545)" fill="#d69617"/></g><path d="M518.543,82.118,399.215,151.8l-9.744-5.54,119.37-69.715Z" transform="translate(-389.471 -76.546)" fill="#ffb806"/></g></g><g transform="translate(0.12)"><g transform="translate(71.999)"><g style="isolation:isolate"><g transform="translate(46.648 1.201)"><path d="M475.157,73.525l-.458-.265.034,5,.457.264Z" transform="translate(-474.7 -73.26)" fill="#3d2d4a"/></g><g transform="translate(42.974 3.348)"><path d="M472.521,75.065l-.458-.264.035,5,.457.264Z" transform="translate(-472.064 -74.801)" fill="#3d2d4a"/></g><g transform="translate(39.3 5.495)"><path d="M469.884,76.606l-.457-.264.036,5,.457.264Z" transform="translate(-469.427 -76.342)" fill="#3d2d4a"/></g><g transform="translate(35.626 7.642)"><path d="M467.248,78.147l-.458-.264.037,5,.457.264Z" transform="translate(-466.791 -77.882)" fill="#3d2d4a"/></g><g transform="translate(31.953 9.788)"><path d="M464.612,79.687l-.457-.264.037,5,.457.264Z" transform="translate(-464.155 -79.423)" fill="#3d2d4a"/></g><g transform="translate(28.279 11.935)"><path d="M461.976,81.228l-.458-.264.038,5,.458.264Z" transform="translate(-461.518 -80.963)" fill="#3d2d4a"/></g><g transform="translate(24.606 14.082)"><path d="M459.34,82.768l-.458-.264.039,5,.458.264Z" transform="translate(-458.882 -82.504)" fill="#3d2d4a"/></g><g transform="translate(20.933 16.228)"><path d="M456.7,84.308l-.458-.264.04,5,.458.264Z" transform="translate(-456.246 -84.044)" fill="#3d2d4a"/></g><g transform="translate(17.259 18.375)"><path d="M454.068,85.849l-.458-.264.04,4.994.458.264Z" transform="translate(-453.61 -85.584)" fill="#3d2d4a"/></g><g transform="translate(13.586 20.521)"><path d="M451.432,87.389l-.458-.264.041,4.994.458.264Z" transform="translate(-450.974 -87.124)" fill="#3d2d4a"/></g><g transform="translate(9.914 22.667)"><path d="M448.8,88.929l-.458-.264.042,4.993.458.264Z" transform="translate(-448.339 -88.664)" fill="#3d2d4a"/></g><g transform="translate(6.24 24.814)"><path d="M446.161,90.469,445.7,90.2l.043,4.993.458.264Z" transform="translate(-445.703 -90.205)" fill="#3d2d4a"/></g><g transform="translate(2.568 26.959)"><path d="M443.526,92.009l-.458-.264.043,4.993.458.264Z" transform="translate(-443.068 -91.745)" fill="#3d2d4a"/></g><g transform="translate(0.003 0.265)"><path d="M441.227,100.43l47.647-27.842.006.88.034,5-.551.321-.034-5-3.123,1.825.035,5-.55.322-.035-5-3.124,1.826.036,5-.551.321-.036-5-3.123,1.825.036,5-.55.322-.037-5-3.123,1.825.037,5-.551.321-.037-5L470.511,84.2l.038,5-.55.322-.038-5-3.122,1.825.038,5-.55.322-.039-5-3.122,1.825.039,4.995-.55.321-.04-4.995-3.123,1.825.04,4.994-.55.322-.04-4.994-3.122,1.824.041,4.994-.55.321-.041-4.994-3.122,1.824.041,4.993-.55.322-.042-4.993-3.123,1.825.042,4.993-.55.322-.043-4.993L444.8,99.225l.043,4.992-.55.322-.043-4.992-3.018,1.763Z" transform="translate(-441.227 -72.588)" fill="#5a4b66"/></g><path d="M441.225,99.975,488.417,72.4l.458.265-47.647,27.842Z" transform="translate(-441.225 -72.398)" fill="#715f7f"/></g></g><g transform="translate(0 26.072)"><g style="isolation:isolate"><g transform="translate(70.999 2.966)"><path d="M440.965,93.5l-.458-.264.044,4.992.458.264Z" transform="translate(-440.507 -93.236)" fill="#3d2d4a"/></g><g transform="translate(67.325 5.112)"><path d="M438.329,95.04l-.458-.264.045,4.991.458.264Z" transform="translate(-437.871 -94.776)" fill="#3d2d4a"/></g><g transform="translate(63.654 7.257)"><path d="M435.694,96.58l-.458-.264.045,4.991.458.264Z" transform="translate(-435.236 -96.316)" fill="#3d2d4a"/></g><g transform="translate(59.982 9.403)"><path d="M433.059,98.12l-.458-.264.046,4.99.458.264Z" transform="translate(-432.601 -97.856)" fill="#3d2d4a"/></g><g transform="translate(56.309 11.549)"><path d="M430.424,99.66l-.458-.264.047,4.99.458.264Z" transform="translate(-429.965 -99.396)" fill="#3d2d4a"/></g><g transform="translate(52.638 13.695)"><path d="M427.789,101.2l-.458-.264.048,4.989.459.263Z" transform="translate(-427.331 -100.936)" fill="#3d2d4a"/></g><g transform="translate(48.967 15.84)"><path d="M425.155,102.739l-.458-.264.048,4.989.459.264Z" transform="translate(-424.696 -102.475)" fill="#3d2d4a"/></g><g transform="translate(45.294 17.986)"><path d="M422.52,104.279l-.459-.264L422.11,109l.459.264Z" transform="translate(-422.061 -104.015)" fill="#3d2d4a"/></g><g transform="translate(41.623 20.131)"><path d="M419.885,105.818l-.459-.264.049,4.988.459.264Z" transform="translate(-419.427 -105.554)" fill="#3d2d4a"/></g><g transform="translate(37.951 22.277)"><path d="M417.25,107.357l-.459-.263.05,4.987.459.264Z" transform="translate(-416.791 -107.094)" fill="#3d2d4a"/></g><g transform="translate(34.281 24.422)"><path d="M414.616,108.9l-.459-.264.051,4.987.459.263Z" transform="translate(-414.157 -108.633)" fill="#3d2d4a"/></g><g transform="translate(30.61 26.567)"><path d="M411.982,110.436l-.459-.263.052,4.986.459.263Z" transform="translate(-411.523 -110.173)" fill="#3d2d4a"/></g><g transform="translate(26.938 28.712)"><path d="M409.347,111.976l-.459-.263.053,4.986.459.263Z" transform="translate(-408.888 -111.712)" fill="#3d2d4a"/></g><g transform="translate(23.268 30.857)"><path d="M406.714,113.515l-.459-.263.053,4.985.459.263Z" transform="translate(-406.254 -113.251)" fill="#3d2d4a"/></g><g transform="translate(19.598 33.002)"><path d="M404.08,115.054l-.459-.263.054,4.985.459.263Z" transform="translate(-403.621 -114.79)" fill="#3d2d4a"/></g><g transform="translate(15.926 35.147)"><path d="M401.445,116.593l-.459-.263.055,4.984.459.263Z" transform="translate(-400.986 -116.33)" fill="#3d2d4a"/></g><g transform="translate(12.256 37.291)"><path d="M398.812,118.132l-.459-.263.056,4.983.459.263Z" transform="translate(-398.353 -117.869)" fill="#3d2d4a"/></g><g transform="translate(8.586 39.436)"><path d="M396.178,119.671l-.459-.263.056,4.983.459.263Z" transform="translate(-395.719 -119.408)" fill="#3d2d4a"/></g><g transform="translate(4.916 41.581)"><path d="M393.544,121.21l-.459-.263.057,4.982.459.263Z" transform="translate(-393.085 -120.947)" fill="#3d2d4a"/></g><g transform="translate(0.01 44.447)"><path d="M390.024,123.267l-.46-.263.058,4.982.459.263Z" transform="translate(-389.564 -123.004)" fill="#3d2d4a"/></g><g transform="translate(0.459 0.53)"><path d="M463.993,91.489l.005.88-2.563,1.5.044,4.992-.55.322-.044-4.992-3.123,1.825.044,4.991-.55.322-.045-4.991-3.121,1.824.045,4.99-.55.321-.045-4.99-3.121,1.824.046,4.99-.55.321-.046-4.99-3.122,1.825.047,4.99-.55.321-.047-4.99-3.121,1.824.047,4.989-.55.321-.048-4.989L439.4,106.74l.048,4.989-.55.321-.048-4.989-3.122,1.824.049,4.988-.55.321-.049-4.988-3.121,1.823.05,4.988-.55.322-.05-4.988-3.12,1.823.05,4.987-.551.322-.05-4.987-.259.152-2.861,1.672.051,4.987-.55.321-.051-4.986-3.121,1.823.052,4.986-.55.321-.052-4.986-3.12,1.823.053,4.986-.551.322-.053-4.986-3.12,1.823.053,4.985-.55.321-.053-4.985-3.12,1.823.054,4.984-.55.321-.054-4.984-3.12,1.823.055,4.984-.551.322-.055-4.984-3.12,1.823.055,4.984-.55.321-.056-4.984-3.12,1.823.056,4.983-.55.321-.056-4.983-3.12,1.823.057,4.982-.551.322L394.8,132.8l-4.355,2.545.058,4.982-.55.321-.058-4.982-.01-.877Z" transform="translate(-389.887 -91.489)" fill="#5a4b66"/></g><g transform="translate(0 43.571)"><path d="M390.017,122.638l-.459-.263.01.877.46.263Z" transform="translate(-389.557 -122.375)" fill="#3d2d4a"/></g><path d="M464.119,91.108l0,.53-74.106,43.3-.459-.263Z" transform="translate(-389.557 -91.108)" fill="#715f7f"/></g></g></g><g transform="translate(77.305 5.285)"><g style="isolation:isolate"><g transform="translate(50.744 1.185)"><path d="M481.811,77.3l-.451-.261.032,4.931.451.261Z" transform="translate(-481.36 -77.041)" fill="#3d2d4a"/></g><g transform="translate(51.195 1.446)"><path d="M481.716,82.16l-.032-4.932Z" transform="translate(-481.684 -77.228)" fill="#3d2d4a"/></g><g transform="translate(47.119 3.303)"><path d="M479.21,78.822l-.451-.261.033,4.931.451.261Z" transform="translate(-478.759 -78.561)" fill="#3d2d4a"/></g><g transform="translate(43.493 5.422)"><path d="M476.608,80.342l-.451-.261.034,4.93.451.261Z" transform="translate(-476.157 -80.081)" fill="#3d2d4a"/></g><g transform="translate(39.868 7.54)"><path d="M474.007,81.862l-.451-.261.034,4.93.451.26Z" transform="translate(-473.556 -81.601)" fill="#3d2d4a"/></g><g transform="translate(36.243 9.658)"><path d="M471.406,83.382l-.452-.261.035,4.929.451.26Z" transform="translate(-470.954 -83.121)" fill="#3d2d4a"/></g><g transform="translate(32.618 11.776)"><path d="M468.8,84.9l-.451-.261.036,4.929.451.26Z" transform="translate(-468.353 -84.642)" fill="#3d2d4a"/></g><g transform="translate(28.993 13.894)"><path d="M466.2,86.422l-.451-.261.036,4.928.451.261Z" transform="translate(-465.752 -86.161)" fill="#3d2d4a"/></g><g transform="translate(25.369 16.012)"><path d="M463.6,87.941l-.452-.261.037,4.928.451.26Z" transform="translate(-463.151 -87.681)" fill="#3d2d4a"/></g><g transform="translate(21.744 18.13)"><path d="M461,89.461l-.452-.26.038,4.927.451.26Z" transform="translate(-460.549 -89.201)" fill="#3d2d4a"/></g><g transform="translate(18.12 20.247)"><path d="M458.4,90.981l-.452-.26.039,4.927.451.26Z" transform="translate(-457.949 -90.72)" fill="#3d2d4a"/></g><g transform="translate(14.496 22.365)"><path d="M455.8,92.5l-.452-.261.039,4.926.452.26Z" transform="translate(-455.348 -92.24)" fill="#3d2d4a"/></g><g transform="translate(10.871 24.483)"><path d="M453.2,94.02l-.452-.26.04,4.926.452.26Z" transform="translate(-452.747 -93.76)" fill="#3d2d4a"/></g><g transform="translate(7.247 26.6)"><path d="M450.6,95.54l-.452-.26.041,4.925.452.26Z" transform="translate(-450.147 -95.279)" fill="#3d2d4a"/></g><g transform="translate(3.623 28.718)"><path d="M448,97.059l-.452-.26.041,4.925.452.26Z" transform="translate(-447.546 -96.799)" fill="#3d2d4a"/></g><g transform="translate(0 29.978)"><path d="M445.4,97.964l-.452-.26.041,5.781.452.26Z" transform="translate(-444.946 -97.703)" fill="#3d2d4a"/></g><g transform="translate(0.451 0.261)"><path d="M445.271,106.355v.857l.042,4.924.543-.317-.042-4.924,2.824-1.65.256-.15.041,4.924.544-.318-.041-4.925,3.081-1.8.041,4.925.543-.317-.041-4.925,3.081-1.8.04,4.926.543-.317-.04-4.926,3.082-1.8.039,4.926.543-.317-.039-4.926,3.081-1.8.038,4.927.543-.317-.038-4.927,3.081-1.8.038,4.927.543-.317-.038-4.927,3.082-1.8.037,4.927.543-.317-.037-4.927,3.081-1.8L474.3,95.2l.543-.317-.036-4.928,3.081-1.8.036,4.928.543-.317-.036-4.929,3.082-1.8.035,4.929.543-.317-.035-4.929,3.081-1.8.034,4.93.543-.317-.034-4.93,3.081-1.8.034,4.93.543-.317-.033-4.93,3.083-1.8.033,4.931.543-.317-.032-4.931,3.082-1.8.032,4.931.543-.317-.032-4.931-.006-.868Z" transform="translate(-445.27 -76.378)" fill="#5a4b66"/></g><path d="M496.679,76.452l-.451-.261-51.282,29.978.452.26Z" transform="translate(-444.946 -76.191)" fill="#715f7f"/></g></g><g transform="translate(9.236 45.048)"><g style="isolation:isolate"><g transform="translate(50.712 1.183)"><path d="M432.943,105.835l-.452-.26.045,4.922.452.26Z" transform="translate(-432.491 -105.575)" fill="#3d2d4a"/></g><g transform="translate(51.164 1.443)"><path d="M432.861,110.683l-.046-4.922Z" transform="translate(-432.815 -105.761)" fill="#3d2d4a"/></g><g transform="translate(47.089 3.3)"><path d="M430.343,107.354l-.452-.26.046,4.921.452.26Z" transform="translate(-429.891 -107.094)" fill="#3d2d4a"/></g><g transform="translate(43.466 5.417)"><path d="M427.743,108.873l-.452-.26.047,4.921.452.26Z" transform="translate(-427.29 -108.613)" fill="#3d2d4a"/></g><g transform="translate(39.843 7.534)"><path d="M425.144,110.392l-.453-.26.048,4.92.452.26Z" transform="translate(-424.691 -110.132)" fill="#3d2d4a"/></g><g transform="translate(36.221 9.65)"><path d="M422.544,111.911l-.453-.26.048,4.92.452.26Z" transform="translate(-422.091 -111.651)" fill="#3d2d4a"/></g><g transform="translate(32.598 11.767)"><path d="M419.944,113.43l-.453-.26.049,4.919.452.26Z" transform="translate(-419.492 -113.17)" fill="#3d2d4a"/></g><g transform="translate(28.976 13.884)"><path d="M417.345,114.949l-.453-.26.05,4.919.453.26Z" transform="translate(-416.892 -114.689)" fill="#3d2d4a"/></g><g transform="translate(25.354 16)"><path d="M414.746,116.467l-.453-.26.05,4.918.453.259Z" transform="translate(-414.293 -116.207)" fill="#3d2d4a"/></g><g transform="translate(21.731 18.117)"><path d="M412.146,117.986l-.453-.26.051,4.918.453.259Z" transform="translate(-411.694 -117.726)" fill="#3d2d4a"/></g><g transform="translate(18.109 20.233)"><path d="M409.547,119.5l-.453-.26.052,4.917.453.26Z" transform="translate(-409.094 -119.245)" fill="#3d2d4a"/></g><g transform="translate(14.488 22.349)"><path d="M406.949,121.023l-.453-.26.053,4.917.453.259Z" transform="translate(-406.496 -120.763)" fill="#3d2d4a"/></g><g transform="translate(10.866 24.465)"><path d="M404.349,122.542l-.453-.259.054,4.916.453.259Z" transform="translate(-403.896 -122.282)" fill="#3d2d4a"/></g><g transform="translate(7.244 26.581)"><path d="M401.751,124.06l-.453-.26.054,4.916.453.259Z" transform="translate(-401.297 -123.801)" fill="#3d2d4a"/></g><g transform="translate(3.622 28.697)"><path d="M399.152,125.579l-.453-.26.055,4.915.453.259Z" transform="translate(-398.698 -125.319)" fill="#3d2d4a"/></g><g transform="translate(0 29.958)"><path d="M396.552,126.483l-.453-.259.057,5.77.453.259Z" transform="translate(-396.099 -126.224)" fill="#3d2d4a"/></g><g transform="translate(0.453 0.26)"><path d="M396.424,134.87v.855l.056,4.914.542-.317-.055-4.914,2.822-1.649.256-.15.055,4.915.543-.318-.054-4.915,3.078-1.8.054,4.915.543-.317-.054-4.916,3.078-1.8.053,4.916.542-.317-.053-4.916,3.08-1.8.052,4.916.543-.317-.053-4.917,3.079-1.8.052,4.917.543-.317-.052-4.917,3.079-1.8.051,4.918.542-.317-.051-4.918,3.08-1.8.051,4.918.543-.317-.05-4.918,3.079-1.8.05,4.919.543-.317-.05-4.919,3.079-1.8.049,4.919.543-.317-.049-4.919,3.08-1.8.048,4.92.543-.317-.048-4.92,3.08-1.8.047,4.92.543-.317-.047-4.92,3.079-1.8.047,4.921.543-.317-.047-4.921,3.081-1.8.046,4.921.543-.317-.046-4.921,3.08-1.8.045,4.922.543-.317-.045-4.922-.008-.866Z" transform="translate(-396.424 -104.912)" fill="#5a4b66"/></g><path d="M447.8,104.986l-.452-.26L396.1,134.684l.453.259Z" transform="translate(-396.099 -104.726)" fill="#715f7f"/></g></g><path d="M498.109,171.415,423,128.31l55.241-32.274L553.2,139.253l-55.09,32.162Z" transform="translate(-376.277 -63.097)" fill="#1b8289"/><path d="M514.113,154.307l-7.337,4.284-72.758-41.524,7.357-4.3Z" transform="translate(-371.941 -56.512)" fill="#05555b" opacity="0.2" style="mix-blend-mode:multiply;isolation:isolate"/><path d="M533.008,137.782l-50.322-29.021,23.756-13.876,50.279,29.053-23.712,13.843Z" transform="translate(-352.79 -63.549)" fill="#05555b"/><path d="M454.164,163.423,403.583,134.46l23.756-13.879,50.537,29-23.712,13.847Z" transform="translate(-383.918 -53.438)" fill="#05555b"/><path d="M486.346,110.877l-21.333-12.3L488.79,84.682,510.105,97l-23.759,13.878Z" transform="translate(-359.745 -67.564)" fill="#13474a"/><path d="M463.552,168.789l-21.306-12.2,23.709-13.845,21.287,12.213-23.691,13.831Z" transform="translate(-368.704 -44.716)" fill="#199ba4"/><path d="M423,128.31l8.091,4.643,47.193-27.571,66.9,38.548,8.011-4.677L478.241,96.036Z" transform="translate(-376.277 -63.096)" fill="#1b8289" opacity="0.2" style="mix-blend-mode:multiply;isolation:isolate"/><path d="M482.686,108.761l8.057,4.646,15.724-9.184,42.241,24.393,8.012-4.677L506.442,94.886Z" transform="translate(-352.79 -63.549)" fill="#05555b" opacity="0.2" style="mix-blend-mode:multiply;isolation:isolate"/><path d="M403.583,134.46l8.1,4.637L427.4,129.91l42.459,24.344,8.012-4.678-50.537-29Z" transform="translate(-383.918 -53.438)" fill="#05555b" opacity="0.2" style="mix-blend-mode:multiply;isolation:isolate"/><path d="M465.013,98.574l8.073,4.656,15.738-9.195,13.254,7.652L510.105,97,488.79,84.682Z" transform="translate(-359.745 -67.565)" fill="#13474a" opacity="0.2" style="mix-blend-mode:multiply;isolation:isolate"/><path d="M442.246,156.589l8.062,4.617L466,152.042l13.236,7.589,8.005-4.674-21.287-12.213Z" transform="translate(-368.703 -44.716)" fill="#199ba4" opacity="0.2" style="mix-blend-mode:multiply;isolation:isolate"/><g transform="translate(19.665 17.118)" style="isolation:isolate"><g transform="translate(109.38)"><path d="M482.076,84.682l.027,4.2,21.311,12.311L503.391,97Z" transform="translate(-482.076 -84.682)" fill="#c8d0ec"/></g><g transform="translate(85.603)"><path d="M465.013,98.574l.031,4.2,23.773-13.889-.027-4.2Z" transform="translate(-465.013 -84.682)" fill="#dae0f4"/></g><g transform="translate(110.23 14.218)"><path d="M482.686,108.761l.027,4.189,23.752-13.873-.023-4.192Z" transform="translate(-482.686 -94.885)" fill="#dae0f4"/></g><g transform="translate(133.986 14.218)"><path d="M499.733,94.885l.023,4.192,50.27,29.039-.015-4.178Z" transform="translate(-499.733 -94.885)" fill="#c8d0ec"/></g><g transform="translate(27.058 15.822)"><path d="M423,128.31l.041,4.189,55.231-32.267-.032-4.2Z" transform="translate(-423 -96.036)" fill="#dae0f4"/></g><g transform="translate(82.299 15.822)"><path d="M462.642,96.036l.032,4.2,74.946,43.2-.019-4.176Z" transform="translate(-462.642 -96.036)" fill="#c8d0ec"/></g><g transform="translate(0 50.025)"><path d="M403.583,134.46l.046,4.186,23.752-13.876-.042-4.189Z" transform="translate(-403.583 -120.581)" fill="#dae0f4"/></g><g transform="translate(23.756 50.025)"><path d="M420.631,120.581l.042,4.189L471.2,153.752l-.033-4.175Z" transform="translate(-420.631 -120.581)" fill="#c8d0ec"/></g><g transform="translate(77.586 80.91)"><path d="M459.26,142.744l.033,4.174,21.283,12.208-.029-4.169Z" transform="translate(-459.26 -142.744)" fill="#c8d0ec"/></g><g transform="translate(53.877 80.91)"><path d="M442.246,156.589l.037,4.172,23.706-13.842-.033-4.174Z" transform="translate(-442.246 -142.744)" fill="#dae0f4"/></g></g><path d="M433.22,120l-.036-5.726,31.2-18.229.029,5.731Z" transform="translate(-372.27 -63.094)" fill="#f2f4fe"/><g transform="translate(69.696 41.72)"><g transform="translate(0.02 5.089)"><g style="isolation:isolate"><g transform="translate(0 4.972)"><path d="M439.5,109.557l.011,1.272L514.8,153.834l-.008-1.266Z" transform="translate(-439.5 -109.557)" fill="#d69617"/></g><g transform="translate(75.295 43.028)"><path d="M493.532,141.821l.008,1.266,8.486-4.954-.007-1.266Z" transform="translate(-493.532 -136.867)" fill="#d3891a"/></g><path d="M439.5,110.961l75.295,43.011,8.487-4.954-75.272-43.028Z" transform="translate(-439.5 -105.989)" fill="#ffb806"/></g></g><g transform="translate(8.14)"><g style="isolation:isolate"><g transform="translate(0.484 1.039)"><path d="M445.675,103.315l.4-.232.012,4.338-.4.233Z" transform="translate(-445.675 -103.082)" fill="#3d2d4a"/></g><g transform="translate(3.697 2.876)"><path d="M447.981,104.634l.4-.233.012,4.338-.4.232Z" transform="translate(-447.981 -104.401)" fill="#3d2d4a"/></g><g transform="translate(6.911 4.714)"><path d="M450.287,105.952l.4-.233.011,4.337-.4.232Z" transform="translate(-450.287 -105.72)" fill="#3d2d4a"/></g><g transform="translate(10.123 6.551)"><path d="M452.592,107.27l.4-.233.011,4.336-.4.232Z" transform="translate(-452.592 -107.038)" fill="#3d2d4a"/></g><g transform="translate(13.334 8.387)"><path d="M454.9,108.588l.4-.233.01,4.335-.4.232Z" transform="translate(-454.896 -108.355)" fill="#3d2d4a"/></g><g transform="translate(16.545 10.223)"><path d="M457.2,109.906l.4-.233.01,4.334-.4.232Z" transform="translate(-457.2 -109.673)" fill="#3d2d4a"/></g><g transform="translate(19.755 12.058)"><path d="M459.5,111.222l.4-.232.009,4.333-.4.233Z" transform="translate(-459.504 -110.99)" fill="#3d2d4a"/></g><g transform="translate(22.963 13.893)"><path d="M461.806,112.539l.4-.232.009,4.332-.4.232Z" transform="translate(-461.806 -112.306)" fill="#3d2d4a"/></g><g transform="translate(26.172 15.728)"><path d="M464.109,113.856l.4-.233.008,4.331-.4.232Z" transform="translate(-464.109 -113.623)" fill="#3d2d4a"/></g><g transform="translate(29.379 17.561)"><path d="M466.41,115.171l.4-.232.008,4.33-.4.232Z" transform="translate(-466.41 -114.939)" fill="#3d2d4a"/></g><g transform="translate(32.585 19.395)"><path d="M468.71,116.487l.4-.232.007,4.329-.4.232Z" transform="translate(-468.71 -116.255)" fill="#3d2d4a"/></g><g transform="translate(35.791 21.228)"><path d="M471.011,117.8l.4-.232.006,4.329-.4.232Z" transform="translate(-471.011 -117.57)" fill="#3d2d4a"/></g><g transform="translate(38.995 23.06)"><path d="M473.311,119.117l.4-.232.005,4.328-.395.232Z" transform="translate(-473.311 -118.885)" fill="#3d2d4a"/></g><g transform="translate(42.199 24.892)"><path d="M475.61,120.432l.4-.232.005,4.327-.395.232Z" transform="translate(-475.61 -120.2)" fill="#3d2d4a"/></g><g transform="translate(45.402 26.724)"><path d="M477.908,121.746l.4-.232,0,4.326-.395.232Z" transform="translate(-477.908 -121.514)" fill="#3d2d4a"/></g><g transform="translate(48.604 28.554)"><path d="M480.206,123.06l.4-.232,0,4.325-.395.232Z" transform="translate(-480.206 -122.828)" fill="#3d2d4a"/></g><g transform="translate(51.806 30.386)"><path d="M482.5,124.374l.395-.232,0,4.324-.4.232Z" transform="translate(-482.504 -124.142)" fill="#3d2d4a"/></g><g transform="translate(55.006 32.215)"><path d="M484.8,125.687l.395-.232,0,4.323-.4.232Z" transform="translate(-484.8 -125.455)" fill="#3d2d4a"/></g><g transform="translate(58.205 34.045)"><path d="M487.1,127l.395-.232,0,4.322-.4.232Z" transform="translate(-487.096 -126.768)" fill="#3d2d4a"/></g><g transform="translate(61.404 35.874)"><path d="M489.392,128.312l.395-.232,0,4.322-.395.232Z" transform="translate(-489.392 -128.08)" fill="#3d2d4a"/></g><g transform="translate(64.602 37.702)"><path d="M491.686,129.625l.395-.232v4.321l-.395.232Z" transform="translate(-491.686 -129.392)" fill="#3d2d4a"/></g><g transform="translate(67.798 39.53)"><path d="M493.98,130.936l.395-.232v4.32l-.395.232Z" transform="translate(-493.98 -130.704)" fill="#3d2d4a"/></g><g transform="translate(70.995 41.358)"><path d="M496.274,132.248l.395-.232v4.319l-.395.232Z" transform="translate(-496.274 -132.016)" fill="#3d2d4a"/></g><g transform="translate(75.266 43.8)"><path d="M499.339,134l.395-.232v4.318l-.394.232Z" transform="translate(-499.339 -133.768)" fill="#3d2d4a"/></g><g transform="translate(0 0.233)"><path d="M520.594,145.544v5.077l-.479-.274V146.03l-3.792-2.168v4.319l-.48-.274v-4.319l-2.717-1.553v4.319l-.479-.274v-4.32l-2.718-1.554v4.321l-.479-.274,0-4.321-2.718-1.554,0,4.322-.48-.275,0-4.321-2.719-1.555,0,4.322-.479-.274,0-4.322-2.72-1.555,0,4.324-.479-.274,0-4.323-2.72-1.556,0,4.324-.481-.275,0-4.324-2.721-1.556,0,4.325-.48-.274,0-4.325-2.722-1.556,0,4.326-.48-.274,0-4.326-2.5-1.427-.227-.13.005,4.327-.481-.275-.005-4.327-2.724-1.557.006,4.328-.48-.275-.006-4.328-2.724-1.558.006,4.329-.48-.275-.006-4.329-2.726-1.559.007,4.329-.48-.274-.007-4.33-2.726-1.558.008,4.33-.48-.275-.008-4.33-2.726-1.559.008,4.331-.481-.275-.008-4.331-2.728-1.56.008,4.332-.481-.275-.009-4.332-2.727-1.56.009,4.333-.481-.275-.009-4.333-2.728-1.56.009,4.334-.481-.275-.01-4.334-2.73-1.561.01,4.335-.481-.275-.01-4.335-2.73-1.561.011,4.335-.481-.275-.011-4.336-2.731-1.561.011,4.336-.481-.275-.011-4.336-2.732-1.562.012,4.337-.482-.275-.012-4.337-2.732-1.562.012,4.338-.482-.275-.012-4.338,0-.764Z" transform="translate(-445.327 -102.504)" fill="#5a4b66"/></g><g transform="translate(75.266 43.041)"><path d="M499.339,133.455l.395-.232v.76l-.395.232Z" transform="translate(-499.339 -133.223)" fill="#3d2d4a"/></g><path d="M445.327,102.57l.4-.233,75.266,43.041-.395.232Z" transform="translate(-445.327 -102.337)" fill="#715f7f"/></g></g><g transform="translate(0 4.718)"><g style="isolation:isolate"><g transform="translate(0.485 1.039)"><path d="M439.833,106.7l.4-.233.013,4.339-.4.233Z" transform="translate(-439.833 -106.468)" fill="#3d2d4a"/></g><g transform="translate(0.484 1.271)"><path d="M439.847,110.974l-.014-4.339Z" transform="translate(-439.833 -106.635)" fill="#3d2d4a"/></g><g transform="translate(3.701 2.877)"><path d="M442.141,108.02l.4-.233.013,4.338-.4.233Z" transform="translate(-442.141 -107.787)" fill="#3d2d4a"/></g><g transform="translate(6.917 4.714)"><path d="M444.449,109.339l.4-.233.013,4.338-.4.233Z" transform="translate(-444.449 -109.106)" fill="#3d2d4a"/></g><g transform="translate(10.131 6.551)"><path d="M446.756,110.657l.4-.233.012,4.337-.4.233Z" transform="translate(-446.756 -110.424)" fill="#3d2d4a"/></g><g transform="translate(13.344 8.388)"><path d="M449.062,111.974l.4-.232.011,4.335-.4.233Z" transform="translate(-449.062 -111.742)" fill="#3d2d4a"/></g><g transform="translate(16.558 10.224)"><path d="M451.368,113.292l.4-.233.011,4.335-.4.233Z" transform="translate(-451.368 -113.059)" fill="#3d2d4a"/></g><g transform="translate(19.77 12.059)"><path d="M453.673,114.609l.4-.233.01,4.334-.4.233Z" transform="translate(-453.673 -114.376)" fill="#3d2d4a"/></g><g transform="translate(22.981 13.894)"><path d="M455.977,115.926l.4-.232.01,4.333-.4.233Z" transform="translate(-455.977 -115.693)" fill="#3d2d4a"/></g><g transform="translate(26.192 15.729)"><path d="M458.281,117.242l.4-.232.01,4.332-.4.233Z" transform="translate(-458.281 -117.01)" fill="#3d2d4a"/></g><g transform="translate(29.401 17.562)"><path d="M460.584,118.558l.4-.233.009,4.331-.4.232Z" transform="translate(-460.584 -118.326)" fill="#3d2d4a"/></g><g transform="translate(32.609 19.396)"><path d="M462.886,119.874l.4-.233.008,4.33-.4.233Z" transform="translate(-462.886 -119.641)" fill="#3d2d4a"/></g><g transform="translate(35.818 21.229)"><path d="M465.189,121.19l.4-.232.008,4.33-.4.232Z" transform="translate(-465.189 -120.957)" fill="#3d2d4a"/></g><g transform="translate(39.024 23.061)"><path d="M467.49,122.5l.4-.233.007,4.329-.4.232Z" transform="translate(-467.49 -122.272)" fill="#3d2d4a"/></g><g transform="translate(42.231 24.894)"><path d="M469.791,123.819l.4-.233.007,4.328-.4.232Z" transform="translate(-469.791 -123.587)" fill="#3d2d4a"/></g><g transform="translate(45.436 26.725)"><path d="M472.091,125.134l.4-.232.006,4.327-.4.232Z" transform="translate(-472.091 -124.901)" fill="#3d2d4a"/></g><g transform="translate(48.64 28.556)"><path d="M474.39,126.447l.4-.232.005,4.326-.395.232Z" transform="translate(-474.39 -126.215)" fill="#3d2d4a"/></g><g transform="translate(51.844 30.387)"><path d="M476.69,127.761l.4-.232.005,4.325-.4.232Z" transform="translate(-476.69 -127.529)" fill="#3d2d4a"/></g><g transform="translate(55.047 32.217)"><path d="M478.988,129.074l.4-.232,0,4.324-.4.232Z" transform="translate(-478.988 -128.842)" fill="#3d2d4a"/></g><g transform="translate(58.248 34.047)"><path d="M481.285,130.387l.4-.232,0,4.323-.395.232Z" transform="translate(-481.285 -130.155)" fill="#3d2d4a"/></g><g transform="translate(61.45 35.877)"><path d="M483.583,131.7l.4-.232,0,4.322-.395.232Z" transform="translate(-483.583 -131.468)" fill="#3d2d4a"/></g><g transform="translate(64.65 37.705)"><path d="M485.879,133.012l.395-.232,0,4.321-.395.232Z" transform="translate(-485.879 -132.78)" fill="#3d2d4a"/></g><g transform="translate(67.849 39.533)"><path d="M488.175,134.324l.395-.232,0,4.32-.395.232Z" transform="translate(-488.175 -134.092)" fill="#3d2d4a"/></g><g transform="translate(71.048 41.361)"><path d="M490.471,135.636l.395-.232,0,4.32-.395.232Z" transform="translate(-490.471 -135.404)" fill="#3d2d4a"/></g><g transform="translate(75.322 43.803)"><path d="M493.538,137.389l.395-.232v4.319l-.395.232Z" transform="translate(-493.538 -137.156)" fill="#3d2d4a"/></g><g transform="translate(0 0.233)"><path d="M514.808,148.932v5.078l-.479-.273v-4.319l-3.8-2.169,0,4.32-.48-.274,0-4.32-2.719-1.554,0,4.321-.479-.274,0-4.321-2.72-1.554,0,4.322-.479-.274,0-4.322-2.72-1.555,0,4.322-.481-.275,0-4.322-2.721-1.555,0,4.323-.48-.274,0-4.323-2.722-1.555,0,4.324-.48-.274,0-4.324-2.722-1.556,0,4.325-.481-.275L490.849,136l-2.723-1.556.006,4.326-.48-.274-.005-4.326-2.724-1.557.006,4.327-.48-.274-.006-4.327-2.5-1.427-.227-.13.007,4.327-.481-.275-.007-4.328-2.725-1.557.007,4.329-.48-.275-.007-4.329-2.726-1.558.008,4.329-.481-.275-.008-4.329-2.728-1.559.008,4.33-.48-.275-.008-4.33-2.727-1.559.009,4.331-.481-.275-.009-4.331-2.728-1.559.009,4.332-.481-.275-.009-4.332-2.73-1.56.01,4.333-.481-.275-.01-4.333-2.73-1.56.01,4.334-.481-.275-.011-4.334-2.73-1.56.011,4.335-.481-.275-.011-4.335-2.732-1.561.012,4.336-.481-.275L452.349,114l-2.732-1.561.012,4.337-.482-.275-.012-4.337L446.4,110.6l.013,4.337-.482-.275-.013-4.338-2.734-1.563.013,4.338-.482-.275-.013-4.339-2.734-1.562.014,4.339-.482-.275-.014-4.34,0-.763Z" transform="translate(-439.486 -105.89)" fill="#5a4b66"/></g><g transform="translate(75.322 43.043)"><path d="M493.538,136.843l.395-.232v.76l-.395.232Z" transform="translate(-493.538 -136.611)" fill="#3d2d4a"/></g><path d="M439.486,105.956l.4-.233L515.2,148.766l-.395.232Z" transform="translate(-439.486 -105.723)" fill="#715f7f"/></g></g></g><g transform="translate(9.743 11.362)"><path d="M396.463,150.262l86.18,48.634,117.869-67.878L515.777,80.552l-36.945,21.585.029,5.73,9.823-5.738,74.958,43.217-55.091,32.162L433.443,134.4l14.228-8.311-.036-5.726ZM537.081,98.624,513.321,112.5l-21.333-12.3,23.777-13.892Zm29.857,44.8L516.616,114.4l23.755-13.877,50.279,29.053ZM460.262,181.062l23.709-13.845,21.287,12.214-23.691,13.831Zm-3.3-1.887-50.582-28.963,23.757-13.879,50.537,28.995Z" transform="translate(-396.463 -80.552)" fill="#f2f4fe"/></g></g></g></g><g transform="translate(-5497 1733.851)"><g clip-path="url(#a)"><g transform="translate(0 0.001)"><g clip-path="url(#b)"><path d="M18.124,5.466a1.86,1.86,0,0,1,.205-2.308,2.329,2.329,0,0,1,.534-.411c.383.03.772.088,1.142.151.876.142,1.749.287,2.625.433a14.014,14.014,0,0,1,2.488.569,8.812,8.812,0,0,1,3.811,2.853,17.136,17.136,0,0,1,2.357,4.188,3.958,3.958,0,0,1,.279,3.367c-.329.613-1.158,1.276-1.894,1-.608-.224-.98-1-1.336-1.495a8.259,8.259,0,0,0-2.13-1.949A8.046,8.046,0,0,1,23.629,8.9a7.292,7.292,0,0,0-.8-1.445c-.788-.939-2.113-1.15-3.291-1.489a11.84,11.84,0,0,1-1.41-.5" transform="translate(30.955 4.774)" fill="#0057bf"/><path d="M24,.862V17.244a2.816,2.816,0,1,1-5.631,0V.862Z" transform="translate(31.914 1.497)" fill="#a7d6e7"/><path d="M23.2,4.609v6.124a2.33,2.33,0,1,1-4.659,0V4.609Z" transform="translate(32.223 8.008)" fill="#2a3543"/><path d="M22.488,4.5c.928.517.958,1.372.068,1.908a3.627,3.627,0,0,1-3.293.033c-.931-.517-.961-1.372-.068-1.908A3.627,3.627,0,0,1,22.488,4.5" transform="translate(32.222 7.152)" fill="#6d8eaa"/><path d="M24.944,2.232l0-1.5A1.668,1.668,0,0,1,24,2.089a5.285,5.285,0,0,1-4.8.049A1.729,1.729,0,0,1,18.155.715v1.5A1.718,1.718,0,0,0,19.2,3.636,5.277,5.277,0,0,0,24,3.587a1.658,1.658,0,0,0,.944-1.355" transform="translate(31.545 1.242)" fill="#8bc3de"/><path d="M23.9.552c1.352.756,1.4,2,.1,2.781a5.285,5.285,0,0,1-4.8.047c-1.352-.753-1.4-2-.1-2.779A5.285,5.285,0,0,1,23.9.552" transform="translate(31.547 0)" fill="#bee9f7"/><path d="M21.253,3.139a4.422,4.422,0,0,0,2.19-.528,1.205,1.205,0,0,0,.709-.958c-.005-.345-.3-.7-.8-.986a4.82,4.82,0,0,0-4.312.038,1.211,1.211,0,0,0-.712.958c.005.35.3.709.8.988a4.459,4.459,0,0,0,2.124.487" transform="translate(31.853 0.307)" fill="#86c0da"/><path d="M18.992,5.975a2.283,2.283,0,0,1,.958-.684c-.452,0-1.243-.156-1.287-.318-.4-1.495,3.488-3.2,3.874-3.2a67.915,67.915,0,0,1,7.222,1.686s.591,2.858.712,3.23a35.247,35.247,0,0,1,.936,3.51c.222,1.038.326,2.094.528,3.135a13.591,13.591,0,0,0,.769,1.911c.586,1.684-2.379,1.8-3.3,1.185a2.235,2.235,0,0,1-.662-.813,6.883,6.883,0,0,1-.813-2.669l-.005-.068a.09.09,0,0,0,0-.038l-.005-.047a4.765,4.765,0,0,0-.5-2.431.808.808,0,0,0-.309-.29.6.6,0,0,0-.09-.033,1.6,1.6,0,0,0-.876-.413,11.611,11.611,0,0,0-2.861.307c-.3.025-.594.008-.89.049-.26.036-.616.123-.777-.153l-.022-.027a1.455,1.455,0,0,1,.276-.846,1.509,1.509,0,0,1-1.81.446A.865.865,0,0,1,19.69,9.1a.79.79,0,0,1,.044-.829,1.468,1.468,0,0,1,.687-.523A2.983,2.983,0,0,1,19.3,7.506a1.011,1.011,0,0,1-.6-.906,1.142,1.142,0,0,1,.287-.624" transform="translate(32.379 3.085)" fill="#1a70d6"/><path d="M4.18,26.912a5.7,5.7,0,0,0,5.456.452A7.375,7.375,0,0,0,11.7,25.774a29.385,29.385,0,0,0,4.054-5l-.575-9.349a5.852,5.852,0,0,0-3.449-3.3L11.706,8.1A7.01,7.01,0,0,0,9.3,7.7,8.816,8.816,0,0,0,2.913,11,12.192,12.192,0,0,0,.383,21.81a7.635,7.635,0,0,0,.487,1.317,8.727,8.727,0,0,0,3.31,3.786" transform="translate(0 13.373)" fill="#19100d"/><path d="M20.861,8.658l8.933,24.435,1.33,3.646a5.806,5.806,0,0,0,.416.824A5.408,5.408,0,0,0,38.1,39.828a5.083,5.083,0,0,0,2.045-1.445,5.772,5.772,0,0,0,.986-5.53C38.143,23.569,28.57,5.26,28.57,5.26c-.014-.03-.112-.022-.279.019-1.407.337-7.616,2.913-7.43,3.378" transform="translate(36.239 9.108)" fill="#ecf0ff"/><path d="M15.188,35.226c1.407,2.5,3.455,6.422,5.724,5.231,0,0,28.049-13.529,31.132-18.689l.049-.085a5.645,5.645,0,0,0-.151-6.294,3.73,3.73,0,0,0-2.28-.583,28.708,28.708,0,0,0-7.969,1.67c-8.415,2.713-19.357,7.977-23.729,10.145-1.221.6-1.93.966-1.93.966-3.1,1.328-2.026,5.524-.846,7.638" transform="translate(24.337 25.725)" fill="#ecf0ff"/><g transform="translate(38.344 14.35)" opacity="0.4" style="mix-blend-mode:multiply;isolation:isolate"><g clip-path="url(#c)"><path d="M15.188,51.843c1.407,2.5,3.455,6.422,5.724,5.231,0,0,28.049-13.529,31.132-18.689a5.771,5.771,0,0,0,.986-5.533C50.043,23.569,40.469,5.26,40.469,5.26c-.014-.03-.112-.022-.279.019A7.448,7.448,0,0,0,41.3,9.854c3.2,4.9,3.972,10.463,6.346,15.812.8,1.818,1.9,3.589,2.015,5.574,0,.063.005.123.005.183.074,2.809-1.829,5.311-3.885,7.249-.222.208-.449.416-.676.619-4.61,4.112-10.258,6.893-15.82,9.617-1.632.8-3.43,1.621-5.2,1.221-3.074-.69-4.142-4.375-6.113-6.89-1.221.6-1.93.966-1.93.966-3.1,1.328-2.026,5.524-.846,7.638" transform="translate(-14.007 -5.242)" fill="#d1dce6"/></g></g><path d="M12.213,75.048c-.276,3.3-.367,6.729-.468,8.221l-1.558.137c.033-3.241.318-5.946.419-8.407Z" transform="translate(17.701 130.314)"/><path d="M11.84,53.6c-.244,2.527-.5,5.054-.739,7.583-.4,4.03-1.355,8.095-1.068,12.1.734,10.2,1.859,20.365,2.995,30.527l-2.037,8.5,3.386,12.01,8.913.151c-.791-.011-2.814-17-3.006-18.747-.523-4.673.211-8.577.868-13.173q1.269-8.878,2.538-17.759a39.693,39.693,0,0,0,.725-8.437,30.658,30.658,0,0,1-.033-3.98c.057-1.114.824-3.318.471-4.336-.52-1.508-3.124-1.664-4.591-2.075-2.8-.783-5.615-1.566-8.423-2.357" transform="translate(17.342 93.141)" fill="#ba8b75"/><path d="M22.65,88.881,22.6,91.216l-6.463-.1a2.847,2.847,0,0,1-2.724-2.182l-2.231-9.256-.835-2.951.635-2.636s4.9,12.765,5.442,12.771,5.182-.077,5.182-.077l.178-1.8Z" transform="translate(17.984 128.73)" fill="#242424"/><path d="M6.875,20.849c.772-1.2,7.263,2.242,12.8,2.242s8.284-4.919,8.284.61-.8,30.8-6.337,30.8S3.886,25.512,6.875,20.849" transform="translate(11.138 35.787)" fill="#022540"/><path d="M8.045,77.063c-.167,3.3-.153,6.74-.211,8.232l-1.549.181c-.071-3.236.129-5.951.153-8.413Z" transform="translate(10.894 133.901)"/><path d="M6.805,55.669q-.25,3.8-.5,7.6c-.271,4.041-1.1,8.139-.687,12.127,1.054,10.173,2.5,20.3,3.95,30.414L7.8,114.373l3.759,11.895,8.908-.131c-.786.011-3.343-16.9-3.586-18.64-.668-4.648-.057-8.582.449-13.192q.994-8.915,1.979-17.83a39.2,39.2,0,0,0,.463-8.462,33.258,33.258,0,0,1-.162-3.978c.027-1.114.728-3.34.342-4.345-.572-1.489-3.176-1.571-4.646-1.933q-4.254-1.039-8.5-2.089" transform="translate(9.563 96.727)" fill="#deb09d"/><path d="M19.009,90.563l.038,2.343-6.466.088a2.84,2.84,0,0,1-2.8-2.091L7.267,81.72,6.342,78.8l.548-2.653s5.3,12.6,5.839,12.59S17.9,88.5,17.9,88.5l.123-1.81Z" transform="translate(11.02 132.304)" fill="#242424"/><path d="M7.448,99.462c5.724,6.184,31.772,1.763,32.459-6.636l.005-.068c.309-3.75.517-7.58.654-11.355.422-11.725.131-22.911-.137-29.527-.156-3.819-.3-6.116-.3-6.116A78.189,78.189,0,0,0,27.408,43c-8.552-.991-18.777,1.571-18.982,2.217-.014.038-.082.2-.2.474-.947,2.258-5,11.851-5.325,15.544-.912,10.312,1.979,35.462,4.544,38.23" transform="translate(4.747 74.318)" fill="#022540"/><g transform="translate(7.481 118.653)" opacity="0.2" style="mix-blend-mode:multiply;isolation:isolate"><g clip-path="url(#d)"><path d="M7.448,98.469c5.724,6.184,31.772,1.763,32.459-6.636l.005-.068a49.707,49.707,0,0,0-9.579,2.393,15.074,15.074,0,0,1-3.915,1.076,11.116,11.116,0,0,1-5.916-1.64,10.276,10.276,0,0,1-3.49-2.664,4.333,4.333,0,0,1-.764-4.153c.734-1.768,2.781-2.535,4.632-3.025A74.16,74.16,0,0,1,34.873,81.51a16.3,16.3,0,0,0,5.2-.871q.25-.1.493-.23c.422-11.725.131-22.911-.137-29.527-.52-.693-1.068-1.366-1.632-2.02a16.1,16.1,0,0,0-5.147-4.306,17.722,17.722,0,0,0-7.441-1.21,114.426,114.426,0,0,0-14.586.843c-1.125.14-2.261.3-3.4.506-.947,2.258-5,11.851-5.325,15.544C1.992,70.551,4.883,95.7,7.448,98.469" transform="translate(-2.733 -43.343)" fill="#022540"/></g></g><path d="M2.711,120.074c3.359,3.622,17.622,4.238,28.148,2.3,1.007-.186,1.421-25.621,1.421-25.621s2.666,24.676,3.219,24.512c4.112-1.251,6.953-3.03,7.14-5.281C44.108,98.141,40.33,58.742,40.949,54c.558-4.32,2.768-12.705,2.253-17.1-.3-2.56-3.507-13.822-3.759-14.369a3.859,3.859,0,0,0-2.738-2.144l-7.255-1.44a61.623,61.623,0,0,1,3.605,22.985,51.9,51.9,0,0,1-.52,5.732,55.32,55.32,0,0,0-2.384-5.659c-4.769-9.984-11.607-22.771-11.607-22.771S5.867,26.844,5.878,30.365c0,.11-.011.386-.033.819,0,.107-.011.23-.019.372C5.561,36.768,4.26,57.543,3.275,77.664q-.115,2.287-.219,4.55c-.9,19.226-1.418,36.7-.345,37.86" transform="translate(3.665 32.924)" fill="#dae0f4"/><g transform="translate(6.937 61.286)" style="mix-blend-mode:multiply;isolation:isolate"><g clip-path="url(#e)"><path d="M2.534,71.69c2.992,8.667,7,22.757,10.384,30.124.493,1.07,1.265,2.313,2.439,2.239,1.643-.1,1.894-2.415,2.932-3.693,1.01-1.246,3.033-1.678,3.449-3.228.35-1.306-.679-2.524-1.333-3.707-1.229-2.22-6.628-24.1-5.82-32.626.164-1.722.72-14.473.868-19.144.153-5,2.152-13.064-.843-17.6-2.094-3.17-6.663-1.287-9.5,1.15-.005.107-.014.23-.019.372C4.82,30.793,3.52,51.569,2.534,71.69" transform="translate(-2.534 -22.388)" fill="#d1dce6"/></g></g><path d="M17.342,31.846s1.9-7.071,1.938-7.312c.871-5.018-7.323-6.277-7.049-5.431.523,1.626,1.758,23.9,2.727,28.72.408-2.3,5.171-10.559,5.171-10.559Z" transform="translate(21.241 32.768)" fill="#fff"/><path d="M16.6,35.136s-8.963-6.012-9.2-6.3c-5.3-6.57,5.847-11.15,6.149-9.831.556,2.445-2.179,3.063,1.76,8.388,4.3,5.817,9.436,16.779,10.5,20.567-1.161-1.53-8.807-6.871-8.807-6.871Z" transform="translate(10.384 32.629)" fill="#fff"/><path d="M3.359,66.8c2.759,4.336,5.746,3.343,5.746,3.343,2.831.057,3.414-4.2,3.967-5.6,2.88-7.323,2.571-35.876,2.571-35.876.37-4.123-3.228-7.353-6.217-7.312-3.537.049-6.532,2.891-6.57,6.036,0,0-3.356,33.349.5,39.4" transform="translate(2.611 37.115)" fill="#ecf0ff"/><path d="M5.771,47.649c1.632-1.681,4.273-.876,5.5-.479a27.906,27.906,0,0,1,1.588,4.361,19.826,19.826,0,0,1,.214,7.627c-.386,3.165-3.028,3.422-4.531,2.237-1.659-1.311-2.313-5.6-2.989-9.157-.263-1.3.5-3.846.219-4.588" transform="translate(9.549 81.013)" fill="#1a70d6"/><path d="M1.808,40.5a6.349,6.349,0,0,0,.181.953l9.176,30.138c.148.567,7.881-1.333,7.8-1.651,0,0-2.721-21.851-6.094-31.55a5.78,5.78,0,0,0-6.978-3.945A5.684,5.684,0,0,0,1.808,40.5" transform="translate(3.087 59.477)" fill="#ecf0ff"/><path d="M7.636,49.3c-.052.019-.057-.129-.077,0a13.545,13.545,0,0,0,3.367,5.27c.391.408,1.322,1.344,1.823.6.485-.739-.334-3.8-2.948-6.316-.263-.255-1.922-1.6-2.031-.953Z" transform="translate(13.134 82.931)" fill="#1a70d6"/><path d="M16.77,32.239c0-1.385-.977-1.949-2.185-1.251a4.813,4.813,0,0,0-2.179,3.772c0,1.393.977,1.952,2.179,1.254a4.792,4.792,0,0,0,2.185-3.775" transform="translate(21.556 53.322)" fill="#0b0c0d"/><path d="M17.017,36.879c0-1.382-.983-1.952-2.185-1.254A4.817,4.817,0,0,0,12.653,39.4c0,1.388.977,1.949,2.179,1.262a4.851,4.851,0,0,0,2.185-3.783" transform="translate(21.985 61.382)" fill="#0b0c0d"/><path d="M15.71,28.15c3.362-1.8.925-8.6.249-8.851a2.473,2.473,0,0,0-2.51.381c-1.6,1.829-2.718,5.9-2.718,5.9s3.745,3.228,4.98,2.568" transform="translate(18.644 33.228)" fill="#0d3350"/><path d="M8.063,18.783l.033,2L8.148,24.6a7.454,7.454,0,0,0,1.131,1.311l.019.014a3.231,3.231,0,0,0,.545.457,5.626,5.626,0,0,0,1.949,1,10.454,10.454,0,0,0,3.564.493,3.425,3.425,0,0,0,1.068-.164,2.785,2.785,0,0,0,1.768-1.328,5.231,5.231,0,0,0,.506-1.328l-.238-4.818-.12-2.346Z" transform="translate(14.01 31.089)" fill="#e9ae93"/><path d="M7.166,24.931c1.363,2.119,5.346,5.535,7.545,5.188,1.35-.219,2.584-2.639,3.187-4.076a10.451,10.451,0,0,1-3.564-.49,5.674,5.674,0,0,1-1.949-1,3.245,3.245,0,0,1-.548-.46l-.016-.014a7.485,7.485,0,0,1-1.133-1.309l-.049-3.822C8.926,20,5.181,21.845,7.166,24.931" transform="translate(11.469 32.924)" fill="#0d3350"/><path d="M6.413,27.412c1.21,2.4,5.341,9.245,7.63,10.006,3.214,1.076,10.258,2.16,12.94-1.254,3.581-4.569,1.64-13.061-.964-21.156s-9.264-7.627-13.411-2.477c-4.134,5.119-10.019,7.287-6.2,14.881" transform="translate(8.994 15.246)" fill="#e9c2b0"/><path d="M24.915,9.163c-4.67-3.1-9.729-1.719-14.52.479-4.156,1.914-7.832,6.978-7.446,11.243.5,5.908,3.351,13.3,10.726,15.976,2.74,1-2.409-4.772.972-5.5,1.084-.23,1.2-2.072,1.949-2.483.6.208,4.646-2.644,9.141-4.8.323-.156.43-3.044.745-3.2.433-.2,1.073,2.327,1.465,2.133a18.738,18.738,0,0,0,3.912-2.551c.515-4.432-3.646-9.1-6.942-11.3" transform="translate(5.075 12.786)" fill="#2b0d04"/><path d="M10.706,16.782c1.35,1.681,1.629,3.7.624,4.5s-2.921.1-4.271-1.574-1.621-3.7-.619-4.506,2.921-.1,4.265,1.577" transform="translate(10.146 25.831)" fill="#e9c2b0"/><g transform="translate(21.481 34.137)" style="mix-blend-mode:multiply;isolation:isolate"><g clip-path="url(#f)"><path d="M7.964,20.389a28.728,28.728,0,0,0,5.062-2.026c2.267-.972,4.5-2.031,6.7-3.148.468-.238.961-.422,1.426-.662a3.562,3.562,0,0,0,1.257-.934c.131-.172.227-1.2.32-1.147a6.523,6.523,0,0,1,2.009,1.851c1.177,1.741,1.021,4.706-1.385,5.138a5.21,5.21,0,0,1-2.7-.381,3.2,3.2,0,0,0-1.979-.339c-.791.241-1.191,1.1-1.525,1.848a8.267,8.267,0,0,1-2.111,3.148,7.277,7.277,0,0,1-2.116,1.136,3.8,3.8,0,0,1-2.609.244A3.116,3.116,0,0,1,9.1,24.2a4.07,4.07,0,0,1-1.133-3.811" transform="translate(-7.846 -12.47)" fill="#ffe54d"/></g></g></g></g></g></g></g></svg>