<svg xmlns="http://www.w3.org/2000/svg" width="83.735" height="95.5" viewBox="0 0 83.735 95.5">
  <g id="ingeniero" transform="translate(-30.552)">
    <g id="Grupo_965418" data-name="Grupo 965418" transform="translate(30.552)">
      <g id="Grupo_965417" data-name="Grupo 965417" transform="translate(0)">
        <path id="Trazado_729899" data-name="Trazado 729899" d="M110.891,307.676a16.9,16.9,0,0,0-11.355-13.288L86.282,289.97V288H83.2v2.89l-2.3,9.2-6.221-7.466H70.157l-6.221,7.466-2.3-9.2V288H58.557v1.97L45.3,294.388a16.91,16.91,0,0,0-11.355,13.288l-3.4,20.372h83.735ZM44.84,324.968H34.19l.494-2.973,10.323,1.291Zm20.083,0H47.936l1.371-13.709-3.065-.307-.927,9.268-10.123-1.266,1.794-10.771a13.835,13.835,0,0,1,9.291-10.872L59,293.068l3.413,13.652,3.473-4.168,1.838,2.757Zm11.882,0H68.034l2.913-20.389-3-4.5L71.6,295.7h1.637l3.651,4.381-3,4.5ZM98.6,310.951l-3.065.307L96.9,324.966H79.916l-2.808-19.659,1.838-2.757,3.475,4.17,3.413-13.652,12.728,4.244a13.835,13.835,0,0,1,9.291,10.873l1.794,10.771-10.123,1.266Zm1.4,14.017-.168-1.682,10.323-1.291.494,2.973Z" transform="translate(-30.552 -232.548)" fill="#12263f"/>
        <path id="Trazado_729900" data-name="Trazado 729900" d="M107.3,29.05A7.623,7.623,0,0,0,112.382,41.5a16.839,16.839,0,0,0,4.282,7.227l6.007,6.007a7.649,7.649,0,0,0,5.445,2.255h7.219a7.651,7.651,0,0,0,5.445-2.255l6.007-6.007a16.848,16.848,0,0,0,4.282-7.227,7.623,7.623,0,0,0,5.083-12.452,4.608,4.608,0,0,0-1.323-9.026h-.219A23.209,23.209,0,0,0,137.887.867V0H125.565V.867A23.209,23.209,0,0,0,108.84,20.024h-.219A4.608,4.608,0,0,0,107.3,29.05Zm1.323,4.837A4.615,4.615,0,0,1,111.7,29.55v7.2c0,.5.029,1,.072,1.5A4.615,4.615,0,0,1,108.621,33.887Zm40.047,2.862a13.764,13.764,0,0,1-4.059,9.8L138.6,52.559a4.652,4.652,0,0,1-3.267,1.352h-7.219a4.654,4.654,0,0,1-3.267-1.352l-6.007-6.007a13.772,13.772,0,0,1-4.06-9.8V29.266h33.887Zm3.01,1.5c.043-.494.072-.994.072-1.5v-7.2a4.592,4.592,0,0,1-.072,8.7ZM125.565,4.076V16.944h3.081V3.081h6.161V16.944h3.081V4.076a20.132,20.132,0,0,1,13.626,15.948H111.939A20.132,20.132,0,0,1,125.565,4.076ZM108.621,23.1h46.21a1.54,1.54,0,1,1,0,3.081h-46.21a1.54,1.54,0,1,1,0-3.081Z" transform="translate(-89.858)" fill="#12263f"/>
        <rect id="Rect치ngulo_341122" data-name="Rect치ngulo 341122" width="3.081" height="3.081" transform="translate(51.109 13.863)" fill="#12263f"/>
        <rect id="Rect치ngulo_341123" data-name="Rect치ngulo 341123" width="3.081" height="3.081" transform="translate(29.545 13.863)" fill="#12263f"/>
      </g>
    </g>
  </g>
</svg>
